{
.appVersion = "116";
DisplayStrings = (
A
);
copyright = "Copyright © 2024 gbgk + The Inter Project Authors";
customParameters = (
{
name = license;
value = "OFL 1.1";
}
);
date = "2023-11-20 00:06:37 +0000";
designer = gbgk;
designerURL = "https://gbgk.me";
familyName = "Dag Round";
featurePrefixes = (
{
automatic = 1;
code = "languagesystem DFLT dflt;\012languagesystem latn dflt;\012languagesystem hebr dflt;\012languagesystem latn ROM;\012languagesystem latn MOL;\012languagesystem latn CAT;\012";
name = Languagesystems;
}
);
features = (
{
automatic = 1;
code = "feature locl;\012feature frac;\012feature ordn;\012feature smcp;\012";
name = aalt;
},
{
automatic = 1;
code = "script latn;\012language ROM;\012sub Scedilla by Scommaaccent;\012sub scedilla by scommaaccent;\012sub tcedilla by tcommaaccent;\012language MOL;\012sub Scedilla by Scommaaccent;\012sub scedilla by scommaaccent;\012sub tcedilla by tcommaaccent;\012language CAT;\012sub  l' periodcentered' l by ldot;\012sub  L' periodcentered' L by Ldot;\012";
name = locl;
},
{
automatic = 1;
code = "lookup FRAC {\012	sub slash by fraction;\012} FRAC;\012lookup UP {\012	sub [zero one two three four five six seven eight nine] by [zero.numr one.numr two.numr three.numr four.numr five.numr six.numr seven.numr eight.numr nine.numr];\012} UP;\012lookup DOWN {\012	sub fraction [zero.numr one.numr two.numr three.numr four.numr five.numr six.numr seven.numr eight.numr nine.numr]' by [zero.dnom one.dnom two.dnom three.dnom four.dnom five.dnom six.dnom seven.dnom eight.dnom nine.dnom];\012	sub [zero.dnom one.dnom two.dnom three.dnom four.dnom five.dnom six.dnom seven.dnom eight.dnom nine.dnom] [zero.numr one.numr two.numr three.numr four.numr five.numr six.numr seven.numr eight.numr nine.numr]' by [zero.dnom one.dnom two.dnom three.dnom four.dnom five.dnom six.dnom seven.dnom eight.dnom nine.dnom];\012} DOWN;\012";
name = frac;
},
{
automatic = 1;

glyphs = (
{
glyphname = A;
lastChange = "2024-07-06 18:59:39 +0000";
layers = (
{
layerId = "9A547413-C347-4957-B455-92488FFEB499";
paths = (
{
closed = 1;
nodes = (
"175 0 LINE SMOOTH",
"257 0 OFFCURVE",
"310 36 OFFCURVE",
"337 115 CURVE SMOOTH",
"419 356 LINE",
"997 356 LINE",
"1077 116 LINE SMOOTH",
"1103 38 OFFCURVE",
"1155 0 OFFCURVE",
"1238 0 CURVE SMOOTH",
"1262 0 LINE SMOOTH",
"1350 0 OFFCURVE",
"1384 65 OFFCURVE",
"1349 163 CURVE SMOOTH",
"918 1376 LINE SMOOTH",
"890 1453 OFFCURVE",
"838 1490 OFFCURVE",
"756 1490 CURVE SMOOTH",
"666 1490 LINE SMOOTH",
"584 1490 OFFCURVE",
"532 1453 OFFCURVE",
"504 1376 CURVE SMOOTH",
"71 163 LINE SMOOTH",
"36 65 OFFCURVE",
"69 0 OFFCURVE",
"155 0 CURVE SMOOTH"
);
},
{
closed = 1;
nodes = (
"493 573 LINE",
"565 783 LINE SMOOTH",
"587.667 851.667 OFFCURVE",
"610.667 923.333 OFFCURVE",
"634 998 CURVE SMOOTH",
"657.333 1072.667 OFFCURVE",
"683 1157 OFFCURVE",
"711 1251 CURVE",
"739 1157 OFFCURVE",
"764.5 1072.667 OFFCURVE",
"787.5 998 CURVE SMOOTH",
"810.5 923.333 OFFCURVE",
"833 851.667 OFFCURVE",
"855 783 CURVE SMOOTH",
"925 573 LINE"
);
}
);
userData = {
assembly = "NPUSHB[ ]	/* 41 values pushed */\01213 1 4 0 1 76 0 4 0 2 1 4 2 104 0 0 0 103 77 5 3 2 1 1 104 1 78 0 0 9 8 0 7 0 7 17 17 17 6 12 25 \012CALL[ ]	/* CallFunction */";
};
width = 1420;
}
);
leftKerningGroup = A;
note = A;
rightKerningGroup = A;
unicode = 0041;
},
{
glyphname = Astroke;
lastChange = "2024-07-06 18:59:39 +0000";
layers = (
{
layerId = "9A547413-C347-4957-B455-92488FFEB499";
paths = (
{
closed = 1;
nodes = (
"999 1678 OFFCURVE",
"966 1640 OFFCURVE",
"939 1562 CURVE SMOOTH",
"896 1436 LINE",
"887 1463 LINE SMOOTH",
"881 1481 OFFCURVE",
"838 1490 OFFCURVE",
"756 1490 CURVE SMOOTH",
"666 1490 LINE SMOOTH",
"584 1490 OFFCURVE",
"532 1453 OFFCURVE",
"504 1376 CURVE SMOOTH",
"71 163 LINE SMOOTH",
"36 65 OFFCURVE",
"77 0 OFFCURVE",
"175 0 CURVE SMOOTH",
"257 0 OFFCURVE",
"310 36 OFFCURVE",
"337 115 CURVE SMOOTH",
"419 356 LINE",
"533 356 LINE",
"404 -28 LINE SMOOTH",
"371 -126 OFFCURVE",
"377 -190 OFFCURVE",
"417 -190 CURVE SMOOTH",
"462 -190 OFFCURVE",
"497 -153 OFFCURVE",
"523 -74 CURVE SMOOTH",
"667 356 LINE",
"997 356 LINE",
"1077 116 LINE SMOOTH",
"1103 38 OFFCURVE",
"1155 0 OFFCURVE",
"1238 0 CURVE SMOOTH",
"1262 0 LINE SMOOTH",
"1350 0 OFFCURVE",
"1384 65 OFFCURVE",
"1349 163 CURVE SMOOTH",
"965 1242 LINE",
"1057 1516 LINE SMOOTH",
"1090 1614 OFFCURVE",
"1085 1678 OFFCURVE",
"1045 1678 CURVE SMOOTH"
);
},
{
closed = 1;
nodes = (
"493 573 LINE",
"565 783 LINE SMOOTH",
"587.667 851.667 OFFCURVE",
"610.667 923.333 OFFCURVE",
"634 998 CURVE SMOOTH",
"657.333 1072.667 OFFCURVE",
"683 1157 OFFCURVE",
"711 1251 CURVE",
"721.667 1216.333 OFFCURVE",
"731.833 1183 OFFCURVE",
"741.5 1151 CURVE SMOOTH",
"769 1058 LINE",
"606 573 LINE"
);
},
{
closed = 1;
nodes = (
"855 783 LINE",
"925 573 LINE",
"741 573 LINE",
"834 850 LINE"
);
}
);
userData = {
assembly = "NPUSHB[ ]	/* 66 values pushed */\01220 17 14 1 4 7 5 1 76 9 1 6 5 6 133 0 2 0 2 134 8 10 2 7 3 1 1 0 7 1 104 0 5 5 103 77 4 1 0 0 104 0 78 16 16 0 0 27 26 16 24 16 24 0 15 0 15 17 17 17 17 17 18 11 12 28 \012CALL[ ]	/* CallFunction */";
};
width = 1420;
}
);
leftKerningGroup = A;
note = uni023A;
rightKerningGroup = A;
unicode = 023A;
},
{
glyphname = AE;
lastChange = "2024-07-06 18:59:39 +0000";
layers = (
{
layerId = "9A547413-C347-4957-B455-92488FFEB499";
paths = (
{
closed = 1;
nodes = (
"170 0 LINE SMOOTH",
"251 0 OFFCURVE",
"303 35 OFFCURVE",
"334 109 CURVE SMOOTH",
"451 387 LINE",
"952 387 LINE",
"952 142 LINE SMOOTH",
"952 50 OFFCURVE",
"1002 0 OFFCURVE",
"1094 0 CURVE SMOOTH",
"1840 0 LINE SMOOTH",
"1932 0 OFFCURVE",
"1982 41 OFFCURVE",
"1982 115 CURVE SMOOTH",
"1982 189 OFFCURVE",
"1932 229 OFFCURVE",
"1840 229 CURVE SMOOTH",
"1211 229 LINE",
"1211 637 LINE",
"1782 637 LINE SMOOTH",
"1874 637 OFFCURVE",
"1924 677 OFFCURVE",
"1924 750 CURVE SMOOTH",
"1924 823 OFFCURVE",
"1874 862 OFFCURVE",
"1782 862 CURVE SMOOTH",
"1211 862 LINE",
"1211 1261 LINE",
"1840 1261 LINE SMOOTH",
"1932 1261 OFFCURVE",
"1982 1302 OFFCURVE",
"1982 1376 CURVE SMOOTH",
"1982 1450 OFFCURVE",
"1932 1490 OFFCURVE",
"1840 1490 CURVE SMOOTH",
"772 1490 LINE SMOOTH",
"691 1490 OFFCURVE",
"639 1457 OFFCURVE",
"607 1382 CURVE SMOOTH",
"84 166 LINE SMOOTH",
"42 67 OFFCURVE",
"69 0 OFFCURVE",
"151 0 CURVE SMOOTH"
);
},
{
closed = 1;
nodes = (
"540 598 LINE",
"819 1261 LINE",
"952 1261 LINE",
"952 598 LINE"
);
}
);
userData = {
assembly = "NPUSHB[ ]	/* 60 values pushed */\0120 2 0 3 8 2 3 103 0 8 0 6 4 8 6 103 9 1 1 1 0 95 0 0 0 103 77 0 4 4 5 95 10 7 2 5 5 104 5 78 0 0 19 18 17 16 0 15 0 15 17 17 17 17 17 17 17 11 12 29 \012CALL[ ]	/* CallFunction */";
};
width = 2048;
}
);
leftKerningGroup = A;
note = AE;
rightKerningGroup = AE;
unicode = 00C6;
},
{
glyphname = B;
lastChange = "2024-07-06 18:59:39 +0000";
layers = (
{
layerId = "9A547413-C347-4957-B455-92488FFEB499";
paths = (
{
closed = 1;
nodes = (
"124 142 LINE SMOOTH",
"124 50 OFFCURVE",
"174 0 OFFCURVE",
"266 0 CURVE SMOOTH",
"726 0 LINE SMOOTH",
"898.667 0 OFFCURVE",
"1029.5 38.5 OFFCURVE",
"1118.5 115.5 CURVE SMOOTH",
"1207.5 192.5 OFFCURVE",
"1252 293.667 OFFCURVE",
"1252 419 CURVE SMOOTH",
"1252 525 OFFCURVE",
"1221.5 608.167 OFFCURVE",
"1160.5 668.5 CURVE SMOOTH",
"1099.5 728.833 OFFCURVE",
"1024.667 764.333 OFFCURVE",
"936 775 CURVE",
"936 777 LINE",
"1016 799 OFFCURVE",
"1079.167 837.333 OFFCURVE",
"1125.5 892 CURVE SMOOTH",
"1171.833 946.667 OFFCURVE",
"1195 1017 OFFCURVE",
"1195 1103 CURVE SMOOTH",
"1195 1219.667 OFFCURVE",
"1151.833 1313.333 OFFCURVE",
"1065.5 1384 CURVE SMOOTH",
"979.167 1454.667 OFFCURVE",
"857.333 1490 OFFCURVE",
"700 1490 CURVE SMOOTH",
"266 1490 LINE SMOOTH",
"174 1490 OFFCURVE",
"124 1440 OFFCURVE",
"124 1348 CURVE SMOOTH"
);
},
{
closed = 1;
nodes = (
"384 215 LINE",
"384 652 LINE",
"704 652 LINE SMOOTH",
"792 652 OFFCURVE",
"860.167 632 OFFCURVE",
"908.5 592 CURVE SMOOTH",
"956.833 552 OFFCURVE",
"981 497.333 OFFCURVE",
"981 428 CURVE SMOOTH",
"981 359.333 OFFCURVE",
"956.333 306.667 OFFCURVE",
"907 270 CURVE SMOOTH",
"857.667 233.333 OFFCURVE",
"788 215 OFFCURVE",
"698 215 CURVE SMOOTH"
);
},
{
closed = 1;
nodes = (
"384 859 LINE",
"384 1275 LINE",
"688 1275 LINE SMOOTH",
"764 1275 OFFCURVE",
"823.5 1256.333 OFFCURVE",
"866.5 1219 CURVE SMOOTH",
"909.5 1181.667 OFFCURVE",
"931 1131 OFFCURVE",
"931 1067 CURVE SMOOTH",
"931 1003.667 OFFCURVE",
"909.5 953.167 OFFCURVE",
"866.5 915.5 CURVE SMOOTH",
"823.5 877.833 OFFCURVE",
"764 859 OFFCURVE",
"688 859 CURVE SMOOTH"
);
}
);
userData = {
assembly = "NPUSHB[ ]	/* 54 values pushed */\0128 1 3 4 1 76 0 4 0 3 2 4 3 103 0 5 5 0 95 0 0 0 103 77 0 2 2 1 95 6 1 1 1 104 1 78 0 0 33 31 27 25 24 22 18 16 0 15 0 14 33 7 12 23 \012CALL[ ]	/* CallFunction */";
};
width = 1316;
}
);
leftKerningGroup = B;
note = B;
rightKerningGroup = B;
unicode = 0042;
},
{
glyphname = Bhook;
lastChange = "2024-07-06 18:59:39 +0000";
layers = (
{
layerId = "9A547413-C347-4957-B455-92488FFEB499";
paths = (
{
closed = 1;
nodes = (
"35 1180 LINE SMOOTH",
"35 1088 OFFCURVE",
"79 1038 OFFCURVE",
"160 1038 CURVE SMOOTH",
"241 1038 OFFCURVE",
"285 1087 OFFCURVE",
"285 1177 CURVE SMOOTH",
"285 1235.667 OFFCURVE",
"318 1265 OFFCURVE",
"384 1265 CURVE SMOOTH",
"476 1265 LINE",
"476 142 LINE SMOOTH",
"476 50 OFFCURVE",
"526 0 OFFCURVE",
"618 0 CURVE SMOOTH",
"1078 0 LINE SMOOTH",
"1250.667 0 OFFCURVE",
"1381.5 38.5 OFFCURVE",
"1470.5 115.5 CURVE SMOOTH",
"1559.5 192.5 OFFCURVE",
"1604 293.667 OFFCURVE",
"1604 419 CURVE SMOOTH",
"1604 525 OFFCURVE",
"1573.5 608.167 OFFCURVE",
"1512.5 668.5 CURVE SMOOTH",
"1451.5 728.833 OFFCURVE",
"1376.667 764.333 OFFCURVE",
"1288 775 CURVE",
"1288 777 LINE",
"1368 799 OFFCURVE",
"1431.167 837.333 OFFCURVE",
"1477.5 892 CURVE SMOOTH",
"1523.833 946.667 OFFCURVE",
"1547 1017 OFFCURVE",
"1547 1103 CURVE SMOOTH",
"1547 1219.667 OFFCURVE",
"1503.833 1313.333 OFFCURVE",
"1417.5 1384 CURVE SMOOTH",
"1331.167 1454.667 OFFCURVE",
"1209.333 1490 OFFCURVE",
"1052 1490 CURVE SMOOTH",
"330 1490 LINE SMOOTH",
"232.667 1490 OFFCURVE",
"159.167 1464.5 OFFCURVE",
"109.5 1413.5 CURVE SMOOTH",
"59.833 1362.5 OFFCURVE",
"35 1291 OFFCURVE",
"35 1199 CURVE SMOOTH"
);
},
{
closed = 1;
nodes = (
"736 215 LINE",
"736 652 LINE",
"1056 652 LINE SMOOTH",
"1144 652 OFFCURVE",
"1212.167 632 OFFCURVE",
"1260.5 592 CURVE SMOOTH",
"1308.833 552 OFFCURVE",
"1333 497.333 OFFCURVE",
"1333 428 CURVE SMOOTH",
"1333 359.333 OFFCURVE",
"1308.333 306.667 OFFCURVE",
"1259 270 CURVE SMOOTH",
"1209.667 233.333 OFFCURVE",
"1140 215 OFFCURVE",
"1050 215 CURVE SMOOTH"
);
},
{
closed = 1;
nodes = (
"736 859 LINE",
"736 1275 LINE",
"1040 1275 LINE SMOOTH",
"1116 1275 OFFCURVE",
"1175.5 1256.333 OFFCURVE",
"1218.5 1219 CURVE SMOOTH",
"1261.5 1181.667 OFFCURVE",
"1283 1131 OFFCURVE",
"1283 1067 CURVE SMOOTH",
"1283 1003.667 OFFCURVE",
"1261.5 953.167 OFFCURVE",
"1218.5 915.5 CURVE SMOOTH",
"1175.5 877.833 OFFCURVE",
"1116 859 OFFCURVE",
"1040 859 CURVE SMOOTH"
);
}
);
userData = {
assembly = "PUSHB[ ]	/* 6 values pushed */\01211 1 5 6 1 76 \012MPPEM[ ]	/* MeasurePixelPerEm */\012PUSHB[ ]	/* 1 value pushed */\01210 \012LT[ ]	/* LessThan */\012IF[ ]	/* If */\012NPUSHB[ ]	/* 38 values pushed */\0128 1 3 2 6 2 3 114 0 6 0 5 4 6 5 103 7 1 2 2 0 95 0 0 0 103 77 0 4 4 1 95 0 1 1 104 1 78 \012ELSE[ ]	/* Else */\012MPPEM[ ]	/* MeasurePixelPerEm */\012PUSHB[ ]	/* 1 value pushed */\01249 \012LT[ ]	/* LessThan */\012IF[ ]	/* If */\012NPUSHB[ ]	/* 39 values pushed */\0128 1 3 2 6 2 3 6 128 0 6 0 5 4 6 5 103 7 1 2 2 0 95 0 0 0 103 77 0 4 4 1 95 0 1 1 104 1 78 \012ELSE[ ]	/* Else */\012NPUSHB[ ]	/* 44 values pushed */\0120 2 7 3 7 2 114 8 1 3 6 7 3 6 126 0 6 0 5 4 6 5 103 0 7 7 0 95 0 0 0 103 77 0 4 4 1 95 0 1 1 104 1 78 \012EIF[ ]	/* EndIf */\012EIF[ ]	/* EndIf */\012NPUSHB[ ]	/* 20 values pushed */\0120 0 42 40 36 34 33 31 27 25 0 24 0 24 33 43 51 9 12 25 \012CALL[ ]	/* CallFunction */";
};
width = 1668;
}
);
leftKerningGroup = B;
note = uni0181;
rightKerningGroup = B;
unicode = 0181;
},
{
glyphname = Btopbar;
lastChange = "2024-07-06 18:59:39 +0000";
layers = (
{
layerId = "9A547413-C347-4957-B455-92488FFEB499";
paths = (
{
closed = 1;
nodes = (
"124 142 LINE SMOOTH",
"124 50 OFFCURVE",
"174 0 OFFCURVE",
"266 0 CURVE SMOOTH",
"681 0 LINE SMOOTH",
"794.333 0 OFFCURVE",
"891.5 19.5 OFFCURVE",
"972.5 58.5 CURVE SMOOTH",
"1053.5 97.5 OFFCURVE",
"1115.667 151.667 OFFCURVE",
"1159 221 CURVE SMOOTH",
"1202.333 290.333 OFFCURVE",
"1224 370.667 OFFCURVE",
"1224 462 CURVE SMOOTH",
"1224 598 OFFCURVE",
"1176 706.5 OFFCURVE",
"1080 787.5 CURVE SMOOTH",
"984 868.5 OFFCURVE",
"851 909 OFFCURVE",
"681 909 CURVE SMOOTH",
"384 909 LINE",
"384 1270 LINE",
"935 1270 LINE SMOOTH",
"1027 1270 OFFCURVE",
"1077 1309 OFFCURVE",
"1077 1380 CURVE SMOOTH",
"1077 1451 OFFCURVE",
"1027 1490 OFFCURVE",
"935 1490 CURVE SMOOTH",
"266 1490 LINE SMOOTH",
"174 1490 OFFCURVE",
"124 1440 OFFCURVE",
"124 1348 CURVE SMOOTH"
);
},
{
closed = 1;
nodes = (
"384 216 LINE",
"384 695 LINE",
"681 695 LINE SMOOTH",
"772.333 695 OFFCURVE",
"842.5 672.5 OFFCURVE",
"891.5 627.5 CURVE SMOOTH",
"940.5 582.5 OFFCURVE",
"965 528 OFFCURVE",
"965 464 CURVE SMOOTH",
"965 398.667 OFFCURVE",
"940.5 340.833 OFFCURVE",
"891.5 290.5 CURVE SMOOTH",
"842.5 240.167 OFFCURVE",
"772.333 215.333 OFFCURVE",
"681 216 CURVE SMOOTH"
);
}
);
userData = {
assembly = "NPUSHB[ ]	/* 46 values pushed */\0120 2 0 5 4 2 5 103 0 1 1 0 95 0 0 0 103 77 0 4 4 3 95 6 1 3 3 104 3 78 0 0 22 20 16 14 0 13 0 12 33 17 17 7 12 25 \012CALL[ ]	/* CallFunction */";
};
width = 1286;
}
);
note = uni0182;
unicode = 0182;
},
{
glyphname = C;
lastChange = "2024-07-06 18:59:39 +0000";
layers = (
{
layerId = "9A547413-C347-4957-B455-92488FFEB499";
paths = (
{
closed = 1;
nodes = (
"886 -24 OFFCURVE",
"987.333 -2.167 OFFCURVE",
"1078 41.5 CURVE SMOOTH",
"1168.667 85.167 OFFCURVE",
"1243.5 146.833 OFFCURVE",
"1302.5 226.5 CURVE SMOOTH",
"1333 267 OFFCURVE",
"1357 312 OFFCURVE",
"1377 360 CURVE SMOOTH",
"1411 450 OFFCURVE",
"1359 509 OFFCURVE",
"1269 509 CURVE SMOOTH",
"1187 509 OFFCURVE",
"1146 470 OFFCURVE",
"1106 395 CURVE SMOOTH",
"1083 354 OFFCURVE",
"1054 318 OFFCURVE",
"1017 290 CURVE SMOOTH",
"951 238.667 OFFCURVE",
"870.667 213 OFFCURVE",
"776 213 CURVE SMOOTH",
"684.667 213 OFFCURVE",
"606.333 235 OFFCURVE",
"541 279 CURVE SMOOTH",
"475.667 323 OFFCURVE",
"425.5 384.833 OFFCURVE",
"390.5 464.5 CURVE SMOOTH",
"355.5 544.167 OFFCURVE",
"338 637.333 OFFCURVE",
"338 744 CURVE SMOOTH",
"338 851.333 OFFCURVE",
"355.5 945 OFFCURVE",
"390.5 1025 CURVE SMOOTH",
"425.5 1105 OFFCURVE",
"475.833 1167 OFFCURVE",
"541.5 1211 CURVE SMOOTH",
"607.167 1255 OFFCURVE",
"685.333 1277 OFFCURVE",
"776 1277 CURVE SMOOTH",
"871.333 1277 OFFCURVE",
"952 1251 OFFCURVE",
"1018 1199 CURVE SMOOTH",
"1054 1170 OFFCURVE",
"1084 1135 OFFCURVE",
"1106 1094 CURVE SMOOTH",
"1146 1019 OFFCURVE",
"1187 979 OFFCURVE",
"1269 979 CURVE SMOOTH",
"1282 979 LINE SMOOTH",
"1365 979 OFFCURVE",
"1411 1042 OFFCURVE",
"1372 1138 CURVE SMOOTH",
"1354 1183 OFFCURVE",
"1331 1224 OFFCURVE",
"1302.5 1262 CURVE SMOOTH",
"1243.5 1342 OFFCURVE",
"1168.667 1404 OFFCURVE",
"1078 1448 CURVE SMOOTH",
"987.333 1492 OFFCURVE",
"886 1514 OFFCURVE",
"774 1514 CURVE SMOOTH",
"636.667 1514 OFFCURVE",
"515.333 1482.333 OFFCURVE",
"410 1419 CURVE SMOOTH",
"304.667 1355.667 OFFCURVE",
"222 1266.333 OFFCURVE",
"162 1151 CURVE SMOOTH",
"102 1035.667 OFFCURVE",
"72 900 OFFCURVE",
"72 744 CURVE SMOOTH",
"72 589.333 OFFCURVE",
"102 454.333 OFFCURVE",
"162 339 CURVE SMOOTH",
"222 223.667 OFFCURVE",
"304.667 134.333 OFFCURVE",
"410 71 CURVE SMOOTH",
"515.333 7.667 OFFCURVE",
"636.667 -24 OFFCURVE",
"774 -24 CURVE SMOOTH"
);
}
);
userData = {
assembly = "MPPEM[ ]	/* MeasurePixelPerEm */\012PUSHB[ ]	/* 1 value pushed */\01250 \012LT[ ]	/* LessThan */\012IF[ ]	/* If */\012NPUSHB[ ]	/* 37 values pushed */\0120 2 3 5 3 2 5 128 0 5 4 3 5 4 126 0 3 3 1 97 0 1 1 109 77 0 4 4 0 97 6 1 0 0 110 0 78 \012ELSE[ ]	/* Else */\012NPUSHB[ ]	/* 35 values pushed */\0120 2 3 5 3 2 5 128 0 5 4 3 5 4 126 0 1 0 3 2 1 3 105 0 4 4 0 97 6 1 0 0 110 0 78 \012EIF[ ]	/* EndIf */\012NPUSHB[ ]	/* 19 values pushed */\0121 0 28 27 25 23 17 15 13 12 9 7 0 31 1 31 7 12 22 \012CALL[ ]	/* CallFunction */";
};
width = 1484;
}
);
leftKerningGroup = C;
note = C;
rightKerningGroup = C;
unicode = 0043;
},
{
glyphname = Chook;
lastChange = "2024-07-06 18:59:39 +0000";
layers = (
{
layerId = "9A547413-C347-4957-B455-92488FFEB499";
paths = (
{
closed = 1;
nodes = (
"886 -24 OFFCURVE",
"987.333 -2.167 OFFCURVE",
"1078 41.5 CURVE SMOOTH",
"1168.667 85.167 OFFCURVE",
"1243.5 146.833 OFFCURVE",
"1302.5 226.5 CURVE SMOOTH",
"1333 267 OFFCURVE",
"1357 312 OFFCURVE",
"1377 360 CURVE SMOOTH",
"1411 450 OFFCURVE",
"1359 509 OFFCURVE",
"1269 509 CURVE SMOOTH",
"1187 509 OFFCURVE",
"1146 470 OFFCURVE",
"1106 395 CURVE SMOOTH",
"1083 354 OFFCURVE",
"1054 318 OFFCURVE",
"1017 290 CURVE SMOOTH",
"951 238.667 OFFCURVE",
"870.667 213 OFFCURVE",
"776 213 CURVE SMOOTH",
"684.667 213 OFFCURVE",
"606.333 235 OFFCURVE",
"541 279 CURVE SMOOTH",
"475.667 323 OFFCURVE",
"425.5 384.833 OFFCURVE",
"390.5 464.5 CURVE SMOOTH",
"355.5 544.167 OFFCURVE",
"338 637.333 OFFCURVE",
"338 744 CURVE SMOOTH",
"338 851.333 OFFCURVE",
"355.5 945 OFFCURVE",
"390.5 1025 CURVE SMOOTH",
"425.5 1105 OFFCURVE",
"475.833 1167 OFFCURVE",
"541.5 1211 CURVE SMOOTH",
"607.167 1255 OFFCURVE",
"685.333 1277 OFFCURVE",
"776 1277 CURVE SMOOTH",
"871.333 1277 OFFCURVE",
"952 1251 OFFCURVE",
"1018 1199 CURVE SMOOTH",
"1054 1170 OFFCURVE",
"1084 1135 OFFCURVE",
"1106 1094 CURVE SMOOTH",
"1146 1019 OFFCURVE",
"1187 979 OFFCURVE",
"1269 979 CURVE SMOOTH",
"1282 979 LINE SMOOTH",
"1369 979 OFFCURVE",
"1416 1029 OFFCURVE",
"1416 1121 CURVE SMOOTH",
"1416 1373 LINE SMOOTH",
"1416 1436.333 OFFCURVE",
"1451.333 1468 OFFCURVE",
"1522 1468 CURVE SMOOTH",
"1595 1468 OFFCURVE",
"1635 1505 OFFCURVE",
"1635 1572 CURVE SMOOTH",
"1635 1639 OFFCURVE",
"1585 1676 OFFCURVE",
"1493 1676 CURVE SMOOTH",
"1493 1676 LINE SMOOTH",
"1281 1676 OFFCURVE",
"1172 1582.667 OFFCURVE",
"1166 1396 CURVE",
"1112.667 1434 OFFCURVE",
"1052.833 1463.167 OFFCURVE",
"986.5 1483.5 CURVE SMOOTH",
"920.167 1503.833 OFFCURVE",
"849.333 1514 OFFCURVE",
"774 1514 CURVE SMOOTH",
"636.667 1514 OFFCURVE",
"515.333 1482.333 OFFCURVE",
"410 1419 CURVE SMOOTH",
"304.667 1355.667 OFFCURVE",
"222 1266.333 OFFCURVE",
"162 1151 CURVE SMOOTH",
"102 1035.667 OFFCURVE",
"72 900 OFFCURVE",
"72 744 CURVE SMOOTH",
"72 589.333 OFFCURVE",
"102 454.333 OFFCURVE",
"162 339 CURVE SMOOTH",
"222 223.667 OFFCURVE",
"304.667 134.333 OFFCURVE",
"410 71 CURVE SMOOTH",
"515.333 7.667 OFFCURVE",
"636.667 -24 OFFCURVE",
"774 -24 CURVE SMOOTH"
);
}
);
userData = {
assembly = "PUSHB[ ]	/* 6 values pushed */\01211 1 5 3 1 76 \012MPPEM[ ]	/* MeasurePixelPerEm */\012PUSHB[ ]	/* 1 value pushed */\01250 \012LT[ ]	/* LessThan */\012IF[ ]	/* If */\012NPUSHB[ ]	/* 45 values pushed */\0120 4 5 7 5 4 7 128 0 7 6 5 7 6 126 0 2 0 3 5 2 3 105 0 5 5 1 97 0 1 1 109 77 0 6 6 0 97 8 1 0 0 110 0 78 \012ELSE[ ]	/* Else */\012NPUSHB[ ]	/* 43 values pushed */\0120 4 5 7 5 4 7 128 0 7 6 5 7 6 126 0 2 0 3 5 2 3 105 0 1 0 5 4 1 5 105 0 6 6 0 97 8 1 0 0 110 0 78 \012EIF[ ]	/* EndIf */\012NPUSHB[ ]	/* 23 values pushed */\0121 0 35 34 32 30 24 22 20 19 17 15 14 12 9 7 0 38 1 38 9 12 22 \012CALL[ ]	/* CallFunction */";
};
width = 1484;
}
);
leftKerningGroup = C;
note = uni0187;
rightKerningGroup = C;
unicode = 0187;
},
{
glyphname = Cstroke;
lastChange = "2024-07-06 18:59:39 +0000";
layers = (
{
layerId = "9A547413-C347-4957-B455-92488FFEB499";
paths = (
{
closed = 1;
nodes = (
"487 -190 OFFCURVE",
"529 -152 OFFCURVE",
"555 -74 CURVE SMOOTH",
"580 0 LINE",
"641.333 -16 OFFCURVE",
"706 -24 OFFCURVE",
"774 -24 CURVE SMOOTH",
"886 -24 OFFCURVE",
"987.333 -2.167 OFFCURVE",
"1078 41.5 CURVE SMOOTH",
"1168.667 85.167 OFFCURVE",
"1243.5 146.833 OFFCURVE",
"1302.5 226.5 CURVE SMOOTH",
"1333 267 OFFCURVE",
"1357 312 OFFCURVE",
"1377 360 CURVE SMOOTH",
"1411 450 OFFCURVE",
"1359 509 OFFCURVE",
"1269 509 CURVE SMOOTH",
"1187 509 OFFCURVE",
"1146 470 OFFCURVE",
"1106 395 CURVE SMOOTH",
"1083 354 OFFCURVE",
"1054 318 OFFCURVE",
"1017 290 CURVE SMOOTH",
"951 238.667 OFFCURVE",
"870.667 213 OFFCURVE",
"776 213 CURVE SMOOTH",
"734 213 OFFCURVE",
"694 218 OFFCURVE",
"656 228 CURVE",
"989 1220 LINE",
"1039 1188 OFFCURVE",
"1078 1146 OFFCURVE",
"1106 1094 CURVE SMOOTH",
"1146 1019 OFFCURVE",
"1187 979 OFFCURVE",
"1269 979 CURVE SMOOTH",
"1282 979 LINE SMOOTH",
"1365 979 OFFCURVE",
"1411 1043 OFFCURVE",
"1372 1138 CURVE SMOOTH",
"1352 1185 OFFCURVE",
"1328 1228 OFFCURVE",
"1298 1267 CURVE SMOOTH",
"1236.667 1348.333 OFFCURVE",
"1160 1410.333 OFFCURVE",
"1068 1453 CURVE",
"1106 1566 LINE SMOOTH",
"1129 1634 OFFCURVE",
"1108 1678 OFFCURVE",
"1053 1678 CURVE SMOOTH",
"992 1678 OFFCURVE",
"949 1641 OFFCURVE",
"923 1562 CURVE SMOOTH",
"904 1503 LINE",
"861.333 1510.333 OFFCURVE",
"818 1514 OFFCURVE",
"774 1514 CURVE SMOOTH",
"636.667 1514 OFFCURVE",
"515.333 1482.333 OFFCURVE",
"410 1419 CURVE SMOOTH",
"304.667 1355.667 OFFCURVE",
"222 1266.333 OFFCURVE",
"162 1151 CURVE SMOOTH",
"102 1035.667 OFFCURVE",
"72 900 OFFCURVE",
"72 744 CURVE SMOOTH",
"72 586 OFFCURVE",
"103.333 448.667 OFFCURVE",
"166 332 CURVE SMOOTH",
"228.667 215.333 OFFCURVE",
"313.667 126.333 OFFCURVE",
"421 65 CURVE",
"379 -63 LINE SMOOTH",
"353 -140 OFFCURVE",
"371 -190 OFFCURVE",
"426 -190 CURVE SMOOTH"
);
},
{
closed = 1;
nodes = (
"393 403.667 OFFCURVE",
"338 548.667 OFFCURVE",
"338 744 CURVE SMOOTH",
"338 851.333 OFFCURVE",
"355.5 945 OFFCURVE",
"390.5 1025 CURVE SMOOTH",
"425.5 1105 OFFCURVE",
"475.833 1167 OFFCURVE",
"541.5 1211 CURVE SMOOTH",
"607.167 1255 OFFCURVE",
"685.333 1277 OFFCURVE",
"776 1277 CURVE SMOOTH",
"793.333 1277 OFFCURVE",
"810.333 1276 OFFCURVE",
"827 1274 CURVE",
"503 309 LINE"
);
}
);
userData = {
assembly = "NPUSHB[ ]	/* 20 values pushed */\01213 10 2 7 0 19 1 2 7 20 1 3 4 32 1 2 5 3 4 76 \012MPPEM[ ]	/* MeasurePixelPerEm */\012PUSHB[ ]	/* 1 value pushed */\01250 \012LT[ ]	/* LessThan */\012IF[ ]	/* If */\012NPUSHB[ ]	/* 47 values pushed */\0120 1 0 1 133 0 2 7 4 7 2 4 128 0 4 3 7 4 3 126 8 1 6 5 6 134 0 7 7 0 97 0 0 0 109 77 0 3 3 5 97 0 5 5 110 5 78 \012ELSE[ ]	/* Else */\012NPUSHB[ ]	/* 45 values pushed */\0120 1 0 1 133 0 2 7 4 7 2 4 128 0 4 3 7 4 3 126 8 1 6 5 6 134 0 0 0 7 2 0 7 105 0 3 3 5 97 0 5 5 110 5 78 \012EIF[ ]	/* EndIf */\012NPUSHB[ ]	/* 17 values pushed */\0120 0 38 36 0 33 0 33 35 18 36 20 18 39 9 12 28 \012CALL[ ]	/* CallFunction */";
};
width = 1484;
}
);
leftKerningGroup = C;
note = uni023B;
rightKerningGroup = C;
unicode = 023B;
},
{
glyphname = D;
lastChange = "2024-07-06 18:59:39 +0000";
layers = (
{
layerId = "9A547413-C347-4957-B455-92488FFEB499";
paths = (
{
closed = 1;
nodes = (
"779 0 OFFCURVE",
"909.5 30.167 OFFCURVE",
"1018.5 90.5 CURVE SMOOTH",
"1127.5 150.833 OFFCURVE",
"1211 236.833 OFFCURVE",
"1269 348.5 CURVE SMOOTH",
"1327 460.167 OFFCURVE",
"1356 593 OFFCURVE",
"1356 747 CURVE SMOOTH",
"1356 899.667 OFFCURVE",
"1327 1031.5 OFFCURVE",
"1269 1142.5 CURVE SMOOTH",
"1211 1253.5 OFFCURVE",
"1128.333 1339.167 OFFCURVE",
"1021 1399.5 CURVE SMOOTH",
"913.667 1459.833 OFFCURVE",
"786 1490 OFFCURVE",
"638 1490 CURVE SMOOTH",
"266 1490 LINE SMOOTH",
"174 1490 OFFCURVE",
"124 1440 OFFCURVE",
"124 1348 CURVE SMOOTH",
"124 142 LINE SMOOTH",
"124 50 OFFCURVE",
"174 0 OFFCURVE",
"266 0 CURVE SMOOTH",
"627 0 LINE SMOOTH"
);
},
{
closed = 1;
nodes = (
"388 226 LINE",
"388 1264 LINE",
"621 1264 LINE SMOOTH",
"778.333 1264 OFFCURVE",
"895.667 1218.833 OFFCURVE",
"973 1128.5 CURVE SMOOTH",
"1050.333 1038.167 OFFCURVE",
"1089 911 OFFCURVE",
"1089 747 CURVE SMOOTH",
"1089 581.667 OFFCURVE",
"1050.167 453.5 OFFCURVE",
"972.5 362.5 CURVE SMOOTH",
"894.833 271.5 OFFCURVE",
"775 226 OFFCURVE",
"613 226 CURVE SMOOTH"
);
}
);
userData = {
assembly = "NPUSHB[ ]	/* 37 values pushed */\0120 3 3 1 95 0 1 1 103 77 0 2 2 0 95 4 1 0 0 104 0 78 1 0 19 17 13 11 4 2 0 10 1 10 5 12 22 \012CALL[ ]	/* CallFunction */";
};
width = 1428;
}
);
leftKerningGroup = B;
note = D;
rightKerningGroup = Oopen;
unicode = 0044;
},
{
glyphname = Dhook;
lastChange = "2024-07-06 18:59:39 +0000";
layers = (
{
layerId = "9A547413-C347-4957-B455-92488FFEB499";
paths = (
{
closed = 1;
nodes = (
"35 1180 LINE SMOOTH",
"35 1088 OFFCURVE",
"79 1038 OFFCURVE",
"160 1038 CURVE SMOOTH",
"241 1038 OFFCURVE",
"285 1087 OFFCURVE",
"285 1177 CURVE SMOOTH",
"285 1235.667 OFFCURVE",
"318 1265 OFFCURVE",
"384 1265 CURVE SMOOTH",
"476 1265 LINE",
"476 142 LINE SMOOTH",
"476 50 OFFCURVE",
"526 0 OFFCURVE",
"618 0 CURVE SMOOTH",
"979 0 LINE SMOOTH",
"1131 0 OFFCURVE",
"1261.5 30.167 OFFCURVE",
"1370.5 90.5 CURVE SMOOTH",
"1479.5 150.833 OFFCURVE",
"1563 236.833 OFFCURVE",
"1621 348.5 CURVE SMOOTH",
"1679 460.167 OFFCURVE",
"1708 593 OFFCURVE",
"1708 747 CURVE SMOOTH",
"1708 899.667 OFFCURVE",
"1679 1031.5 OFFCURVE",
"1621 1142.5 CURVE SMOOTH",
"1563 1253.5 OFFCURVE",
"1480.333 1339.167 OFFCURVE",
"1373 1399.5 CURVE SMOOTH",
"1265.667 1459.833 OFFCURVE",
"1138 1490 OFFCURVE",
"990 1490 CURVE SMOOTH",
"330 1490 LINE SMOOTH",
"232.667 1490 OFFCURVE",
"159.167 1464.5 OFFCURVE",
"109.5 1413.5 CURVE SMOOTH",
"59.833 1362.5 OFFCURVE",
"35 1291 OFFCURVE",
"35 1199 CURVE SMOOTH"
);
},
{
closed = 1;
nodes = (
"740 226 LINE",
"740 1264 LINE",
"973 1264 LINE SMOOTH",
"1130.333 1264 OFFCURVE",
"1247.667 1218.833 OFFCURVE",
"1325 1128.5 CURVE SMOOTH",
"1402.333 1038.167 OFFCURVE",
"1441 911 OFFCURVE",
"1441 747 CURVE SMOOTH",
"1441 581.667 OFFCURVE",
"1402.167 453.5 OFFCURVE",
"1324.5 362.5 CURVE SMOOTH",
"1246.833 271.5 OFFCURVE",
"1127 226 OFFCURVE",
"965 226 CURVE SMOOTH"
);
}
);
userData = {
assembly = "MPPEM[ ]	/* MeasurePixelPerEm */\012PUSHB[ ]	/* 1 value pushed */\01210 \012LT[ ]	/* LessThan */\012IF[ ]	/* If */\012NPUSHB[ ]	/* 30 values pushed */\0126 1 3 2 4 2 3 114 5 1 2 2 0 95 0 0 0 103 77 0 4 4 1 95 0 1 1 104 1 78 \012ELSE[ ]	/* Else */\012NPUSHB[ ]	/* 31 values pushed */\0126 1 3 2 4 2 3 4 128 5 1 2 2 0 95 0 0 0 103 77 0 4 4 1 95 0 1 1 104 1 78 \012EIF[ ]	/* EndIf */\012NPUSHB[ ]	/* 16 values pushed */\0120 0 28 26 22 20 0 19 0 19 33 38 51 7 12 25 \012CALL[ ]	/* CallFunction */";
};
width = 1780;
}
);
leftKerningGroup = B;
note = uni018A;
rightKerningGroup = Oopen;
unicode = 018A;
},
{
glyphname = Dtopbar;
lastChange = "2024-07-06 18:59:39 +0000";
layers = (
{
layerId = "9A547413-C347-4957-B455-92488FFEB499";
paths = (
{
closed = 1;
nodes = (
"1052 0 LINE SMOOTH",
"1144 0 OFFCURVE",
"1194 50 OFFCURVE",
"1194 142 CURVE SMOOTH",
"1194 1332 LINE SMOOTH",
"1194 1424 OFFCURVE",
"1144 1474 OFFCURVE",
"1052 1474 CURVE SMOOTH",
"385 1474 LINE SMOOTH",
"293 1474 OFFCURVE",
"243 1435 OFFCURVE",
"243 1363 CURVE SMOOTH",
"243 1291 OFFCURVE",
"293 1251 OFFCURVE",
"385 1251 CURVE SMOOTH",
"922 1251 LINE",
"922 913 LINE",
"638 913 LINE SMOOTH",
"524.667 913 OFFCURVE",
"427.667 894.167 OFFCURVE",
"347 856.5 CURVE SMOOTH",
"266.333 818.833 OFFCURVE",
"204.333 766.167 OFFCURVE",
"161 698.5 CURVE SMOOTH",
"117.667 630.833 OFFCURVE",
"96 552 OFFCURVE",
"96 462 CURVE SMOOTH",
"96 371.333 OFFCURVE",
"117.667 291.333 OFFCURVE",
"161 222 CURVE SMOOTH",
"204.333 152.667 OFFCURVE",
"266.333 98.333 OFFCURVE",
"347 59 CURVE SMOOTH",
"427.667 19.667 OFFCURVE",
"524.667 0 OFFCURVE",
"638 0 CURVE SMOOTH"
);
},
{
closed = 1;
nodes = (
"922 219 LINE",
"638 219 LINE SMOOTH",
"545.333 219 OFFCURVE",
"477.333 243.5 OFFCURVE",
"434 292.5 CURVE SMOOTH",
"390.667 341.5 OFFCURVE",
"369 398.667 OFFCURVE",
"369 464 CURVE SMOOTH",
"369 528 OFFCURVE",
"390.667 582.333 OFFCURVE",
"434 627 CURVE SMOOTH",
"477.333 671.667 OFFCURVE",
"545.333 694 OFFCURVE",
"638 694 CURVE SMOOTH",
"922 694 LINE"
);
}
);
userData = {
assembly = "NPUSHB[ ]	/* 44 values pushed */\0120 1 0 4 5 1 4 103 0 2 2 3 95 0 3 3 103 77 6 1 5 5 0 95 0 0 0 104 0 78 15 15 15 23 15 22 34 17 17 38 32 7 12 27 \012CALL[ ]	/* CallFunction */";
};
width = 1288;
}
);
note = uni018B;
unicode = 018B;
},
{
glyphname = E;
lastChange = "2024-07-06 18:59:39 +0000";
layers = (
{
layerId = "9A547413-C347-4957-B455-92488FFEB499";
paths = (
{
closed = 1;
nodes = (
"124 142 LINE SMOOTH",
"124 50 OFFCURVE",
"174 0 OFFCURVE",
"266 0 CURVE SMOOTH",
"1017 0 LINE SMOOTH",
"1109 0 OFFCURVE",
"1159 41 OFFCURVE",
"1159 115 CURVE SMOOTH",
"1159 189 OFFCURVE",
"1109 229 OFFCURVE",
"1017 229 CURVE SMOOTH",
"388 229 LINE",
"388 644 LINE",
"959 644 LINE SMOOTH",
"1051 644 OFFCURVE",
"1101 684 OFFCURVE",
"1101 757 CURVE SMOOTH",
"1101 830 OFFCURVE",
"1051 869 OFFCURVE",
"959 869 CURVE SMOOTH",
"388 869 LINE",
"388 1261 LINE",
"1017 1261 LINE SMOOTH",
"1109 1261 OFFCURVE",
"1159 1302 OFFCURVE",
"1159 1376 CURVE SMOOTH",
"1159 1450 OFFCURVE",
"1109 1490 OFFCURVE",
"1017 1490 CURVE SMOOTH",
"266 1490 LINE SMOOTH",
"174 1490 OFFCURVE",
"124 1440 OFFCURVE",
"124 1348 CURVE SMOOTH"
);
}
);
userData = {
assembly = "NPUSHB[ ]	/* 44 values pushed */\0120 2 0 3 4 2 3 103 0 1 1 0 95 0 0 0 103 77 0 4 4 5 95 6 1 5 5 104 5 78 0 0 0 11 0 11 17 17 17 17 17 7 12 27 \012CALL[ ]	/* CallFunction */";
};
width = 1226;
}
);
leftKerningGroup = B;
note = E;
rightKerningGroup = AE;
unicode = 0045;
},
{
glyphname = Eopen;
lastChange = "2024-07-06 18:59:39 +0000";
layers = (
{
layerId = "9A547413-C347-4957-B455-92488FFEB499";
paths = (
{
closed = 1;
nodes = (
"739.667 -24 OFFCURVE",
"839.167 -1.5 OFFCURVE",
"921.5 43.5 CURVE SMOOTH",
"1003.833 88.5 OFFCURVE",
"1066.667 149.333 OFFCURVE",
"1110 226 CURVE SMOOTH",
"1132 265 OFFCURVE",
"1149 307 OFFCURVE",
"1159 351 CURVE SMOOTH",
"1180 434 OFFCURVE",
"1128 484 OFFCURVE",
"1047 484 CURVE SMOOTH",
"962 484 OFFCURVE",
"928 439 OFFCURVE",
"897 355 CURVE SMOOTH",
"884 321 OFFCURVE",
"866 291 OFFCURVE",
"841 266.5 CURVE SMOOTH",
"789.667 214.833 OFFCURVE",
"718 189 OFFCURVE",
"626 189 CURVE SMOOTH",
"539.333 189 OFFCURVE",
"468.833 211 OFFCURVE",
"414.5 255 CURVE SMOOTH",
"360.167 299 OFFCURVE",
"333 357.667 OFFCURVE",
"333 431 CURVE SMOOTH",
"333 499.667 OFFCURVE",
"362.167 555 OFFCURVE",
"420.5 597 CURVE SMOOTH",
"478.833 639 OFFCURVE",
"555.667 660 OFFCURVE",
"651 660 CURVE SMOOTH",
"734 660 OFFCURVE",
"779 696 OFFCURVE",
"779 762 CURVE SMOOTH",
"779 828 OFFCURVE",
"734 863 OFFCURVE",
"651 863 CURVE SMOOTH",
"565 863 OFFCURVE",
"496.333 882 OFFCURVE",
"445 920 CURVE SMOOTH",
"393.667 958 OFFCURVE",
"368 1009 OFFCURVE",
"368 1073 CURVE SMOOTH",
"368 1143.667 OFFCURVE",
"392 1200 OFFCURVE",
"440 1242 CURVE SMOOTH",
"488 1284 OFFCURVE",
"551 1305 OFFCURVE",
"629 1305 CURVE SMOOTH",
"709.667 1305 OFFCURVE",
"774 1281.833 OFFCURVE",
"822 1235.5 CURVE SMOOTH",
"847 1211 OFFCURVE",
"866 1183 OFFCURVE",
"878 1149 CURVE SMOOTH",
"901 1082 OFFCURVE",
"936 1047 OFFCURVE",
"1020 1047 CURVE SMOOTH",
"1099 1047 OFFCURVE",
"1152 1104 OFFCURVE",
"1122 1198 CURVE SMOOTH",
"1112 1230 OFFCURVE",
"1098 1260 OFFCURVE",
"1080.5 1288.5 CURVE SMOOTH",
"1037.5 1358.833 OFFCURVE",
"977.333 1414 OFFCURVE",
"900 1454 CURVE SMOOTH",
"822.667 1494 OFFCURVE",
"732 1514 OFFCURVE",
"628 1514 CURVE SMOOTH",
"530 1514 OFFCURVE",
"442.667 1496.167 OFFCURVE",
"366 1460.5 CURVE SMOOTH",
"289.333 1424.833 OFFCURVE",
"228.833 1375.667 OFFCURVE",
"184.5 1313 CURVE SMOOTH",
"140.167 1250.333 OFFCURVE",
"118 1178.333 OFFCURVE",
"118 1097 CURVE SMOOTH",
"118 1016.333 OFFCURVE",
"143.5 947.333 OFFCURVE",
"194.5 890 CURVE SMOOTH",
"245.5 832.667 OFFCURVE",
"313 794 OFFCURVE",
"397 774 CURVE",
"397 771 LINE",
"295.667 757 OFFCURVE",
"216.167 717.167 OFFCURVE",
"158.5 651.5 CURVE SMOOTH",
"100.833 585.833 OFFCURVE",
"72 508.667 OFFCURVE",
"72 420 CURVE SMOOTH",
"72 334 OFFCURVE",
"95.667 257.5 OFFCURVE",
"143 190.5 CURVE SMOOTH",
"190.333 123.5 OFFCURVE",
"255.333 71 OFFCURVE",
"338 33 CURVE SMOOTH",
"420.667 -5 OFFCURVE",
"515.667 -24 OFFCURVE",
"623 -24 CURVE SMOOTH"
);
}
);
userData = {
assembly = "PUSHB[ ]	/* 6 values pushed */\0127 1 5 4 1 76 \012MPPEM[ ]	/* MeasurePixelPerEm */\012PUSHB[ ]	/* 1 value pushed */\01250 \012LT[ ]	/* LessThan */\012IF[ ]	/* If */\012NPUSHB[ ]	/* 46 values pushed */\0120 2 3 4 3 2 4 128 0 7 5 6 5 7 6 128 0 4 0 5 7 4 5 105 0 3 3 1 97 0 1 1 109 77 0 6 6 0 97 8 1 0 0 110 0 78 \012ELSE[ ]	/* Else */\012NPUSHB[ ]	/* 44 values pushed */\0120 2 3 4 3 2 4 128 0 7 5 6 5 7 6 128 0 1 0 3 2 1 3 105 0 4 0 5 7 4 5 105 0 6 6 0 97 8 1 0 0 110 0 78 \012EIF[ ]	/* EndIf */\012NPUSHB[ ]	/* 23 values pushed */\0121 0 42 41 39 37 33 31 30 28 24 22 20 19 16 14 0 45 1 45 9 12 22 \012CALL[ ]	/* CallFunction */";
};
width = 1255;
}
);
note = Epsilon1;
unicode = 0190;
},
{
glyphname = Ereversed;
lastChange = "2024-07-06 18:59:39 +0000";
layers = (
{
layerId = "9A547413-C347-4957-B455-92488FFEB499";
paths = (
{
closed = 1;
nodes = (
"1102 1348 LINE SMOOTH",
"1102 1440 OFFCURVE",
"1052 1490 OFFCURVE",
"960 1490 CURVE SMOOTH",
"208 1490 LINE SMOOTH",
"116 1490 OFFCURVE",
"66 1450 OFFCURVE",
"66 1376 CURVE SMOOTH",
"66 1302 OFFCURVE",
"116 1261 OFFCURVE",
"208 1261 CURVE SMOOTH",
"837 1261 LINE",
"837 846 LINE",
"266 846 LINE SMOOTH",
"174 846 OFFCURVE",
"124 806 OFFCURVE",
"124 734 CURVE SMOOTH",
"124 661 OFFCURVE",
"174 621 OFFCURVE",
"266 621 CURVE SMOOTH",
"837 621 LINE",
"837 229 LINE",
"208 229 LINE SMOOTH",
"116 229 OFFCURVE",
"66 189 OFFCURVE",
"66 115 CURVE SMOOTH",
"66 41 OFFCURVE",
"116 0 OFFCURVE",
"208 0 CURVE SMOOTH",
"960 0 LINE SMOOTH",
"1052 0 OFFCURVE",
"1102 50 OFFCURVE",
"1102 142 CURVE SMOOTH"
);
}
);
userData = {
assembly = "NPUSHB[ ]	/* 44 values pushed */\0120 3 0 2 1 3 2 103 0 4 4 5 95 6 1 5 5 103 77 0 1 1 0 95 0 0 0 104 0 78 0 0 0 11 0 11 17 17 17 17 17 7 12 27 \012CALL[ ]	/* CallFunction */";
};
width = 1226;
}
);
note = Eturn;
rightKerningGroup = Ereversed;
unicode = 018E;
},
{
glyphname = Estroke;
lastChange = "2024-07-06 18:59:39 +0000";
layers = (
{
layerId = "9A547413-C347-4957-B455-92488FFEB499";
paths = (
{
closed = 1;
nodes = (
"435 -190 OFFCURVE",
"473 -151 OFFCURVE",
"496 -70 CURVE SMOOTH",
"516 0 LINE",
"1017 0 LINE SMOOTH",
"1109 0 OFFCURVE",
"1159 41 OFFCURVE",
"1159 115 CURVE SMOOTH",
"1159 189 OFFCURVE",
"1109 229 OFFCURVE",
"1017 229 CURVE SMOOTH",
"582 229 LINE",
"702 644 LINE",
"959 644 LINE SMOOTH",
"1051 644 OFFCURVE",
"1101 684 OFFCURVE",
"1101 757 CURVE SMOOTH",
"1101 830 OFFCURVE",
"1051 869 OFFCURVE",
"959 869 CURVE SMOOTH",
"767 869 LINE",
"880 1261 LINE",
"1020 1261 LINE SMOOTH",
"1110 1261 OFFCURVE",
"1159 1302 OFFCURVE",
"1159 1376 CURVE SMOOTH",
"1159 1450 OFFCURVE",
"1109 1490 OFFCURVE",
"1017 1490 CURVE SMOOTH",
"946 1490 LINE",
"973 1584 LINE SMOOTH",
"990 1642 OFFCURVE",
"968 1678 OFFCURVE",
"918 1678 CURVE SMOOTH",
"863 1678 OFFCURVE",
"824 1639 OFFCURVE",
"801 1559 CURVE SMOOTH",
"781 1490 LINE",
"266 1490 LINE SMOOTH",
"174 1490 OFFCURVE",
"124 1440 OFFCURVE",
"124 1348 CURVE SMOOTH",
"124 142 LINE SMOOTH",
"124 50 OFFCURVE",
"174 0 OFFCURVE",
"266 0 CURVE SMOOTH",
"351 0 LINE",
"324 -95 LINE SMOOTH",
"307 -153 OFFCURVE",
"328 -190 OFFCURVE",
"379 -190 CURVE SMOOTH"
);
},
{
closed = 1;
nodes = (
"388 869 LINE",
"388 1261 LINE",
"715 1261 LINE",
"602 869 LINE"
);
},
{
closed = 1;
nodes = (
"388 229 LINE",
"388 644 LINE",
"537 644 LINE",
"417 229 LINE"
);
}
);
userData = {
assembly = "MPPEM[ ]	/* MeasurePixelPerEm */\012PUSHB[ ]	/* 1 value pushed */\01214 \012LT[ ]	/* LessThan */\012IF[ ]	/* If */\012NPUSHB[ ]	/* 49 values pushed */\0120 2 1 1 2 112 15 11 2 5 12 1 6 7 5 6 103 14 1 9 7 9 83 10 1 4 4 1 95 3 1 1 1 103 77 16 13 2 7 7 0 95 8 1 0 0 104 0 78 \012ELSE[ ]	/* Else */\012NPUSHB[ ]	/* 48 values pushed */\0120 2 1 2 133 15 11 2 5 12 1 6 7 5 6 103 14 1 9 7 9 83 10 1 4 4 1 95 3 1 1 1 103 77 16 13 2 7 7 0 95 8 1 0 0 104 0 78 \012EIF[ ]	/* EndIf */\012NPUSHB[ ]	/* 34 values pushed */\01224 24 20 20 0 0 24 27 24 27 26 25 20 23 20 23 22 21 0 19 0 19 17 17 17 17 17 17 17 17 17 17 12 31 \012CALL[ ]	/* CallFunction */";
};
width = 1226;
}
);
leftKerningGroup = B;
note = uni0246;
rightKerningGroup = AE;
unicode = 0246;
},
{
glyphname = Ezh;
lastChange = "2024-07-06 18:59:39 +0000";
layers = (
{
layerId = "9A547413-C347-4957-B455-92488FFEB499";
paths = (
{
closed = 1;
nodes = (
"86 -101 OFFCURVE",
"107 -145 OFFCURVE",
"134.5 -185.5 CURVE SMOOTH",
"188.833 -265.167 OFFCURVE",
"261.167 -327.667 OFFCURVE",
"351.5 -373 CURVE SMOOTH",
"441.833 -418.333 OFFCURVE",
"543.333 -441 OFFCURVE",
"656 -441 CURVE SMOOTH",
"778 -441 OFFCURVE",
"885.333 -413.667 OFFCURVE",
"978 -359 CURVE SMOOTH",
"1070.667 -304.333 OFFCURVE",
"1143.167 -229.167 OFFCURVE",
"1195.5 -133.5 CURVE SMOOTH",
"1247.833 -37.833 OFFCURVE",
"1274 71.667 OFFCURVE",
"1274 195 CURVE SMOOTH",
"1274 307.667 OFFCURVE",
"1251.333 407.667 OFFCURVE",
"1206 495 CURVE SMOOTH",
"1160.667 582.333 OFFCURVE",
"1097.5 652.167 OFFCURVE",
"1016.5 704.5 CURVE SMOOTH",
"935.5 756.833 OFFCURVE",
"841.667 786.333 OFFCURVE",
"735 793 CURVE",
"735 807 LINE",
"1163 1228 LINE SMOOTH",
"1215 1280 OFFCURVE",
"1236 1328 OFFCURVE",
"1236 1395 CURVE SMOOTH",
"1236 1456 OFFCURVE",
"1186 1490 OFFCURVE",
"1094 1490 CURVE SMOOTH",
"272 1490 LINE SMOOTH",
"180 1490 OFFCURVE",
"130 1450 OFFCURVE",
"130 1378 CURVE SMOOTH",
"130 1306 OFFCURVE",
"180 1266 OFFCURVE",
"272 1266 CURVE SMOOTH",
"901 1266 LINE",
"901 1254 LINE",
"525 885 LINE SMOOTH",
"473 833 OFFCURVE",
"452 784 OFFCURVE",
"452 715 CURVE SMOOTH",
"452 651 OFFCURVE",
"502 616 OFFCURVE",
"594 616 CURVE SMOOTH",
"594 616 LINE SMOOTH",
"674.667 616 OFFCURVE",
"746 598.667 OFFCURVE",
"808 564 CURVE SMOOTH",
"870 529.333 OFFCURVE",
"918.667 480.333 OFFCURVE",
"954 417 CURVE SMOOTH",
"989.333 353.667 OFFCURVE",
"1007 278.333 OFFCURVE",
"1007 191 CURVE SMOOTH",
"1007 113.667 OFFCURVE",
"993 44.167 OFFCURVE",
"965 -17.5 CURVE SMOOTH",
"937 -79.167 OFFCURVE",
"896.667 -127.833 OFFCURVE",
"844 -163.5 CURVE SMOOTH",
"791.333 -199.167 OFFCURVE",
"728.667 -217 OFFCURVE",
"656 -217 CURVE SMOOTH",
"594.667 -217 OFFCURVE",
"538.5 -204 OFFCURVE",
"487.5 -178 CURVE SMOOTH",
"436.5 -152 OFFCURVE",
"395.167 -116 OFFCURVE",
"363.5 -70 CURVE SMOOTH",
"347 -47 OFFCURVE",
"335 -21 OFFCURVE",
"326 6 CURVE SMOOTH",
"308 62 OFFCURVE",
"268 90 OFFCURVE",
"184 90 CURVE SMOOTH",
"178 90 LINE SMOOTH",
"95 90 OFFCURVE",
"43 35 OFFCURVE",
"71 -54 CURVE SMOOTH"
);
}
);
userData = {
assembly = "NPUSHB[ ]	/* 11 values pushed */\01221 1 3 4 22 15 2 2 3 2 76 \012MPPEM[ ]	/* MeasurePixelPerEm */\012PUSHB[ ]	/* 1 value pushed */\01245 \012LT[ ]	/* LessThan */\012IF[ ]	/* If */\012NPUSHB[ ]	/* 36 values pushed */\0120 2 3 0 3 2 0 128 0 0 1 3 0 1 126 0 3 3 4 95 0 4 4 103 77 0 1 1 5 97 0 5 5 108 5 78 \012ELSE[ ]	/* Else */\012NPUSHB[ ]	/* 33 values pushed */\0120 2 3 0 3 2 0 128 0 0 1 3 0 1 126 0 1 0 5 1 5 101 0 3 3 4 95 0 4 4 103 3 78 \012EIF[ ]	/* EndIf */\012NPUSHB[ ]	/* 9 values pushed */\01242 17 34 38 35 16 6 12 28 \012CALL[ ]	/* CallFunction */";
};
width = 1338;
}
);
note = uni01B7;
rightKerningGroup = B;
unicode = 01B7;
},
{
glyphname = Ezhreversed;
lastChange = "2024-07-06 18:59:39 +0000";
layers = (
{
layerId = "9A547413-C347-4957-B455-92488FFEB499";
paths = (
{
closed = 1;
nodes = (
"1153 90 LINE SMOOTH",
"1069 90 OFFCURVE",
"1034 47 OFFCURVE",
"997 -31 CURVE SMOOTH",
"990 -45 OFFCURVE",
"983 -58 OFFCURVE",
"974.5 -70 CURVE SMOOTH",
"942.833 -116 OFFCURVE",
"901.5 -152 OFFCURVE",
"850.5 -178 CURVE SMOOTH",
"799.5 -204 OFFCURVE",
"743 -217 OFFCURVE",
"681 -217 CURVE SMOOTH",
"609 -217 OFFCURVE",
"546.833 -199.167 OFFCURVE",
"494.5 -163.5 CURVE SMOOTH",
"442.167 -127.833 OFFCURVE",
"401.833 -79.167 OFFCURVE",
"373.5 -17.5 CURVE SMOOTH",
"345.167 44.167 OFFCURVE",
"331 113.667 OFFCURVE",
"331 191 CURVE SMOOTH",
"331 278.333 OFFCURVE",
"348.667 353.833 OFFCURVE",
"384 417.5 CURVE SMOOTH",
"419.333 481.167 OFFCURVE",
"468.167 530.167 OFFCURVE",
"530.5 564.5 CURVE SMOOTH",
"592.833 598.833 OFFCURVE",
"664.333 616 OFFCURVE",
"745 616 CURVE SMOOTH",
"836 616 OFFCURVE",
"885 651 OFFCURVE",
"885 715 CURVE SMOOTH",
"885 785 OFFCURVE",
"864 833 OFFCURVE",
"812 885 CURVE SMOOTH",
"437 1254 LINE",
"437 1266 LINE",
"1067 1266 LINE SMOOTH",
"1159 1266 OFFCURVE",
"1209 1306 OFFCURVE",
"1209 1378 CURVE SMOOTH",
"1209 1450 OFFCURVE",
"1159 1490 OFFCURVE",
"1067 1490 CURVE SMOOTH",
"244 1490 LINE SMOOTH",
"152 1490 OFFCURVE",
"102 1456 OFFCURVE",
"102 1395 CURVE SMOOTH",
"102 1328 OFFCURVE",
"123 1280 OFFCURVE",
"175 1228 CURVE SMOOTH",
"603 807 LINE",
"603 793 LINE",
"497 786.333 OFFCURVE",
"403.333 756.833 OFFCURVE",
"322 704.5 CURVE SMOOTH",
"240.667 652.167 OFFCURVE",
"177.333 582.333 OFFCURVE",
"132 495 CURVE SMOOTH",
"86.667 407.667 OFFCURVE",
"64 307.667 OFFCURVE",
"64 195 CURVE SMOOTH",
"64 71.667 OFFCURVE",
"90 -37.833 OFFCURVE",
"142 -133.5 CURVE SMOOTH",
"194 -229.167 OFFCURVE",
"266.5 -304.333 OFFCURVE",
"359.5 -359 CURVE SMOOTH",
"452.5 -413.667 OFFCURVE",
"560 -441 OFFCURVE",
"682 -441 CURVE SMOOTH",
"794.667 -441 OFFCURVE",
"896.167 -418.333 OFFCURVE",
"986.5 -373 CURVE SMOOTH",
"1076.833 -327.667 OFFCURVE",
"1149.167 -265.167 OFFCURVE",
"1203.5 -185.5 CURVE SMOOTH",
"1231 -145 OFFCURVE",
"1252 -101 OFFCURVE",
"1267 -54 CURVE SMOOTH",
"1295 35 OFFCURVE",
"1243 90 OFFCURVE",
"1160 90 CURVE SMOOTH"
);
}
);
userData = {
assembly = "NPUSHB[ ]	/* 10 values pushed */\01214 1 3 2 20 1 1 3 2 76 \012MPPEM[ ]	/* MeasurePixelPerEm */\012PUSHB[ ]	/* 1 value pushed */\01245 \012LT[ ]	/* LessThan */\012IF[ ]	/* If */\012NPUSHB[ ]	/* 44 values pushed */\0120 1 3 4 3 1 4 128 0 4 6 3 4 6 126 7 1 6 5 3 6 5 126 0 3 3 2 95 0 2 2 103 77 0 5 5 0 98 0 0 0 108 0 78 \012ELSE[ ]	/* Else */\012NPUSHB[ ]	/* 41 values pushed */\0120 1 3 4 3 1 4 128 0 4 6 3 4 6 126 7 1 6 5 3 6 5 126 0 5 0 0 5 0 102 0 3 3 2 95 0 2 2 103 3 78 \012EIF[ ]	/* EndIf */\012NPUSHB[ ]	/* 15 values pushed */\0120 0 0 34 0 34 38 35 17 19 22 35 8 12 28 \012CALL[ ]	/* CallFunction */";
};
width = 1338;
}
);
note = uni01B8;
unicode = 01B8;
},
{
glyphname = F;
lastChange = "2024-07-06 18:59:39 +0000";
layers = (
{
layerId = "9A547413-C347-4957-B455-92488FFEB499";
paths = (
{
closed = 1;
nodes = (
"124 142 LINE SMOOTH",
"124 50 OFFCURVE",
"171 0 OFFCURVE",
"256 0 CURVE SMOOTH",
"341 0 OFFCURVE",
"388 50 OFFCURVE",
"388 142 CURVE SMOOTH",
"388 630 LINE",
"931 630 LINE SMOOTH",
"1023 630 OFFCURVE",
"1073 670 OFFCURVE",
"1073 742 CURVE SMOOTH",
"1073 814 OFFCURVE",
"1023 854 OFFCURVE",
"931 854 CURVE SMOOTH",
"388 854 LINE",
"388 1261 LINE",
"984 1261 LINE SMOOTH",
"1076 1261 OFFCURVE",
"1126 1302 OFFCURVE",
"1126 1376 CURVE SMOOTH",
"1126 1450 OFFCURVE",
"1076 1490 OFFCURVE",
"984 1490 CURVE SMOOTH",
"266 1490 LINE SMOOTH",
"174 1490 OFFCURVE",
"124 1440 OFFCURVE",
"124 1348 CURVE SMOOTH"
);
}
);
userData = {
assembly = "NPUSHB[ ]	/* 38 values pushed */\0120 2 0 3 4 2 3 103 0 1 1 0 95 0 0 0 103 77 5 1 4 4 104 4 78 0 0 0 9 0 9 17 17 17 17 6 12 26 \012CALL[ ]	/* CallFunction */";
};
width = 1172;
}
);
leftKerningGroup = B;
note = F;
rightKerningGroup = F;
unicode = 0046;
},
{
glyphname = Fhook;
lastChange = "2024-07-06 18:59:39 +0000";
layers = (
{
layerId = "9A547413-C347-4957-B455-92488FFEB499";
paths = (
{
closed = 1;
nodes = (
"-93 -381 OFFCURVE",
"-43 -418 OFFCURVE",
"49 -418 CURVE SMOOTH",
"56 -418 LINE SMOOTH",
"277.333 -418 OFFCURVE",
"388 -319.333 OFFCURVE",
"388 -122 CURVE SMOOTH",
"388 630 LINE",
"931 630 LINE SMOOTH",
"1023 630 OFFCURVE",
"1073 670 OFFCURVE",
"1073 742 CURVE SMOOTH",
"1073 814 OFFCURVE",
"1023 854 OFFCURVE",
"931 854 CURVE SMOOTH",
"388 854 LINE",
"388 1261 LINE",
"984 1261 LINE SMOOTH",
"1076 1261 OFFCURVE",
"1126 1302 OFFCURVE",
"1126 1376 CURVE SMOOTH",
"1126 1450 OFFCURVE",
"1076 1490 OFFCURVE",
"984 1490 CURVE SMOOTH",
"266 1490 LINE SMOOTH",
"174 1490 OFFCURVE",
"124 1440 OFFCURVE",
"124 1348 CURVE SMOOTH",
"124 -109 LINE SMOOTH",
"124 -141.667 OFFCURVE",
"116 -165.5 OFFCURVE",
"100 -180.5 CURVE SMOOTH",
"84 -195.5 OFFCURVE",
"57.333 -203 OFFCURVE",
"20 -203 CURVE SMOOTH",
"-53 -203 OFFCURVE",
"-93 -242 OFFCURVE",
"-93 -311 CURVE SMOOTH"
);
}
);
userData = {
assembly = "NPUSHB[ ]	/* 44 values pushed */\0120 3 0 4 0 3 4 103 0 2 2 1 95 0 1 1 103 77 0 0 0 5 95 6 1 5 5 108 5 78 0 0 0 16 0 15 17 17 17 19 33 7 12 27 \012CALL[ ]	/* CallFunction */";
};
width = 1172;
}
);
leftKerningGroup = Fhook;
note = uni0191;
rightKerningGroup = F;
unicode = 0191;
},
{
glyphname = G;
lastChange = "2024-07-06 18:59:39 +0000";
layers = (
{
layerId = "9A547413-C347-4957-B455-92488FFEB499";
paths = (
{
closed = 1;
nodes = (
"896.333 -24 OFFCURVE",
"1008 2.5 OFFCURVE",
"1106 55.5 CURVE SMOOTH",
"1204 108.5 OFFCURVE",
"1281.167 181.667 OFFCURVE",
"1337.5 275 CURVE SMOOTH",
"1393.833 368.333 OFFCURVE",
"1422 475.333 OFFCURVE",
"1422 596 CURVE SMOOTH",
"1422 634 LINE SMOOTH",
"1422 726 OFFCURVE",
"1372 776 OFFCURVE",
"1280 776 CURVE SMOOTH",
"957 776 LINE SMOOTH",
"865 776 OFFCURVE",
"815 739 OFFCURVE",
"815 672 CURVE SMOOTH",
"815 604 OFFCURVE",
"865 567 OFFCURVE",
"957 567 CURVE SMOOTH",
"1161 567 LINE",
"1160.333 497 OFFCURVE",
"1143.333 435.333 OFFCURVE",
"1110 382 CURVE SMOOTH",
"1076.667 328.667 OFFCURVE",
"1031.167 287.167 OFFCURVE",
"973.5 257.5 CURVE SMOOTH",
"915.833 227.833 OFFCURVE",
"850.333 213 OFFCURVE",
"777 213 CURVE SMOOTH",
"687.667 213 OFFCURVE",
"610.167 234.833 OFFCURVE",
"544.5 278.5 CURVE SMOOTH",
"478.833 322.167 OFFCURVE",
"428 383.833 OFFCURVE",
"392 463.5 CURVE SMOOTH",
"356 543.167 OFFCURVE",
"338 636.667 OFFCURVE",
"338 744 CURVE SMOOTH",
"338 852 OFFCURVE",
"355.833 945.833 OFFCURVE",
"391.5 1025.5 CURVE SMOOTH",
"427.167 1105.167 OFFCURVE",
"477.667 1167 OFFCURVE",
"543 1211 CURVE SMOOTH",
"608.333 1255 OFFCURVE",
"685.667 1277 OFFCURVE",
"775 1277 CURVE SMOOTH",
"870.333 1277 OFFCURVE",
"950.833 1251.167 OFFCURVE",
"1016.5 1199.5 CURVE SMOOTH",
"1050 1173 OFFCURVE",
"1078 1142 OFFCURVE",
"1099 1107 CURVE SMOOTH",
"1142 1035 OFFCURVE",
"1181 996 OFFCURVE",
"1263 996 CURVE SMOOTH",
"1278 996 LINE SMOOTH",
"1361 996 OFFCURVE",
"1409 1060 OFFCURVE",
"1367 1155 CURVE SMOOTH",
"1349 1195 OFFCURVE",
"1327 1232 OFFCURVE",
"1300.5 1266.5 CURVE SMOOTH",
"1240.833 1344.167 OFFCURVE",
"1165 1404.833 OFFCURVE",
"1073 1448.5 CURVE SMOOTH",
"981 1492.167 OFFCURVE",
"879.333 1514 OFFCURVE",
"768 1514 CURVE SMOOTH",
"634.667 1514 OFFCURVE",
"515.5 1482.333 OFFCURVE",
"410.5 1419 CURVE SMOOTH",
"305.5 1355.667 OFFCURVE",
"222.833 1266.333 OFFCURVE",
"162.5 1151 CURVE SMOOTH",
"102.167 1035.667 OFFCURVE",
"72 900 OFFCURVE",
"72 744 CURVE SMOOTH",
"72 592 OFFCURVE",
"101.5 458.333 OFFCURVE",
"160.5 343 CURVE SMOOTH",
"219.5 227.667 OFFCURVE",
"301.667 137.667 OFFCURVE",
"407 73 CURVE SMOOTH",
"512.333 8.333 OFFCURVE",
"633.667 -24 OFFCURVE",
"771 -24 CURVE SMOOTH"
);
}
);
userData = {
assembly = "MPPEM[ ]	/* MeasurePixelPerEm */\012PUSHB[ ]	/* 1 value pushed */\01250 \012LT[ ]	/* LessThan */\012IF[ ]	/* If */\012NPUSHB[ ]	/* 38 values pushed */\0120 2 3 6 3 2 6 128 0 6 0 5 4 6 5 103 0 3 3 1 97 0 1 1 109 77 0 4 4 0 97 7 1 0 0 110 0 78 \012ELSE[ ]	/* Else */\012NPUSHB[ ]	/* 36 values pushed */\0120 2 3 6 3 2 6 128 0 1 0 3 2 1 3 105 0 6 0 5 4 6 5 103 0 4 4 0 97 7 1 0 0 110 0 78 \012EIF[ ]	/* EndIf */\012NPUSHB[ ]	/* 21 values pushed */\0121 0 31 30 29 28 25 23 17 15 13 12 9 7 0 35 1 35 8 12 22 \012CALL[ ]	/* CallFunction */";
};
width = 1503;
}
);
leftKerningGroup = C;
note = G;
rightKerningGroup = G;
unicode = 0047;
},
{
glyphname = Ghook;
lastChange = "2024-07-06 18:59:39 +0000";
layers = (
{
layerId = "9A547413-C347-4957-B455-92488FFEB499";
paths = (
{
closed = 1;
nodes = (
"896.333 -24 OFFCURVE",
"1008 2.5 OFFCURVE",
"1106 55.5 CURVE SMOOTH",
"1204 108.5 OFFCURVE",
"1281.167 181.667 OFFCURVE",
"1337.5 275 CURVE SMOOTH",
"1393.833 368.333 OFFCURVE",
"1422 475.333 OFFCURVE",
"1422 596 CURVE SMOOTH",
"1422 634 LINE SMOOTH",
"1422 726 OFFCURVE",
"1372 776 OFFCURVE",
"1280 776 CURVE SMOOTH",
"957 776 LINE SMOOTH",
"865 776 OFFCURVE",
"815 739 OFFCURVE",
"815 672 CURVE SMOOTH",
"815 604 OFFCURVE",
"865 567 OFFCURVE",
"957 567 CURVE SMOOTH",
"1161 567 LINE",
"1160.333 497 OFFCURVE",
"1143.333 435.333 OFFCURVE",
"1110 382 CURVE SMOOTH",
"1076.667 328.667 OFFCURVE",
"1031.167 287.167 OFFCURVE",
"973.5 257.5 CURVE SMOOTH",
"915.833 227.833 OFFCURVE",
"850.333 213 OFFCURVE",
"777 213 CURVE SMOOTH",
"687.667 213 OFFCURVE",
"610.167 234.833 OFFCURVE",
"544.5 278.5 CURVE SMOOTH",
"478.833 322.167 OFFCURVE",
"428 383.833 OFFCURVE",
"392 463.5 CURVE SMOOTH",
"356 543.167 OFFCURVE",
"338 636.667 OFFCURVE",
"338 744 CURVE SMOOTH",
"338 852 OFFCURVE",
"355.833 945.833 OFFCURVE",
"391.5 1025.5 CURVE SMOOTH",
"427.167 1105.167 OFFCURVE",
"477.667 1167 OFFCURVE",
"543 1211 CURVE SMOOTH",
"608.333 1255 OFFCURVE",
"685.667 1277 OFFCURVE",
"775 1277 CURVE SMOOTH",
"870.333 1277 OFFCURVE",
"950.833 1251.167 OFFCURVE",
"1016.5 1199.5 CURVE SMOOTH",
"1050 1173 OFFCURVE",
"1078 1142 OFFCURVE",
"1099 1107 CURVE SMOOTH",
"1142 1035 OFFCURVE",
"1181 996 OFFCURVE",
"1263 996 CURVE SMOOTH",
"1278 996 LINE SMOOTH",
"1365 996 OFFCURVE",
"1412 1046 OFFCURVE",
"1412 1138 CURVE SMOOTH",
"1412 1373 LINE SMOOTH",
"1412 1436.333 OFFCURVE",
"1447.333 1468 OFFCURVE",
"1518 1468 CURVE SMOOTH",
"1591 1468 OFFCURVE",
"1631 1505 OFFCURVE",
"1631 1572 CURVE SMOOTH",
"1631 1639 OFFCURVE",
"1581 1676 OFFCURVE",
"1490 1676 CURVE SMOOTH",
"1278 1676 OFFCURVE",
"1169 1583 OFFCURVE",
"1163 1397 CURVE",
"1108.333 1434.333 OFFCURVE",
"1047.5 1463.167 OFFCURVE",
"980.5 1483.5 CURVE SMOOTH",
"913.5 1503.833 OFFCURVE",
"842.667 1514 OFFCURVE",
"768 1514 CURVE SMOOTH",
"634.667 1514 OFFCURVE",
"515.5 1482.333 OFFCURVE",
"410.5 1419 CURVE SMOOTH",
"305.5 1355.667 OFFCURVE",
"222.833 1266.333 OFFCURVE",
"162.5 1151 CURVE SMOOTH",
"102.167 1035.667 OFFCURVE",
"72 900 OFFCURVE",
"72 744 CURVE SMOOTH",
"72 592 OFFCURVE",
"101.5 458.333 OFFCURVE",
"160.5 343 CURVE SMOOTH",
"219.5 227.667 OFFCURVE",
"301.667 137.667 OFFCURVE",
"407 73 CURVE SMOOTH",
"512.333 8.333 OFFCURVE",
"633.667 -24 OFFCURVE",
"771 -24 CURVE SMOOTH"
);
}
);
userData = {
assembly = "PUSHB[ ]	/* 6 values pushed */\01211 1 5 3 1 76 \012MPPEM[ ]	/* MeasurePixelPerEm */\012PUSHB[ ]	/* 1 value pushed */\01250 \012LT[ ]	/* LessThan */\012IF[ ]	/* If */\012NPUSHB[ ]	/* 46 values pushed */\0120 4 5 8 5 4 8 128 0 2 0 3 5 2 3 105 0 8 0 7 6 8 7 103 0 5 5 1 97 0 1 1 109 77 0 6 6 0 97 9 1 0 0 110 0 78 \012ELSE[ ]	/* Else */\012NPUSHB[ ]	/* 44 values pushed */\0120 4 5 8 5 4 8 128 0 2 0 3 5 2 3 105 0 1 0 5 4 1 5 105 0 8 0 7 6 8 7 103 0 6 6 0 97 9 1 0 0 110 0 78 \012EIF[ ]	/* EndIf */\012NPUSHB[ ]	/* 25 values pushed */\0121 0 38 37 36 35 32 30 24 22 20 19 17 15 14 12 9 7 0 42 1 42 10 12 22 \012CALL[ ]	/* CallFunction */";
};
width = 1503;
}
);
leftKerningGroup = C;
note = uni0193;
rightKerningGroup = G;
unicode = 0193;
},
{
glyphname = Glottalstop;
lastChange = "2024-07-06 18:59:39 +0000";
layers = (
{
layerId = "9A547413-C347-4957-B455-92488FFEB499";
paths = (
{
closed = 1;
nodes = (
"443 489 OFFCURVE",
"399 439 OFFCURVE",
"399 347 CURVE SMOOTH",
"399 142 LINE SMOOTH",
"399 50 OFFCURVE",
"448 0 OFFCURVE",
"538 0 CURVE SMOOTH",
"628 0 OFFCURVE",
"676 50 OFFCURVE",
"676 142 CURVE SMOOTH",
"676 284 LINE",
"795.333 315.333 OFFCURVE",
"885.5 379.333 OFFCURVE",
"946.5 476 CURVE SMOOTH",
"1007.5 572.667 OFFCURVE",
"1038 683.333 OFFCURVE",
"1038 808 CURVE SMOOTH",
"1038 962 LINE SMOOTH",
"1038 1062.667 OFFCURVE",
"1018.5 1154.5 OFFCURVE",
"979.5 1237.5 CURVE SMOOTH",
"940.5 1320.5 OFFCURVE",
"882.833 1386.667 OFFCURVE",
"806.5 1436 CURVE SMOOTH",
"730.167 1485.333 OFFCURVE",
"635.667 1510 OFFCURVE",
"523 1510 CURVE SMOOTH",
"433.667 1510 OFFCURVE",
"354.333 1491.833 OFFCURVE",
"285 1455.5 CURVE SMOOTH",
"215.667 1419.167 OFFCURVE",
"161 1368.833 OFFCURVE",
"121 1304.5 CURVE SMOOTH",
"100 1271 OFFCURVE",
"85 1236 OFFCURVE",
"75 1197 CURVE SMOOTH",
"56 1125 OFFCURVE",
"110 1081 OFFCURVE",
"195 1081 CURVE SMOOTH",
"278 1081 OFFCURVE",
"307 1124 OFFCURVE",
"352 1197 CURVE SMOOTH",
"359 1208 OFFCURVE",
"367 1218 OFFCURVE",
"375.5 1227 CURVE SMOOTH",
"411.167 1265 OFFCURVE",
"461.333 1284 OFFCURVE",
"526 1284 CURVE SMOOTH",
"592 1284 OFFCURVE",
"641.833 1267.5 OFFCURVE",
"675.5 1234.5 CURVE SMOOTH",
"709.167 1201.5 OFFCURVE",
"732.167 1160.167 OFFCURVE",
"744.5 1110.5 CURVE SMOOTH",
"756.833 1060.833 OFFCURVE",
"763 1011.333 OFFCURVE",
"763 962 CURVE SMOOTH",
"763 808 LINE SMOOTH",
"763 751.333 OFFCURVE",
"756.5 698.833 OFFCURVE",
"743.5 650.5 CURVE SMOOTH",
"730.5 602.167 OFFCURVE",
"706.833 563.167 OFFCURVE",
"672.5 533.5 CURVE SMOOTH",
"638.167 503.833 OFFCURVE",
"589.333 489 OFFCURVE",
"526 489 CURVE SMOOTH"
);
}
);
userData = {
assembly = "NPUSHB[ ]	/* 53 values pushed */\01226 1 4 0 1 76 0 2 1 0 1 2 0 128 0 1 1 3 97 0 3 3 109 77 5 1 0 0 4 95 0 4 4 104 4 78 2 0 28 27 19 17 14 13 11 9 0 29 2 29 6 12 22 \012CALL[ ]	/* CallFunction */";
};
width = 1097;
}
);
note = uni0241;
unicode = 0241;
},
{
glyphname = Yogh;
lastChange = "2024-07-06 18:59:39 +0000";
layers = (
{
layerId = "9A547413-C347-4957-B455-92488FFEB499";
paths = (
{
closed = 1;
nodes = (
"433 386 OFFCURVE",
"497 408 OFFCURVE",
"558 430.5 CURVE SMOOTH",
"663.333 470.167 OFFCURVE",
"755.667 514.667 OFFCURVE",
"835 564 CURVE",
"862.333 544.667 OFFCURVE",
"882 517.667 OFFCURVE",
"894 483 CURVE SMOOTH",
"906 448.333 OFFCURVE",
"912 403.667 OFFCURVE",
"912 349 CURVE SMOOTH",
"912 241 OFFCURVE",
"884 150.167 OFFCURVE",
"828 76.5 CURVE SMOOTH",
"772 2.833 OFFCURVE",
"691.333 -57.5 OFFCURVE",
"586 -104.5 CURVE SMOOTH",
"512 -138 OFFCURVE",
"427 -166 OFFCURVE",
"331 -191 CURVE SMOOTH",
"247 -212 OFFCURVE",
"205 -255 OFFCURVE",
"205 -328 CURVE SMOOTH",
"205 -396 OFFCURVE",
"263 -428 OFFCURVE",
"360 -406 CURVE SMOOTH",
"490 -377 OFFCURVE",
"608 -340 OFFCURVE",
"714.5 -294 CURVE SMOOTH",
"862.167 -230.667 OFFCURVE",
"977.833 -147.333 OFFCURVE",
"1061.5 -44 CURVE SMOOTH",
"1145.167 59.333 OFFCURVE",
"1187 186.667 OFFCURVE",
"1187 338 CURVE SMOOTH",
"1187 423.333 OFFCURVE",
"1170.667 495.833 OFFCURVE",
"1138 555.5 CURVE SMOOTH",
"1105.333 615.167 OFFCURVE",
"1059.667 661.667 OFFCURVE",
"1001 695 CURVE",
"1109.667 805.667 OFFCURVE",
"1164 932.667 OFFCURVE",
"1164 1076 CURVE SMOOTH",
"1164 1171.333 OFFCURVE",
"1141.833 1251.167 OFFCURVE",
"1097.5 1315.5 CURVE SMOOTH",
"1053.167 1379.833 OFFCURVE",
"991.333 1428.333 OFFCURVE",
"912 1461 CURVE SMOOTH",
"832.667 1493.667 OFFCURVE",
"740.333 1510 OFFCURVE",
"635 1510 CURVE SMOOTH",
"531.667 1510 OFFCURVE",
"439.833 1493 OFFCURVE",
"359.5 1459 CURVE SMOOTH",
"279.167 1425 OFFCURVE",
"216.167 1377.167 OFFCURVE",
"170.5 1315.5 CURVE SMOOTH",
"147 1284 OFFCURVE",
"130 1250 OFFCURVE",
"119 1214 CURVE SMOOTH",
"97 1144 OFFCURVE",
"160 1100 OFFCURVE",
"257 1100 CURVE SMOOTH",
"337 1100 OFFCURVE",
"361 1144 OFFCURVE",
"414 1208 CURVE SMOOTH",
"423 1219 OFFCURVE",
"433 1228 OFFCURVE",
"445.5 1237.5 CURVE SMOOTH",
"492.5 1272.5 OFFCURVE",
"555.667 1290 OFFCURVE",
"635 1290 CURVE SMOOTH",
"807 1290 OFFCURVE",
"893 1207.667 OFFCURVE",
"893 1043 CURVE SMOOTH",
"893 961.667 OFFCURVE",
"869.167 891.5 OFFCURVE",
"821.5 832.5 CURVE SMOOTH",
"773.833 773.5 OFFCURVE",
"699.5 720 OFFCURVE",
"598.5 672 CURVE SMOOTH",
"524 636 OFFCURVE",
"432 601 OFFCURVE",
"324 565 CURVE SMOOTH",
"244 539 OFFCURVE",
"205 495 OFFCURVE",
"205 427 CURVE SMOOTH",
"205 365 OFFCURVE",
"266 339 OFFCURVE",
"364 367 CURVE SMOOTH"
);
}
);
userData = {
assembly = "NPUSHB[ ]	/* 31 values pushed */\01236 29 28 21 1 0 6 1 73 0 1 0 1 134 0 0 0 2 97 0 2 2 109 0 78 35 18 38 3 12 25 \012CALL[ ]	/* CallFunction */";
};
width = 1288;
}
);
note = uni021C;
unicode = 021C;
},
{
glyphname = H;
lastChange = "2024-07-06 18:59:39 +0000";
layers = (
{
layerId = "9A547413-C347-4957-B455-92488FFEB499";
paths = (
{
closed = 1;
nodes = (
"124 142 LINE SMOOTH",
"124 50 OFFCURVE",
"171 0 OFFCURVE",
"256 0 CURVE SMOOTH",
"341 0 OFFCURVE",
"388 50 OFFCURVE",
"388 142 CURVE SMOOTH",
"388 646 LINE",
"1075 646 LINE",
"1075 142 LINE SMOOTH",
"1075 50 OFFCURVE",
"1122 0 OFFCURVE",
"1208 0 CURVE SMOOTH",
"1294 0 OFFCURVE",
"1340 50 OFFCURVE",
"1340 142 CURVE SMOOTH",
"1340 1348 LINE SMOOTH",
"1340 1440 OFFCURVE",
"1293 1490 OFFCURVE",
"1208 1490 CURVE SMOOTH",
"1122 1490 OFFCURVE",
"1075 1440 OFFCURVE",
"1075 1348 CURVE SMOOTH",
"1075 875 LINE",
"388 875 LINE",
"388 1348 LINE SMOOTH",
"388 1440 OFFCURVE",
"341 1490 OFFCURVE",
"256 1490 CURVE SMOOTH",
"171 1490 OFFCURVE",
"124 1440 OFFCURVE",
"124 1348 CURVE SMOOTH"
);
}
);
userData = {
assembly = "NPUSHB[ ]	/* 36 values pushed */\0120 1 0 4 3 1 4 103 2 1 0 0 103 77 6 5 2 3 3 104 3 78 0 0 0 11 0 11 17 17 17 17 17 7 12 27 \012CALL[ ]	/* CallFunction */";
};
width = 1464;
}
);
leftKerningGroup = B;
note = H;
rightKerningGroup = Ereversed;
unicode = 0048;
},
{
glyphname = Hbar;
lastChange = "2024-07-06 18:59:39 +0000";
layers = (
{
layerId = "9A547413-C347-4957-B455-92488FFEB499";
paths = (
{
closed = 1;
nodes = (
"1512 1180 OFFCURVE",
"1467 1209 OFFCURVE",
"1384 1209 CURVE",
"1384 1350 LINE SMOOTH",
"1384 1441 OFFCURVE",
"1337 1490 OFFCURVE",
"1252 1490 CURVE SMOOTH",
"1167 1490 OFFCURVE",
"1120 1440 OFFCURVE",
"1120 1348 CURVE SMOOTH",
"1120 1209 LINE",
"433 1209 LINE",
"433 1350 LINE SMOOTH",
"433 1441 OFFCURVE",
"386 1490 OFFCURVE",
"301 1490 CURVE SMOOTH",
"215 1490 OFFCURVE",
"168 1440 OFFCURVE",
"168 1348 CURVE SMOOTH",
"168 1209 LINE",
"107 1209 LINE SMOOTH",
"68 1209 OFFCURVE",
"46 1180 OFFCURVE",
"46 1126 CURVE SMOOTH",
"46 1072 OFFCURVE",
"89 1043 OFFCURVE",
"168 1043 CURVE",
"168 142 LINE SMOOTH",
"168 50 OFFCURVE",
"215 0 OFFCURVE",
"301 0 CURVE SMOOTH",
"387 0 OFFCURVE",
"433 50 OFFCURVE",
"433 142 CURVE SMOOTH",
"433 646 LINE",
"1120 646 LINE",
"1120 142 LINE SMOOTH",
"1120 50 OFFCURVE",
"1167 0 OFFCURVE",
"1252 0 CURVE SMOOTH",
"1337 0 OFFCURVE",
"1384 50 OFFCURVE",
"1384 142 CURVE SMOOTH",
"1384 1043 LINE",
"1448 1043 LINE SMOOTH",
"1489 1043 OFFCURVE",
"1512 1072 OFFCURVE",
"1512 1126 CURVE SMOOTH"
);
},
{
closed = 1;
nodes = (
"1120 1043 LINE",
"1120 875 LINE",
"433 875 LINE",
"433 1043 LINE"
);
}
);
userData = {
assembly = "NPUSHB[ ]	/* 56 values pushed */\01212 9 7 3 5 10 4 2 0 11 5 0 103 0 11 0 2 1 11 2 103 8 1 6 6 103 77 3 1 1 1 104 1 78 0 0 23 22 21 20 0 19 0 19 17 17 17 17 17 17 17 17 17 13 12 31 \012CALL[ ]	/* CallFunction */";
};
width = 1559;
}
);
leftKerningGroup = B;
note = Hbar;
rightKerningGroup = Ereversed;
unicode = 0126;
},
{
glyphname = Hwair;
lastChange = "2024-07-06 18:59:39 +0000";
layers = (
{
layerId = "9A547413-C347-4957-B455-92488FFEB499";
paths = (
{
closed = 1;
nodes = (
"1658.667 -21 OFFCURVE",
"1743.333 -3 OFFCURVE",
"1816 33 CURVE SMOOTH",
"1888.667 69 OFFCURVE",
"1945.167 119.833 OFFCURVE",
"1985.5 185.5 CURVE SMOOTH",
"2025.833 251.167 OFFCURVE",
"2046 328.333 OFFCURVE",
"2046 417 CURVE SMOOTH",
"2046 914 LINE SMOOTH",
"2046 1006 OFFCURVE",
"2002 1056 OFFCURVE",
"1920 1056 CURVE SMOOTH",
"1838 1056 OFFCURVE",
"1793 1006 OFFCURVE",
"1793 914 CURVE SMOOTH",
"1793 431 LINE SMOOTH",
"1793 356.333 OFFCURVE",
"1772.667 298.167 OFFCURVE",
"1732 256.5 CURVE SMOOTH",
"1691.333 214.833 OFFCURVE",
"1635 194 OFFCURVE",
"1563 194 CURVE SMOOTH",
"1491 194 OFFCURVE",
"1435.833 214.833 OFFCURVE",
"1397.5 256.5 CURVE SMOOTH",
"1359.167 298.167 OFFCURVE",
"1340 356.333 OFFCURVE",
"1340 431 CURVE SMOOTH",
"1340 1348 LINE SMOOTH",
"1340 1440 OFFCURVE",
"1293 1490 OFFCURVE",
"1208 1490 CURVE SMOOTH",
"1122 1490 OFFCURVE",
"1075 1440 OFFCURVE",
"1075 1348 CURVE SMOOTH",
"1075 875 LINE",
"388 875 LINE",
"388 1348 LINE SMOOTH",
"388 1440 OFFCURVE",
"341 1490 OFFCURVE",
"256 1490 CURVE SMOOTH",
"171 1490 OFFCURVE",
"124 1440 OFFCURVE",
"124 1348 CURVE SMOOTH",
"124 142 LINE SMOOTH",
"124 50 OFFCURVE",
"171 0 OFFCURVE",
"256 0 CURVE SMOOTH",
"341 0 OFFCURVE",
"388 50 OFFCURVE",
"388 142 CURVE SMOOTH",
"388 646 LINE",
"1075 646 LINE",
"1075 417 LINE SMOOTH",
"1075 328.333 OFFCURVE",
"1095.333 251.167 OFFCURVE",
"1136 185.5 CURVE SMOOTH",
"1176.667 119.833 OFFCURVE",
"1233.333 69 OFFCURVE",
"1306 33 CURVE SMOOTH",
"1378.667 -3 OFFCURVE",
"1464 -21 OFFCURVE",
"1562 -21 CURVE SMOOTH"
);
}
);
userData = {
assembly = "MPPEM[ ]	/* MeasurePixelPerEm */\012PUSHB[ ]	/* 1 value pushed */\01224 \012LT[ ]	/* LessThan */\012IF[ ]	/* If */\012NPUSHB[ ]	/* 32 values pushed */\0120 4 0 1 6 4 1 103 5 1 3 3 103 77 0 7 7 106 77 0 6 6 0 97 2 8 2 0 0 110 0 78 \012ELSE[ ]	/* Else */\012NPUSHB[ ]	/* 36 values pushed */\0120 4 0 1 6 4 1 103 5 1 3 3 103 77 0 7 7 106 77 0 2 2 104 77 0 6 6 0 97 8 1 0 0 110 0 78 \012EIF[ ]	/* EndIf */\012NPUSHB[ ]	/* 23 values pushed */\0121 0 23 22 19 17 14 13 12 11 10 9 8 7 6 5 0 27 1 27 9 12 22 \012CALL[ ]	/* CallFunction */";
};
width = 2157;
}
);
leftKerningGroup = B;
note = uni01F6;
rightKerningGroup = Hwair;
unicode = 01F6;
},
{
glyphname = I;
lastChange = "2024-07-06 18:59:39 +0000";
layers = (
{
layerId = "9A547413-C347-4957-B455-92488FFEB499";
paths = (
{
closed = 1;
nodes = (
"388 1348 LINE SMOOTH",
"388 1440 OFFCURVE",
"341 1490 OFFCURVE",
"256 1490 CURVE SMOOTH",
"171 1490 OFFCURVE",
"124 1440 OFFCURVE",
"124 1348 CURVE SMOOTH",
"124 142 LINE SMOOTH",
"124 50 OFFCURVE",
"171 0 OFFCURVE",
"256 0 CURVE SMOOTH",
"341 0 OFFCURVE",
"388 50 OFFCURVE",
"388 142 CURVE SMOOTH"
);
}
);
userData = {
assembly = "NPUSHB[ ]	/* 22 values pushed */\0122 1 1 1 103 77 0 0 0 104 0 78 0 0 0 3 0 3 17 3 12 23 \012CALL[ ]	/* CallFunction */";
};
width = 512;
}
);
leftKerningGroup = B;
note = I;
rightKerningGroup = Ereversed;
unicode = 0049;
},
{
glyphname = J;
lastChange = "2024-07-06 18:59:39 +0000";
layers = (
{
layerId = "9A547413-C347-4957-B455-92488FFEB499";
paths = (
{
closed = 1;
nodes = (
"682 -21 OFFCURVE",
"798.167 18.667 OFFCURVE",
"884.5 98 CURVE SMOOTH",
"970.833 177.333 OFFCURVE",
"1014 290.667 OFFCURVE",
"1014 438 CURVE SMOOTH",
"1014 1348 LINE SMOOTH",
"1014 1440 OFFCURVE",
"967 1490 OFFCURVE",
"882 1490 CURVE SMOOTH",
"796 1490 OFFCURVE",
"749 1440 OFFCURVE",
"749 1348 CURVE SMOOTH",
"749 441 LINE SMOOTH",
"749 364.333 OFFCURVE",
"729.5 305.833 OFFCURVE",
"690.5 265.5 CURVE SMOOTH",
"651.5 225.167 OFFCURVE",
"599 205 OFFCURVE",
"533 205 CURVE SMOOTH",
"467.667 205 OFFCURVE",
"415.5 225.167 OFFCURVE",
"376.5 265.5 CURVE SMOOTH",
"337.5 305.833 OFFCURVE",
"318 364.333 OFFCURVE",
"318 441 CURVE SMOOTH",
"318 503 OFFCURVE",
"273 536 OFFCURVE",
"191 536 CURVE SMOOTH",
"109 536 OFFCURVE",
"64 503 OFFCURVE",
"64 442 CURVE SMOOTH",
"64 293.333 OFFCURVE",
"106.667 179 OFFCURVE",
"192 99 CURVE SMOOTH",
"277.333 19 OFFCURVE",
"392 -21 OFFCURVE",
"536 -21 CURVE SMOOTH"
);
}
);
userData = {
assembly = "NPUSHB[ ]	/* 40 values pushed */\0120 1 3 2 3 1 2 128 0 3 3 103 77 0 2 2 0 97 4 1 0 0 110 0 78 1 0 14 13 10 8 5 4 0 17 1 17 5 12 22 \012CALL[ ]	/* CallFunction */";
};
width = 1132;
}
);
leftKerningGroup = J;
note = J;
rightKerningGroup = J;
unicode = 004A;
},
{
glyphname = K;
lastChange = "2024-07-06 18:59:39 +0000";
layers = (
{
layerId = "9A547413-C347-4957-B455-92488FFEB499";
paths = (
{
closed = 1;
nodes = (
"124 142 LINE SMOOTH",
"124 50 OFFCURVE",
"171 0 OFFCURVE",
"256 0 CURVE SMOOTH",
"341 0 OFFCURVE",
"388 50 OFFCURVE",
"388 142 CURVE SMOOTH",
"388 436 LINE",
"592 667 LINE",
"983 91 LINE SMOOTH",
"1026 27 OFFCURVE",
"1079 0 OFFCURVE",
"1155 0 CURVE SMOOTH",
"1199 0 LINE SMOOTH",
"1285 0 OFFCURVE",
"1300 76 OFFCURVE",
"1234 172 CURVE SMOOTH",
"770 845 LINE",
"1188 1316 LINE SMOOTH",
"1270 1409 OFFCURVE",
"1239 1490 OFFCURVE",
"1122 1490 CURVE SMOOTH",
"1048 1490 OFFCURVE",
"997 1466 OFFCURVE",
"948 1411 CURVE SMOOTH",
"621 1041 LINE SMOOTH",
"582.333 995.667 OFFCURVE",
"543.5 950.667 OFFCURVE",
"504.5 906 CURVE SMOOTH",
"465.5 861.333 OFFCURVE",
"426.667 816.333 OFFCURVE",
"388 771 CURVE",
"388 1348 LINE SMOOTH",
"388 1440 OFFCURVE",
"341 1490 OFFCURVE",
"256 1490 CURVE SMOOTH",
"171 1490 OFFCURVE",
"124 1440 OFFCURVE",
"124 1348 CURVE SMOOTH"
);
}
);
userData = {
assembly = "NPUSHB[ ]	/* 35 values pushed */\01213 12 9 3 4 2 0 1 76 1 1 0 0 103 77 4 3 2 2 2 104 2 78 0 0 0 14 0 14 18 21 17 5 12 25 \012CALL[ ]	/* CallFunction */";
};
width = 1369;
}
);
leftKerningGroup = B;
note = K;
rightKerningGroup = K;
unicode = 004B;
},
{
glyphname = Khook;
lastChange = "2024-07-06 18:59:39 +0000";
layers = (
{
layerId = "9A547413-C347-4957-B455-92488FFEB499";
paths = (
{
closed = 1;
nodes = (
"124 142 LINE SMOOTH",
"124 50 OFFCURVE",
"170 0 OFFCURVE",
"254 0 CURVE SMOOTH",
"338 0 OFFCURVE",
"384 50 OFFCURVE",
"384 142 CURVE SMOOTH",
"384 423 LINE",
"568 624 LINE",
"973 86 LINE SMOOTH",
"1018 26 OFFCURVE",
"1071 0 OFFCURVE",
"1146 0 CURVE SMOOTH",
"1195 0 LINE SMOOTH",
"1281 0 OFFCURVE",
"1292 77 OFFCURVE",
"1219 173 CURVE SMOOTH",
"733 809 LINE",
"1113 1210 LINE SMOOTH",
"1148.333 1246.667 OFFCURVE",
"1181.5 1269.167 OFFCURVE",
"1212.5 1277.5 CURVE SMOOTH",
"1229 1282 OFFCURVE",
"1247 1282 OFFCURVE",
"1265 1278 CURVE SMOOTH",
"1301 1270 OFFCURVE",
"1330 1289 OFFCURVE",
"1360 1352 CURVE SMOOTH",
"1389 1412 OFFCURVE",
"1362 1481 OFFCURVE",
"1271 1501 CURVE SMOOTH",
"1234 1508 OFFCURVE",
"1198 1509 OFFCURVE",
"1160.5 1505 CURVE SMOOTH",
"1078.167 1495 OFFCURVE",
"1002 1453.333 OFFCURVE",
"932 1380 CURVE SMOOTH",
"403 809 LINE",
"384 809 LINE",
"384 1348 LINE SMOOTH",
"384 1440 OFFCURVE",
"338 1490 OFFCURVE",
"254 1490 CURVE SMOOTH",
"170 1490 OFFCURVE",
"124 1440 OFFCURVE",
"124 1348 CURVE SMOOTH"
);
}
);
userData = {
assembly = "NPUSHB[ ]	/* 35 values pushed */\01217 16 13 9 8 3 6 1 0 1 76 0 0 0 103 77 3 2 2 1 1 104 1 78 0 0 0 18 0 18 28 17 4 12 24 \012CALL[ ]	/* CallFunction */";
};
width = 1393;
}
);
leftKerningGroup = B;
note = uni0198;
rightKerningGroup = K;
unicode = 0198;
},
{
glyphname = L;
lastChange = "2024-07-06 18:59:39 +0000";
layers = (
{
layerId = "9A547413-C347-4957-B455-92488FFEB499";
paths = (
{
closed = 1;
nodes = (
"124 142 LINE SMOOTH",
"124 50 OFFCURVE",
"174 0 OFFCURVE",
"266 0 CURVE SMOOTH",
"937 0 LINE SMOOTH",
"1029 0 OFFCURVE",
"1079 41 OFFCURVE",
"1079 115 CURVE SMOOTH",
"1079 189 OFFCURVE",
"1029 229 OFFCURVE",
"937 229 CURVE SMOOTH",
"388 229 LINE",
"388 1348 LINE SMOOTH",
"388 1440 OFFCURVE",
"341 1490 OFFCURVE",
"256 1490 CURVE SMOOTH",
"171 1490 OFFCURVE",
"124 1440 OFFCURVE",
"124 1348 CURVE SMOOTH"
);
}
);
userData = {
assembly = "NPUSHB[ ]	/* 28 values pushed */\0120 0 0 103 77 0 1 1 2 96 3 1 2 2 104 2 78 0 0 0 5 0 5 17 17 4 12 24 \012CALL[ ]	/* CallFunction */";
};
width = 1126;
}
);
leftKerningGroup = B;
note = L;
rightKerningGroup = L;
unicode = 004C;
},
{
glyphname = M;
lastChange = "2024-07-06 18:59:39 +0000";
layers = (
{
layerId = "9A547413-C347-4957-B455-92488FFEB499";
paths = (
{
closed = 1;
nodes = (
"124 142 LINE SMOOTH",
"124 50 OFFCURVE",
"170 0 OFFCURVE",
"254 0 CURVE SMOOTH",
"338 0 OFFCURVE",
"384 50 OFFCURVE",
"384 142 CURVE SMOOTH",
"384 760 LINE SMOOTH",
"384 810 OFFCURVE",
"383.167 871.167 OFFCURVE",
"381.5 943.5 CURVE SMOOTH",
"379.833 1015.833 OFFCURVE",
"378 1088.667 OFFCURVE",
"376 1162 CURVE",
"450.5 933.5 LINE SMOOTH",
"474.167 861.167 OFFCURVE",
"493.667 803.333 OFFCURVE",
"509 760 CURVE SMOOTH",
"753 113 LINE SMOOTH",
"782 36 OFFCURVE",
"830 0 OFFCURVE",
"903 0 CURVE SMOOTH",
"976 0 OFFCURVE",
"1024 36 OFFCURVE",
"1053 113 CURVE SMOOTH",
"1295 760 LINE SMOOTH",
"1311 805.333 OFFCURVE",
"1331 866.167 OFFCURVE",
"1355 942.5 CURVE SMOOTH",
"1379 1018.833 OFFCURVE",
"1404.333 1099 OFFCURVE",
"1431 1183 CURVE",
"1425 954 LINE SMOOTH",
"1423 877.333 OFFCURVE",
"1422 812.667 OFFCURVE",
"1422 760 CURVE SMOOTH",
"1422 142 LINE SMOOTH",
"1422 50 OFFCURVE",
"1468 0 OFFCURVE",
"1552 0 CURVE SMOOTH",
"1636 0 OFFCURVE",
"1682 50 OFFCURVE",
"1682 142 CURVE SMOOTH",
"1682 1348 LINE SMOOTH",
"1682 1440 OFFCURVE",
"1632 1490 OFFCURVE",
"1540 1490 CURVE SMOOTH",
"1421 1490 LINE SMOOTH",
"1339 1490 OFFCURVE",
"1287 1454 OFFCURVE",
"1259 1376 CURVE SMOOTH",
"1015 707 LINE SMOOTH",
"1001 665.667 OFFCURVE",
"983.5 611.833 OFFCURVE",
"962.5 545.5 CURVE SMOOTH",
"941.5 479.167 OFFCURVE",
"922.333 417 OFFCURVE",
"905 359 CURVE",
"887.667 417 OFFCURVE",
"868.333 479.167 OFFCURVE",
"847 545.5 CURVE SMOOTH",
"825.667 611.833 OFFCURVE",
"808 665.667 OFFCURVE",
"794 707 CURVE SMOOTH",
"546 1377 LINE SMOOTH",
"518 1454 OFFCURVE",
"465 1490 OFFCURVE",
"383 1490 CURVE SMOOTH",
"266 1490 LINE SMOOTH",
"174 1490 OFFCURVE",
"124 1440 OFFCURVE",
"124 1348 CURVE SMOOTH"
);
}
);
userData = {
assembly = "NPUSHB[ ]	/* 36 values pushed */\01226 17 6 3 2 0 1 76 1 1 0 0 103 77 5 4 3 3 2 2 104 2 78 0 0 0 30 0 30 24 17 24 17 6 12 26 \012CALL[ ]	/* CallFunction */";
};
width = 1806;
}
);
leftKerningGroup = B;
note = M;
rightKerningGroup = Ereversed;
unicode = 004D;
},
{
glyphname = Mturned;
lastChange = "2024-07-06 18:59:39 +0000";
layers = (
{
layerId = "9A547413-C347-4957-B455-92488FFEB499";
paths = (
{
closed = 1;
nodes = (
"875 97.333 OFFCURVE",
"917.333 50 OFFCURVE",
"972 22 CURVE SMOOTH",
"1026.667 -6 OFFCURVE",
"1090.667 -20 OFFCURVE",
"1164 -20 CURVE SMOOTH",
"1232.667 -20 OFFCURVE",
"1292.667 -7.833 OFFCURVE",
"1344 16.5 CURVE SMOOTH",
"1395.333 40.833 OFFCURVE",
"1438 74.667 OFFCURVE",
"1472 118 CURVE",
"1478 59 LINE SMOOTH",
"1482 20 OFFCURVE",
"1525 0 OFFCURVE",
"1604 0 CURVE SMOOTH",
"1682 0 OFFCURVE",
"1724 50 OFFCURVE",
"1724 142 CURVE SMOOTH",
"1724 1348 LINE SMOOTH",
"1724 1440 OFFCURVE",
"1678 1490 OFFCURVE",
"1593 1490 CURVE SMOOTH",
"1508 1490 OFFCURVE",
"1461 1440 OFFCURVE",
"1461 1348 CURVE SMOOTH",
"1461 338 LINE",
"1443.667 294.667 OFFCURVE",
"1416.333 259.833 OFFCURVE",
"1379 233.5 CURVE SMOOTH",
"1341.667 207.167 OFFCURVE",
"1292 194 OFFCURVE",
"1230 194 CURVE SMOOTH",
"1183.333 194 OFFCURVE",
"1143.333 211 OFFCURVE",
"1110 245 CURVE SMOOTH",
"1076.667 279 OFFCURVE",
"1060 341.333 OFFCURVE",
"1060 432 CURVE SMOOTH",
"1060 1348 LINE SMOOTH",
"1060 1440 OFFCURVE",
"1014 1490 OFFCURVE",
"930 1490 CURVE SMOOTH",
"846 1490 OFFCURVE",
"799 1440 OFFCURVE",
"799 1348 CURVE SMOOTH",
"799 432 LINE SMOOTH",
"799 401.333 OFFCURVE",
"800.333 372 OFFCURVE",
"803 344 CURVE",
"785.667 298.667 OFFCURVE",
"758 262.333 OFFCURVE",
"720 235 CURVE SMOOTH",
"682 207.667 OFFCURVE",
"631 194 OFFCURVE",
"567 194 CURVE SMOOTH",
"521 194 OFFCURVE",
"481.5 211 OFFCURVE",
"448.5 245 CURVE SMOOTH",
"415.5 279 OFFCURVE",
"399 341.333 OFFCURVE",
"399 432 CURVE SMOOTH",
"399 1348 LINE SMOOTH",
"399 1440 OFFCURVE",
"353 1490 OFFCURVE",
"268 1490 CURVE SMOOTH",
"183 1490 OFFCURVE",
"137 1440 OFFCURVE",
"137 1348 CURVE SMOOTH",
"137 432 LINE SMOOTH",
"137 265.333 OFFCURVE",
"168.333 148.333 OFFCURVE",
"231 81 CURVE SMOOTH",
"293.667 13.667 OFFCURVE",
"383.333 -20 OFFCURVE",
"500 -20 CURVE SMOOTH",
"582 -20 OFFCURVE",
"651.5 -3.667 OFFCURVE",
"708.5 29 CURVE SMOOTH",
"765.5 61.667 OFFCURVE",
"811 106.667 OFFCURVE",
"845 164 CURVE"
);
}
);
userData = {
assembly = "MPPEM[ ]	/* MeasurePixelPerEm */\012PUSHB[ ]	/* 1 value pushed */\01226 \012LT[ ]	/* LessThan */\012IF[ ]	/* If */\012NPUSHB[ ]	/* 10 values pushed */\01226 1 2 1 31 1 0 2 2 76 \012ELSE[ ]	/* Else */\012NPUSHB[ ]	/* 10 values pushed */\01226 1 2 1 31 1 6 2 2 76 \012EIF[ ]	/* EndIf */\012MPPEM[ ]	/* MeasurePixelPerEm */\012PUSHB[ ]	/* 1 value pushed */\01226 \012LT[ ]	/* LessThan */\012IF[ ]	/* If */\012NPUSHB[ ]	/* 21 values pushed */\0125 3 2 1 1 103 77 4 1 2 2 0 98 7 6 2 0 0 110 0 78 \012ELSE[ ]	/* Else */\012NPUSHB[ ]	/* 25 values pushed */\0125 3 2 1 1 103 77 0 6 6 104 77 4 1 2 2 0 98 7 1 0 0 110 0 78 \012EIF[ ]	/* EndIf */\012NPUSHB[ ]	/* 11 values pushed */\01235 17 19 35 21 35 19 34 8 12 30 \012CALL[ ]	/* CallFunction */";
};
width = 1859;
}
);
note = mcapturn;
unicode = 019C;
},
{
glyphname = N;
lastChange = "2024-07-06 18:59:39 +0000";
layers = (
{
layerId = "9A547413-C347-4957-B455-92488FFEB499";
paths = (
{
closed = 1;
nodes = (
"124 142 LINE SMOOTH",
"124 50 OFFCURVE",
"171 0 OFFCURVE",
"256 0 CURVE SMOOTH",
"341 0 OFFCURVE",
"388 50 OFFCURVE",
"388 142 CURVE SMOOTH",
"388 749 LINE",
"387 891 LINE SMOOTH",
"386.333 953 OFFCURVE",
"384.333 1025.333 OFFCURVE",
"381 1108 CURVE",
"426.333 1027.333 OFFCURVE",
"467.667 955.5 OFFCURVE",
"505 892.5 CURVE SMOOTH",
"542.333 829.5 OFFCURVE",
"571.667 781.333 OFFCURVE",
"593 748 CURVE SMOOTH",
"1006 94 LINE SMOOTH",
"1047 28 OFFCURVE",
"1099 0 OFFCURVE",
"1176 0 CURVE SMOOTH",
"1209 0 LINE SMOOTH",
"1301 0 OFFCURVE",
"1351 50 OFFCURVE",
"1351 142 CURVE SMOOTH",
"1351 1348 LINE SMOOTH",
"1351 1440 OFFCURVE",
"1304 1490 OFFCURVE",
"1219 1490 CURVE SMOOTH",
"1133 1490 OFFCURVE",
"1086 1440 OFFCURVE",
"1086 1348 CURVE SMOOTH",
"1086 678 LINE SMOOTH",
"1086 648.667 OFFCURVE",
"1086.5 606.167 OFFCURVE",
"1087.5 550.5 CURVE SMOOTH",
"1088.5 494.833 OFFCURVE",
"1090 439 OFFCURVE",
"1092 383 CURVE",
"1003 540 LINE SMOOTH",
"973.667 591.333 OFFCURVE",
"950 631 OFFCURVE",
"932 659 CURVE SMOOTH",
"468 1396 LINE SMOOTH",
"427 1461 OFFCURVE",
"375 1490 OFFCURVE",
"298 1490 CURVE SMOOTH",
"266 1490 LINE SMOOTH",
"174 1490 OFFCURVE",
"124 1440 OFFCURVE",
"124 1348 CURVE SMOOTH"
);
}
);
userData = {
assembly = "NPUSHB[ ]	/* 33 values pushed */\01217 6 2 2 0 1 76 1 1 0 0 103 77 4 3 2 2 2 104 2 78 0 0 0 21 0 21 17 24 17 5 12 25 \012CALL[ ]	/* CallFunction */";
};
width = 1475;
}
);
leftKerningGroup = B;
note = N;
rightKerningGroup = Ereversed;
unicode = 004E;
},
{
glyphname = Eng;
lastChange = "2024-07-06 18:59:39 +0000";
layers = (
{
layerId = "9A547413-C347-4957-B455-92488FFEB499";
paths = (
{
closed = 1;
nodes = (
"870 -381 OFFCURVE",
"920 -418 OFFCURVE",
"1012 -418 CURVE SMOOTH",
"1018 -418 LINE SMOOTH",
"1240 -418 OFFCURVE",
"1351 -319.333 OFFCURVE",
"1351 -122 CURVE SMOOTH",
"1351 1348 LINE SMOOTH",
"1351 1440 OFFCURVE",
"1304 1490 OFFCURVE",
"1219 1490 CURVE SMOOTH",
"1133 1490 OFFCURVE",
"1086 1440 OFFCURVE",
"1086 1348 CURVE SMOOTH",
"1086 678 LINE SMOOTH",
"1086 648.667 OFFCURVE",
"1086.5 606.167 OFFCURVE",
"1087.5 550.5 CURVE SMOOTH",
"1088.5 494.833 OFFCURVE",
"1090 439 OFFCURVE",
"1092 383 CURVE",
"1003 540 LINE SMOOTH",
"973.667 591.333 OFFCURVE",
"950 631 OFFCURVE",
"932 659 CURVE SMOOTH",
"468 1396 LINE SMOOTH",
"427 1461 OFFCURVE",
"375 1490 OFFCURVE",
"298 1490 CURVE SMOOTH",
"266 1490 LINE SMOOTH",
"174 1490 OFFCURVE",
"124 1440 OFFCURVE",
"124 1348 CURVE SMOOTH",
"124 142 LINE SMOOTH",
"124 50 OFFCURVE",
"171 0 OFFCURVE",
"256 0 CURVE SMOOTH",
"341 0 OFFCURVE",
"388 50 OFFCURVE",
"388 142 CURVE SMOOTH",
"388 749 LINE",
"387 891 LINE SMOOTH",
"386.333 953 OFFCURVE",
"384.333 1025.333 OFFCURVE",
"381 1108 CURVE",
"426.333 1027.333 OFFCURVE",
"467.667 955.5 OFFCURVE",
"505 892.5 CURVE SMOOTH",
"542.333 829.5 OFFCURVE",
"571.667 781.333 OFFCURVE",
"593 748 CURVE SMOOTH",
"1065 0 LINE",
"1086 0 LINE",
"1086 -109 LINE SMOOTH",
"1086 -141.667 OFFCURVE",
"1078.167 -165.5 OFFCURVE",
"1062.5 -180.5 CURVE SMOOTH",
"1046.833 -195.5 OFFCURVE",
"1020.333 -203 OFFCURVE",
"983 -203 CURVE SMOOTH",
"910 -203 OFFCURVE",
"870 -242 OFFCURVE",
"870 -311 CURVE SMOOTH"
);
}
);
userData = {
assembly = "NPUSHB[ ]	/* 45 values pushed */\01222 11 2 1 3 1 76 4 1 3 3 103 77 2 1 1 1 104 77 0 0 0 5 96 6 1 5 5 108 5 78 0 0 0 30 0 29 24 17 24 19 33 7 12 27 \012CALL[ ]	/* CallFunction */";
};
width = 1475;
}
);
leftKerningGroup = B;
note = Eng;
rightKerningGroup = Ereversed;
unicode = 014A;
},
{
glyphname = Nhookleft;
lastChange = "2024-07-06 18:59:39 +0000";
layers = (
{
layerId = "9A547413-C347-4957-B455-92488FFEB499";
paths = (
{
closed = 1;
nodes = (
"-93 -381 OFFCURVE",
"-43 -418 OFFCURVE",
"49 -418 CURVE SMOOTH",
"56 -418 LINE SMOOTH",
"277.333 -418 OFFCURVE",
"388 -319.333 OFFCURVE",
"388 -122 CURVE SMOOTH",
"388 749 LINE",
"387 891 LINE SMOOTH",
"386.333 953 OFFCURVE",
"384.333 1025.333 OFFCURVE",
"381 1108 CURVE",
"426.333 1027.333 OFFCURVE",
"467.667 955.5 OFFCURVE",
"505 892.5 CURVE SMOOTH",
"542.333 829.5 OFFCURVE",
"571.667 781.333 OFFCURVE",
"593 748 CURVE SMOOTH",
"1006 94 LINE SMOOTH",
"1047 28 OFFCURVE",
"1099 0 OFFCURVE",
"1176 0 CURVE SMOOTH",
"1209 0 LINE SMOOTH",
"1301 0 OFFCURVE",
"1351 50 OFFCURVE",
"1351 142 CURVE SMOOTH",
"1351 1348 LINE SMOOTH",
"1351 1440 OFFCURVE",
"1304 1490 OFFCURVE",
"1219 1490 CURVE SMOOTH",
"1133 1490 OFFCURVE",
"1086 1440 OFFCURVE",
"1086 1348 CURVE SMOOTH",
"1086 678 LINE SMOOTH",
"1086 648.667 OFFCURVE",
"1086.5 606.167 OFFCURVE",
"1087.5 550.5 CURVE SMOOTH",
"1088.5 494.833 OFFCURVE",
"1090 439 OFFCURVE",
"1092 383 CURVE",
"1003 540 LINE SMOOTH",
"973.667 591.333 OFFCURVE",
"950 631 OFFCURVE",
"932 659 CURVE SMOOTH",
"468 1396 LINE SMOOTH",
"427 1461 OFFCURVE",
"375 1490 OFFCURVE",
"298 1490 CURVE SMOOTH",
"266 1490 LINE SMOOTH",
"174 1490 OFFCURVE",
"124 1440 OFFCURVE",
"124 1348 CURVE SMOOTH",
"124 -109 LINE SMOOTH",
"124 -141.667 OFFCURVE",
"116 -165.5 OFFCURVE",
"100 -180.5 CURVE SMOOTH",
"84 -195.5 OFFCURVE",
"57.333 -203 OFFCURVE",
"20 -203 CURVE SMOOTH",
"-53 -203 OFFCURVE",
"-93 -242 OFFCURVE",
"-93 -311 CURVE SMOOTH"
);
}
);
userData = {
assembly = "NPUSHB[ ]	/* 43 values pushed */\01222 11 2 3 1 1 76 2 1 1 1 103 77 0 3 3 104 77 0 0 0 4 96 5 1 4 4 108 4 78 0 0 0 28 0 27 17 24 19 33 6 12 26 \012CALL[ ]	/* CallFunction */";
};
width = 1475;
}
);
leftKerningGroup = Fhook;
note = Nhook;
rightKerningGroup = Ereversed;
unicode = 019D;
},
{
glyphname = Nlongrightleg;
lastChange = "2024-07-06 18:59:39 +0000";
layers = (
{
layerId = "9A547413-C347-4957-B455-92488FFEB499";
paths = (
{
closed = 1;
nodes = (
"1141 -416 OFFCURVE",
"1188 -366 OFFCURVE",
"1188 -274 CURVE SMOOTH",
"1188 1043 LINE SMOOTH",
"1188 1143.667 OFFCURVE",
"1164.5 1228.667 OFFCURVE",
"1117.5 1298 CURVE SMOOTH",
"1070.5 1367.333 OFFCURVE",
"1008.167 1420 OFFCURVE",
"930.5 1456 CURVE SMOOTH",
"852.833 1492 OFFCURVE",
"767.667 1510 OFFCURVE",
"675 1510 CURVE SMOOTH",
"618.333 1510 OFFCURVE",
"564.167 1503.333 OFFCURVE",
"512.5 1490 CURVE SMOOTH",
"460.833 1476.667 OFFCURVE",
"412.667 1458 OFFCURVE",
"368 1434 CURVE",
"368 1462 LINE SMOOTH",
"368 1480 OFFCURVE",
"322 1490 OFFCURVE",
"237 1490 CURVE SMOOTH",
"152 1490 OFFCURVE",
"105 1440 OFFCURVE",
"105 1348 CURVE SMOOTH",
"105 142 LINE SMOOTH",
"105 50 OFFCURVE",
"152 0 OFFCURVE",
"237 0 CURVE SMOOTH",
"322 0 OFFCURVE",
"368 50 OFFCURVE",
"368 142 CURVE SMOOTH",
"368 1217 LINE",
"454.667 1270.333 OFFCURVE",
"546.333 1297 OFFCURVE",
"643 1297 CURVE SMOOTH",
"731.667 1297 OFFCURVE",
"800.333 1276.667 OFFCURVE",
"849 1236 CURVE SMOOTH",
"897.667 1195.333 OFFCURVE",
"922 1131 OFFCURVE",
"922 1043 CURVE SMOOTH",
"922 -274 LINE SMOOTH",
"922 -366 OFFCURVE",
"969 -416 OFFCURVE",
"1055 -416 CURVE SMOOTH"
);
}
);
userData = {
assembly = "NPUSHB[ ]	/* 10 values pushed */\01212 1 1 3 7 1 2 1 2 76 \012MPPEM[ ]	/* MeasurePixelPerEm */\012PUSHB[ ]	/* 1 value pushed */\01226 \012LT[ ]	/* LessThan */\012IF[ ]	/* If */\012NPUSHB[ ]	/* 22 values pushed */\0120 1 1 3 97 4 1 3 3 103 77 0 2 2 104 77 0 0 0 108 0 78 \012ELSE[ ]	/* Else */\012NPUSHB[ ]	/* 26 values pushed */\0120 3 3 103 77 0 1 1 4 97 0 4 4 109 77 0 2 2 104 77 0 0 0 108 0 78 \012EIF[ ]	/* EndIf */\012PUSHB[ ]	/* 8 values pushed */\01235 17 18 35 16 5 12 27 \012CALL[ ]	/* CallFunction */";
};
width = 1290;
}
);
note = uni0220;
unicode = 0220;
},
{
glyphname = O;
lastChange = "2024-07-06 18:59:39 +0000";
layers = (
{
layerId = "9A547413-C347-4957-B455-92488FFEB499";
paths = (
{
closed = 1;
nodes = (
"898.667 -24 OFFCURVE",
"1017.333 7.667 OFFCURVE",
"1122 71 CURVE SMOOTH",
"1226.667 134.333 OFFCURVE",
"1309.167 223.667 OFFCURVE",
"1369.5 339 CURVE SMOOTH",
"1429.833 454.333 OFFCURVE",
"1460 589.333 OFFCURVE",
"1460 744 CURVE SMOOTH",
"1460 899.333 OFFCURVE",
"1429.833 1034.667 OFFCURVE",
"1369.5 1150 CURVE SMOOTH",
"1309.167 1265.333 OFFCURVE",
"1226.667 1354.833 OFFCURVE",
"1122 1418.5 CURVE SMOOTH",
"1017.333 1482.167 OFFCURVE",
"898.667 1514 OFFCURVE",
"766 1514 CURVE SMOOTH",
"632.667 1514 OFFCURVE",
"513.833 1482.167 OFFCURVE",
"409.5 1418.5 CURVE SMOOTH",
"305.167 1354.833 OFFCURVE",
"222.833 1265.333 OFFCURVE",
"162.5 1150 CURVE SMOOTH",
"102.167 1034.667 OFFCURVE",
"72 899.333 OFFCURVE",
"72 744 CURVE SMOOTH",
"72 589.333 OFFCURVE",
"102.167 454.5 OFFCURVE",
"162.5 339.5 CURVE SMOOTH",
"222.833 224.5 OFFCURVE",
"305.167 135.167 OFFCURVE",
"409.5 71.5 CURVE SMOOTH",
"513.833 7.833 OFFCURVE",
"632.667 -24 OFFCURVE",
"766 -24 CURVE SMOOTH"
);
},
{
closed = 1;
nodes = (
"684.667 213 OFFCURVE",
"611.833 233.667 OFFCURVE",
"547.5 275 CURVE SMOOTH",
"483.167 316.333 OFFCURVE",
"432.167 376.5 OFFCURVE",
"394.5 455.5 CURVE SMOOTH",
"356.833 534.5 OFFCURVE",
"338 630.667 OFFCURVE",
"338 744 CURVE SMOOTH",
"338 858 OFFCURVE",
"356.833 954.667 OFFCURVE",
"394.5 1034 CURVE SMOOTH",
"432.167 1113.333 OFFCURVE",
"483.167 1173.667 OFFCURVE",
"547.5 1215 CURVE SMOOTH",
"611.833 1256.333 OFFCURVE",
"684.667 1277 OFFCURVE",
"766 1277 CURVE SMOOTH",
"847.333 1277 OFFCURVE",
"920.167 1256.333 OFFCURVE",
"984.5 1215 CURVE SMOOTH",
"1048.833 1173.667 OFFCURVE",
"1099.667 1113.333 OFFCURVE",
"1137 1034 CURVE SMOOTH",
"1174.333 954.667 OFFCURVE",
"1193 858 OFFCURVE",
"1193 744 CURVE SMOOTH",
"1193 630.667 OFFCURVE",
"1174.333 534.5 OFFCURVE",
"1137 455.5 CURVE SMOOTH",
"1099.667 376.5 OFFCURVE",
"1048.833 316.333 OFFCURVE",
"984.5 275 CURVE SMOOTH",
"920.167 233.667 OFFCURVE",
"847.333 213 OFFCURVE",
"766 213 CURVE SMOOTH"
);
}
);
userData = {
assembly = "MPPEM[ ]	/* MeasurePixelPerEm */\012PUSHB[ ]	/* 1 value pushed */\01250 \012LT[ ]	/* LessThan */\012IF[ ]	/* If */\012NPUSHB[ ]	/* 23 values pushed */\0120 3 3 1 97 0 1 1 109 77 5 1 2 2 0 97 4 1 0 0 110 0 78 \012ELSE[ ]	/* Else */\012NPUSHB[ ]	/* 21 values pushed */\0120 1 0 3 2 1 3 105 5 1 2 2 0 97 4 1 0 0 110 0 78 \012EIF[ ]	/* EndIf */\012NPUSHB[ ]	/* 19 values pushed */\01217 16 1 0 25 23 16 31 17 31 9 7 0 15 1 15 6 12 22 \012CALL[ ]	/* CallFunction */";
};
width = 1532;
}
);
leftKerningGroup = C;
note = O;
rightKerningGroup = Oopen;
unicode = 004F;
},
{
glyphname = OU;
lastChange = "2024-07-06 18:59:39 +0000";
layers = (
{
layerId = "9A547413-C347-4957-B455-92488FFEB499";
paths = (
{
closed = 1;
nodes = (
"573.333 933 OFFCURVE",
"524.667 937.333 OFFCURVE",
"482 946 CURVE SMOOTH",
"439.333 954.667 OFFCURVE",
"405.833 972.667 OFFCURVE",
"381.5 1000 CURVE SMOOTH",
"357.167 1027.333 OFFCURVE",
"345 1068.333 OFFCURVE",
"345 1123 CURVE SMOOTH",
"345 1174.333 OFFCURVE",
"357.167 1213.833 OFFCURVE",
"381.5 1241.5 CURVE SMOOTH",
"395 1256 OFFCURVE",
"412 1269 OFFCURVE",
"433 1279 CURVE SMOOTH",
"473 1299 OFFCURVE",
"494 1333 OFFCURVE",
"494 1405 CURVE SMOOTH",
"494 1471 OFFCURVE",
"436 1515 OFFCURVE",
"343 1489 CURVE SMOOTH",
"284 1472 OFFCURVE",
"232 1445 OFFCURVE",
"188 1408.5 CURVE SMOOTH",
"109.333 1343.5 OFFCURVE",
"70 1248.333 OFFCURVE",
"70 1123 CURVE SMOOTH",
"70 1046.333 OFFCURVE",
"86.167 982.333 OFFCURVE",
"118.5 931 CURVE SMOOTH",
"150.833 879.667 OFFCURVE",
"195.333 839 OFFCURVE",
"252 809 CURVE",
"194.667 771 OFFCURVE",
"150 722 OFFCURVE",
"118 662 CURVE SMOOTH",
"86 602 OFFCURVE",
"70 531.667 OFFCURVE",
"70 451 CURVE SMOOTH",
"70 349.667 OFFCURVE",
"94.333 263.833 OFFCURVE",
"143 193.5 CURVE SMOOTH",
"191.667 123.167 OFFCURVE",
"258.333 70 OFFCURVE",
"343 34 CURVE SMOOTH",
"427.667 -2 OFFCURVE",
"524.667 -20 OFFCURVE",
"634 -20 CURVE SMOOTH",
"657 -20 LINE SMOOTH",
"765.667 -20 OFFCURVE",
"862.167 -1.833 OFFCURVE",
"946.5 34.5 CURVE SMOOTH",
"1030.833 70.833 OFFCURVE",
"1097.167 124.167 OFFCURVE",
"1145.5 194.5 CURVE SMOOTH",
"1193.833 264.833 OFFCURVE",
"1218 351.333 OFFCURVE",
"1218 454 CURVE SMOOTH",
"1218 534 OFFCURVE",
"1202 603.667 OFFCURVE",
"1170 663 CURVE SMOOTH",
"1138 722.333 OFFCURVE",
"1093.667 771 OFFCURVE",
"1037 809 CURVE",
"1093.667 839 OFFCURVE",
"1138.333 879.667 OFFCURVE",
"1171 931 CURVE SMOOTH",
"1203.667 982.333 OFFCURVE",
"1220 1046.333 OFFCURVE",
"1220 1123 CURVE SMOOTH",
"1220 1248.333 OFFCURVE",
"1180.667 1343.5 OFFCURVE",
"1102 1408.5 CURVE SMOOTH",
"1058 1445 OFFCURVE",
"1006 1472 OFFCURVE",
"947 1489 CURVE SMOOTH",
"854 1515 OFFCURVE",
"796 1471 OFFCURVE",
"796 1405 CURVE SMOOTH",
"796 1333 OFFCURVE",
"841 1304 OFFCURVE",
"900 1249 CURVE SMOOTH",
"903 1247 OFFCURVE",
"905 1244 OFFCURVE",
"908 1241 CURVE SMOOTH",
"932.667 1213.667 OFFCURVE",
"945 1174.333 OFFCURVE",
"945 1123 CURVE SMOOTH",
"945 1068.333 OFFCURVE",
"932.833 1027.5 OFFCURVE",
"908.5 1000.5 CURVE SMOOTH",
"884.167 973.5 OFFCURVE",
"850.5 955.5 OFFCURVE",
"807.5 946.5 CURVE SMOOTH",
"764.5 937.5 OFFCURVE",
"715.667 933 OFFCURVE",
"661 933 CURVE SMOOTH",
"628 933 LINE SMOOTH"
);
},
{
closed = 1;
nodes = (
"743.667 710 OFFCURVE",
"813 688.5 OFFCURVE",
"865 645.5 CURVE SMOOTH",
"917 602.5 OFFCURVE",
"943 538.667 OFFCURVE",
"943 454 CURVE SMOOTH",
"943 367.333 OFFCURVE",
"917 303.167 OFFCURVE",
"865 261.5 CURVE SMOOTH",
"813 219.833 OFFCURVE",
"743.667 199.333 OFFCURVE",
"657 200 CURVE SMOOTH",
"634 200 LINE SMOOTH",
"546.667 200 OFFCURVE",
"476.667 220.667 OFFCURVE",
"424 262 CURVE SMOOTH",
"371.333 303.333 OFFCURVE",
"345 366.333 OFFCURVE",
"345 451 CURVE SMOOTH",
"345 536.333 OFFCURVE",
"371.333 600.833 OFFCURVE",
"424 644.5 CURVE SMOOTH",
"476.667 688.167 OFFCURVE",
"546.667 710 OFFCURVE",
"634 710 CURVE SMOOTH",
"657 710 LINE SMOOTH"
);
}
);
userData = {
assembly = "NPUSHB[ ]	/* 62 values pushed */\01237 8 2 0 1 30 15 2 4 0 2 76 6 1 0 7 1 4 5 0 4 105 3 1 1 1 109 77 0 5 5 2 98 0 2 2 110 2 78 46 44 2 0 53 50 44 57 46 57 36 35 24 21 10 9 0 43 2 43 8 12 22 \012CALL[ ]	/* CallFunction */";
};
width = 1288;
}
);
note = uni0222;
unicode = 0222;
},
{
glyphname = Ohorn;
lastChange = "2024-07-06 18:59:39 +0000";
layers = (
{
layerId = "9A547413-C347-4957-B455-92488FFEB499";
paths = (
{
closed = 1;
nodes = (
"898.667 -24 OFFCURVE",
"1017.333 7.667 OFFCURVE",
"1122 71 CURVE SMOOTH",
"1226.667 134.333 OFFCURVE",
"1309.167 223.667 OFFCURVE",
"1369.5 339 CURVE SMOOTH",
"1429.833 454.333 OFFCURVE",
"1460 589.333 OFFCURVE",
"1460 744 CURVE SMOOTH",
"1460 864.667 OFFCURVE",
"1441.333 973.5 OFFCURVE",
"1404 1070.5 CURVE SMOOTH",
"1366.667 1167.5 OFFCURVE",
"1315.333 1249.667 OFFCURVE",
"1250 1317 CURVE",
"1258 1317 LINE SMOOTH",
"1320.667 1317 OFFCURVE",
"1370 1332 OFFCURVE",
"1406 1362 CURVE SMOOTH",
"1442 1392 OFFCURVE",
"1460 1438.667 OFFCURVE",
"1460 1502 CURVE SMOOTH",
"1460 1588 LINE SMOOTH",
"1460 1680 OFFCURVE",
"1419 1730 OFFCURVE",
"1343 1730 CURVE SMOOTH",
"1267 1730 OFFCURVE",
"1226 1680 OFFCURVE",
"1226 1588 CURVE SMOOTH",
"1226 1513 LINE SMOOTH",
"1226 1497.667 OFFCURVE",
"1218.333 1490 OFFCURVE",
"1203 1490 CURVE SMOOTH",
"1140.333 1490 OFFCURVE",
"1088.833 1491.167 OFFCURVE",
"1048.5 1493.5 CURVE SMOOTH",
"1008.167 1495.833 OFFCURVE",
"973.667 1498.667 OFFCURVE",
"945 1502 CURVE SMOOTH",
"916.333 1505.333 OFFCURVE",
"888.5 1508.167 OFFCURVE",
"861.5 1510.5 CURVE SMOOTH",
"834.5 1512.833 OFFCURVE",
"802.667 1514 OFFCURVE",
"766 1514 CURVE SMOOTH",
"632.667 1514 OFFCURVE",
"513.833 1482.167 OFFCURVE",
"409.5 1418.5 CURVE SMOOTH",
"305.167 1354.833 OFFCURVE",
"222.833 1265.333 OFFCURVE",
"162.5 1150 CURVE SMOOTH",
"102.167 1034.667 OFFCURVE",
"72 899.333 OFFCURVE",
"72 744 CURVE SMOOTH",
"72 589.333 OFFCURVE",
"102.167 454.5 OFFCURVE",
"162.5 339.5 CURVE SMOOTH",
"222.833 224.5 OFFCURVE",
"305.167 135.167 OFFCURVE",
"409.5 71.5 CURVE SMOOTH",
"513.833 7.833 OFFCURVE",
"632.667 -24 OFFCURVE",
"766 -24 CURVE SMOOTH"
);
},
{
closed = 1;
nodes = (
"684.667 213 OFFCURVE",
"611.833 233.667 OFFCURVE",
"547.5 275 CURVE SMOOTH",
"483.167 316.333 OFFCURVE",
"432.167 376.5 OFFCURVE",
"394.5 455.5 CURVE SMOOTH",
"356.833 534.5 OFFCURVE",
"338 630.667 OFFCURVE",
"338 744 CURVE SMOOTH",
"338 858 OFFCURVE",
"356.833 954.667 OFFCURVE",
"394.5 1034 CURVE SMOOTH",
"432.167 1113.333 OFFCURVE",
"483.167 1173.667 OFFCURVE",
"547.5 1215 CURVE SMOOTH",
"611.833 1256.333 OFFCURVE",
"684.667 1277 OFFCURVE",
"766 1277 CURVE SMOOTH",
"847.333 1277 OFFCURVE",
"920.167 1256.333 OFFCURVE",
"984.5 1215 CURVE SMOOTH",
"1048.833 1173.667 OFFCURVE",
"1099.667 1113.333 OFFCURVE",
"1137 1034 CURVE SMOOTH",
"1174.333 954.667 OFFCURVE",
"1193 858 OFFCURVE",
"1193 744 CURVE SMOOTH",
"1193 630.667 OFFCURVE",
"1174.333 534.5 OFFCURVE",
"1137 455.5 CURVE SMOOTH",
"1099.667 376.5 OFFCURVE",
"1048.833 316.333 OFFCURVE",
"984.5 275 CURVE SMOOTH",
"920.167 233.667 OFFCURVE",
"847.333 213 OFFCURVE",
"766 213 CURVE SMOOTH"
);
}
);
userData = {
assembly = "MPPEM[ ]	/* MeasurePixelPerEm */\012PUSHB[ ]	/* 1 value pushed */\01212 \012LT[ ]	/* LessThan */\012IF[ ]	/* If */\012NPUSHB[ ]	/* 31 values pushed */\0120 3 1 4 3 87 6 1 4 4 1 97 2 1 1 1 109 77 8 1 5 5 0 97 7 1 0 0 110 0 78 \012ELSE[ ]	/* Else */\012MPPEM[ ]	/* MeasurePixelPerEm */\012PUSHB[ ]	/* 1 value pushed */\01224 \012LT[ ]	/* LessThan */\012IF[ ]	/* If */\012NPUSHB[ ]	/* 32 values pushed */\0120 3 0 4 6 3 4 105 0 6 6 1 97 2 1 1 1 109 77 8 1 5 5 0 97 7 1 0 0 110 0 78 \012ELSE[ ]	/* Else */\012MPPEM[ ]	/* MeasurePixelPerEm */\012PUSHB[ ]	/* 1 value pushed */\01250 \012LT[ ]	/* LessThan */\012IF[ ]	/* If */\012NPUSHB[ ]	/* 36 values pushed */\0120 3 0 4 6 3 4 105 0 2 2 109 77 0 6 6 1 97 0 1 1 109 77 8 1 5 5 0 97 7 1 0 0 110 0 78 \012ELSE[ ]	/* Else */\012NPUSHB[ ]	/* 34 values pushed */\0120 3 0 4 6 3 4 105 0 1 0 6 5 1 6 105 0 2 2 109 77 8 1 5 5 0 97 7 1 0 0 110 0 78 \012EIF[ ]	/* EndIf */\012EIF[ ]	/* EndIf */\012EIF[ ]	/* EndIf */\012NPUSHB[ ]	/* 25 values pushed */\01231 30 1 0 39 37 30 45 31 45 21 20 17 16 14 11 9 7 0 29 1 29 9 12 22 \012CALL[ ]	/* CallFunction */";
};
width = 1532;
}
);
leftKerningGroup = C;
note = Ohorn;
rightKerningGroup = Ohorn;
unicode = 01A0;
},
{
glyphname = Oi;
lastChange = "2024-07-06 18:59:39 +0000";
layers = (
{
layerId = "9A547413-C347-4957-B455-92488FFEB499";
paths = (
{
closed = 1;
nodes = (
"1679 1348 LINE SMOOTH",
"1679 1440 OFFCURVE",
"1641 1490 OFFCURVE",
"1571 1490 CURVE SMOOTH",
"1505 1490 OFFCURVE",
"1457 1480 OFFCURVE",
"1396 1453 CURVE SMOOTH",
"1201 1367 LINE",
"1150.333 1408.333 OFFCURVE",
"1085.5 1442.5 OFFCURVE",
"1006.5 1469.5 CURVE SMOOTH",
"927.5 1496.5 OFFCURVE",
"840 1510 OFFCURVE",
"744 1510 CURVE SMOOTH",
"536.667 1510 OFFCURVE",
"374.833 1448.167 OFFCURVE",
"258.5 1324.5 CURVE SMOOTH",
"142.167 1200.833 OFFCURVE",
"84 1028.667 OFFCURVE",
"84 808 CURVE SMOOTH",
"84 682 LINE SMOOTH",
"84 536.667 OFFCURVE",
"109.667 411.5 OFFCURVE",
"161 306.5 CURVE SMOOTH",
"212.333 201.5 OFFCURVE",
"286.5 120.833 OFFCURVE",
"383.5 64.5 CURVE SMOOTH",
"480.5 8.167 OFFCURVE",
"597 -20 OFFCURVE",
"733 -20 CURVE SMOOTH",
"856.333 -20 OFFCURVE",
"965.333 0.333 OFFCURVE",
"1060 41 CURVE SMOOTH",
"1114 64 OFFCURVE",
"1160 91 OFFCURVE",
"1198 120 CURVE SMOOTH",
"1253 166 OFFCURVE",
"1267 220 OFFCURVE",
"1267 291 CURVE SMOOTH",
"1267 1130 LINE",
"1417 1193 LINE",
"1417 -276 LINE SMOOTH",
"1417 -368 OFFCURVE",
"1463 -418 OFFCURVE",
"1548 -418 CURVE SMOOTH",
"1633 -418 OFFCURVE",
"1679 -368 OFFCURVE",
"1679 -276 CURVE SMOOTH"
);
},
{
closed = 1;
nodes = (
"359 808 LINE SMOOTH",
"359 964.667 OFFCURVE",
"389.667 1084.167 OFFCURVE",
"451 1166.5 CURVE SMOOTH",
"512.333 1248.833 OFFCURVE",
"611.667 1290 OFFCURVE",
"749 1290 CURVE SMOOTH",
"801 1290 OFFCURVE",
"849.833 1282.667 OFFCURVE",
"895.5 1268 CURVE SMOOTH",
"941.167 1253.333 OFFCURVE",
"977.333 1232.667 OFFCURVE",
"1004 1206 CURVE",
"1004 282 LINE",
"946 226 OFFCURVE",
"860 198 OFFCURVE",
"746 198 CURVE SMOOTH",
"611.333 198 OFFCURVE",
"513.333 241.167 OFFCURVE",
"452 327.5 CURVE SMOOTH",
"390.667 413.833 OFFCURVE",
"359.667 532 OFFCURVE",
"359 682 CURVE"
);
}
);
userData = {
assembly = "MPPEM[ ]	/* MeasurePixelPerEm */\012PUSHB[ ]	/* 1 value pushed */\01226 \012LT[ ]	/* LessThan */\012IF[ ]	/* If */\012NPUSHB[ ]	/* 17 values pushed */\01219 1 5 2 28 27 4 3 4 4 5 5 1 1 4 3 76 \012ELSE[ ]	/* Else */\012NPUSHB[ ]	/* 17 values pushed */\01219 1 5 3 28 27 4 3 4 4 5 5 1 1 4 3 76 \012EIF[ ]	/* EndIf */\012MPPEM[ ]	/* MeasurePixelPerEm */\012PUSHB[ ]	/* 1 value pushed */\01226 \012LT[ ]	/* LessThan */\012IF[ ]	/* If */\012NPUSHB[ ]	/* 28 values pushed */\0120 5 5 2 97 6 3 2 2 2 109 77 0 4 4 1 97 0 1 1 110 77 0 0 0 108 0 78 \012ELSE[ ]	/* Else */\012NPUSHB[ ]	/* 32 values pushed */\0126 1 3 3 103 77 0 5 5 2 97 0 2 2 109 77 0 4 4 1 97 0 1 1 110 77 0 0 0 108 0 78 \012EIF[ ]	/* EndIf */\012NPUSHB[ ]	/* 16 values pushed */\0120 0 32 30 26 24 0 20 0 20 38 37 17 7 12 25 \012CALL[ ]	/* CallFunction */";
};
width = 1803;
}
);
note = OI;
unicode = 01A2;
},
{
glyphname = Oopen;
lastChange = "2024-07-06 18:59:39 +0000";
layers = (
{
layerId = "9A547413-C347-4957-B455-92488FFEB499";
paths = (
{
closed = 1;
nodes = (
"598.333 1514 OFFCURVE",
"496.667 1492.167 OFFCURVE",
"406 1448.5 CURVE SMOOTH",
"315.333 1404.833 OFFCURVE",
"240.667 1343.167 OFFCURVE",
"182 1263.5 CURVE SMOOTH",
"152 1223 OFFCURVE",
"127 1178 OFFCURVE",
"108 1130 CURVE SMOOTH",
"74 1040 OFFCURVE",
"126 981 OFFCURVE",
"216 981 CURVE SMOOTH",
"298 981 OFFCURVE",
"339 1020 OFFCURVE",
"378 1095 CURVE SMOOTH",
"401 1137 OFFCURVE",
"431 1172 OFFCURVE",
"467 1200 CURVE SMOOTH",
"533 1251.333 OFFCURVE",
"613.333 1277 OFFCURVE",
"708 1277 CURVE SMOOTH",
"799.333 1277 OFFCURVE",
"877.667 1255 OFFCURVE",
"943 1211 CURVE SMOOTH",
"1008.333 1167 OFFCURVE",
"1058.5 1105.167 OFFCURVE",
"1093.5 1025.5 CURVE SMOOTH",
"1128.5 945.833 OFFCURVE",
"1146 852.667 OFFCURVE",
"1146 746 CURVE SMOOTH",
"1146 638.667 OFFCURVE",
"1128.5 545 OFFCURVE",
"1093.5 465 CURVE SMOOTH",
"1058.5 385 OFFCURVE",
"1008.333 323 OFFCURVE",
"943 279 CURVE SMOOTH",
"877.667 235 OFFCURVE",
"799.333 213 OFFCURVE",
"708 213 CURVE SMOOTH",
"612.667 213 OFFCURVE",
"532 239 OFFCURVE",
"466 291 CURVE SMOOTH",
"430 320 OFFCURVE",
"400 355 OFFCURVE",
"378 396 CURVE SMOOTH",
"338 471 OFFCURVE",
"297 511 OFFCURVE",
"215 511 CURVE SMOOTH",
"203 511 LINE SMOOTH",
"121 511 OFFCURVE",
"74 448 OFFCURVE",
"112 352 CURVE SMOOTH",
"131 307 OFFCURVE",
"154 266 OFFCURVE",
"182 228 CURVE SMOOTH",
"240.667 148 OFFCURVE",
"315.333 86 OFFCURVE",
"406 42 CURVE SMOOTH",
"496.667 -2 OFFCURVE",
"598.333 -24 OFFCURVE",
"711 -24 CURVE SMOOTH",
"847.667 -24 OFFCURVE",
"968.833 7.667 OFFCURVE",
"1074.5 71 CURVE SMOOTH",
"1180.167 134.333 OFFCURVE",
"1262.833 223.667 OFFCURVE",
"1322.5 339 CURVE SMOOTH",
"1382.167 454.333 OFFCURVE",
"1412 590 OFFCURVE",
"1412 746 CURVE SMOOTH",
"1412 900.667 OFFCURVE",
"1382.167 1035.667 OFFCURVE",
"1322.5 1151 CURVE SMOOTH",
"1262.833 1266.333 OFFCURVE",
"1180.167 1355.667 OFFCURVE",
"1074.5 1419 CURVE SMOOTH",
"968.833 1482.333 OFFCURVE",
"847.667 1514 OFFCURVE",
"711 1514 CURVE SMOOTH"
);
}
);
userData = {
assembly = "MPPEM[ ]	/* MeasurePixelPerEm */\012PUSHB[ ]	/* 1 value pushed */\01250 \012LT[ ]	/* LessThan */\012IF[ ]	/* If */\012NPUSHB[ ]	/* 37 values pushed */\0120 5 4 2 4 5 2 128 0 2 3 4 2 3 126 0 4 4 0 97 6 1 0 0 109 77 0 3 3 1 97 0 1 1 110 1 78 \012ELSE[ ]	/* Else */\012NPUSHB[ ]	/* 35 values pushed */\0120 5 4 2 4 5 2 128 0 2 3 4 2 3 126 6 1 0 0 4 5 0 4 105 0 3 3 1 97 0 1 1 110 1 78 \012EIF[ ]	/* EndIf */\012NPUSHB[ ]	/* 19 values pushed */\0121 0 28 27 25 23 17 15 13 12 9 7 0 31 1 31 7 12 22 \012CALL[ ]	/* CallFunction */";
};
width = 1484;
}
);
leftKerningGroup = C;
note = uni0186;
rightKerningGroup = Oopen;
unicode = 0186;
},
{
glyphname = OE;
lastChange = "2024-07-06 18:59:39 +0000";
layers = (
{
layerId = "9A547413-C347-4957-B455-92488FFEB499";
paths = (
{
closed = 1;
nodes = (
"1869 0 LINE SMOOTH",
"1961 0 OFFCURVE",
"2011 41 OFFCURVE",
"2011 115 CURVE SMOOTH",
"2011 189 OFFCURVE",
"1961 229 OFFCURVE",
"1869 229 CURVE SMOOTH",
"1240 229 LINE",
"1240 644 LINE",
"1811 644 LINE SMOOTH",
"1903 644 OFFCURVE",
"1953 684 OFFCURVE",
"1953 757 CURVE SMOOTH",
"1953 830 OFFCURVE",
"1903 869 OFFCURVE",
"1811 869 CURVE SMOOTH",
"1240 869 LINE",
"1240 1261 LINE",
"1869 1261 LINE SMOOTH",
"1961 1261 OFFCURVE",
"2011 1302 OFFCURVE",
"2011 1376 CURVE SMOOTH",
"2011 1450 OFFCURVE",
"1961 1490 OFFCURVE",
"1869 1490 CURVE SMOOTH",
"787 1490 LINE SMOOTH",
"639.667 1490 OFFCURVE",
"512.5 1459.833 OFFCURVE",
"405.5 1399.5 CURVE SMOOTH",
"298.5 1339.167 OFFCURVE",
"216.167 1253.5 OFFCURVE",
"158.5 1142.5 CURVE SMOOTH",
"100.833 1031.5 OFFCURVE",
"72 899.667 OFFCURVE",
"72 747 CURVE SMOOTH",
"72 593 OFFCURVE",
"100.833 460.167 OFFCURVE",
"158.5 348.5 CURVE SMOOTH",
"216.167 236.833 OFFCURVE",
"299.167 150.833 OFFCURVE",
"407.5 90.5 CURVE SMOOTH",
"515.833 30.167 OFFCURVE",
"646 0 OFFCURVE",
"798 0 CURVE SMOOTH"
);
},
{
closed = 1;
nodes = (
"975 226 LINE",
"813 226 LINE SMOOTH",
"651 226 OFFCURVE",
"530.833 271.5 OFFCURVE",
"452.5 362.5 CURVE SMOOTH",
"374.167 453.5 OFFCURVE",
"335 581.667 OFFCURVE",
"335 747 CURVE SMOOTH",
"335 911 OFFCURVE",
"373.833 1038.167 OFFCURVE",
"451.5 1128.5 CURVE SMOOTH",
"529.167 1218.833 OFFCURVE",
"646.667 1264 OFFCURVE",
"804 1264 CURVE SMOOTH",
"975 1264 LINE"
);
}
);
userData = {
assembly = "NPUSHB[ ]	/* 60 values pushed */\0120 3 0 4 5 3 4 103 6 1 2 2 1 95 0 1 1 103 77 9 7 2 5 5 0 95 8 1 0 0 104 0 78 19 19 1 0 19 27 19 26 22 20 17 16 15 14 13 12 11 10 9 7 0 18 1 18 10 12 22 \012CALL[ ]	/* CallFunction */";
};
width = 2077;
}
);
leftKerningGroup = C;
note = OE;
rightKerningGroup = AE;
unicode = 0152;
},
{
glyphname = P;
lastChange = "2024-07-06 18:59:39 +0000";
layers = (
{
layerId = "9A547413-C347-4957-B455-92488FFEB499";
paths = (
{
closed = 1;
nodes = (
"124 142 LINE SMOOTH",
"124 50 OFFCURVE",
"171 0 OFFCURVE",
"256 0 CURVE SMOOTH",
"341 0 OFFCURVE",
"388 50 OFFCURVE",
"388 142 CURVE SMOOTH",
"388 536 LINE",
"688 536 LINE SMOOTH",
"797.333 536 OFFCURVE",
"892.167 555.5 OFFCURVE",
"972.5 594.5 CURVE SMOOTH",
"1052.833 633.5 OFFCURVE",
"1115 688.667 OFFCURVE",
"1159 760 CURVE SMOOTH",
"1203 831.333 OFFCURVE",
"1225 916 OFFCURVE",
"1225 1014 CURVE SMOOTH",
"1225 1111.333 OFFCURVE",
"1203.5 1195.667 OFFCURVE",
"1160.5 1267 CURVE SMOOTH",
"1117.5 1338.333 OFFCURVE",
"1056.167 1393.333 OFFCURVE",
"976.5 1432 CURVE SMOOTH",
"896.833 1470.667 OFFCURVE",
"802.333 1490 OFFCURVE",
"693 1490 CURVE SMOOTH",
"266 1490 LINE SMOOTH",
"174 1490 OFFCURVE",
"124 1440 OFFCURVE",
"124 1348 CURVE SMOOTH"
);
},
{
closed = 1;
nodes = (
"388 762 LINE",
"388 1264 LINE",
"678 1264 LINE SMOOTH",
"766.667 1264 OFFCURVE",
"836.667 1241.667 OFFCURVE",
"888 1197 CURVE SMOOTH",
"939.333 1152.333 OFFCURVE",
"965 1091.333 OFFCURVE",
"965 1014 CURVE SMOOTH",
"965 936 OFFCURVE",
"939.333 874.5 OFFCURVE",
"888 829.5 CURVE SMOOTH",
"836.667 784.5 OFFCURVE",
"766.667 762 OFFCURVE",
"678 762 CURVE SMOOTH"
);
}
);
userData = {
assembly = "NPUSHB[ ]	/* 40 values pushed */\0120 3 0 1 2 3 1 103 0 4 4 0 95 0 0 0 103 77 5 1 2 2 104 2 78 0 0 21 19 15 13 0 12 0 12 38 33 6 12 24 \012CALL[ ]	/* CallFunction */";
};
width = 1280;
}
);
leftKerningGroup = B;
note = P;
rightKerningGroup = P;
unicode = 0050;
},
{
glyphname = Phook;
lastChange = "2024-07-06 18:59:39 +0000";
layers = (
{
layerId = "9A547413-C347-4957-B455-92488FFEB499";
paths = (
{
closed = 1;
nodes = (
"37 1180 LINE SMOOTH",
"37 1088 OFFCURVE",
"81 1038 OFFCURVE",
"162 1038 CURVE SMOOTH",
"243 1038 OFFCURVE",
"286 1087 OFFCURVE",
"286 1177 CURVE SMOOTH",
"286 1235.667 OFFCURVE",
"319.333 1265 OFFCURVE",
"386 1265 CURVE SMOOTH",
"476 1265 LINE",
"476 142 LINE SMOOTH",
"476 50 OFFCURVE",
"523 0 OFFCURVE",
"608 0 CURVE SMOOTH",
"693 0 OFFCURVE",
"740 50 OFFCURVE",
"740 142 CURVE SMOOTH",
"740 536 LINE",
"1040 536 LINE SMOOTH",
"1149.333 536 OFFCURVE",
"1244.167 555.5 OFFCURVE",
"1324.5 594.5 CURVE SMOOTH",
"1404.833 633.5 OFFCURVE",
"1467 688.667 OFFCURVE",
"1511 760 CURVE SMOOTH",
"1555 831.333 OFFCURVE",
"1577 916 OFFCURVE",
"1577 1014 CURVE SMOOTH",
"1577 1111.333 OFFCURVE",
"1555.5 1195.667 OFFCURVE",
"1512.5 1267 CURVE SMOOTH",
"1469.5 1338.333 OFFCURVE",
"1408.167 1393.333 OFFCURVE",
"1328.5 1432 CURVE SMOOTH",
"1248.833 1470.667 OFFCURVE",
"1154.333 1490 OFFCURVE",
"1045 1490 CURVE SMOOTH",
"332 1490 LINE SMOOTH",
"234.667 1490 OFFCURVE",
"161.167 1464.5 OFFCURVE",
"111.5 1413.5 CURVE SMOOTH",
"61.833 1362.5 OFFCURVE",
"37 1291 OFFCURVE",
"37 1199 CURVE SMOOTH"
);
},
{
closed = 1;
nodes = (
"740 762 LINE",
"740 1264 LINE",
"1030 1264 LINE SMOOTH",
"1118.667 1264 OFFCURVE",
"1188.667 1241.667 OFFCURVE",
"1240 1197 CURVE SMOOTH",
"1291.333 1152.333 OFFCURVE",
"1317 1091.333 OFFCURVE",
"1317 1014 CURVE SMOOTH",
"1317 936 OFFCURVE",
"1291.333 874.5 OFFCURVE",
"1240 829.5 CURVE SMOOTH",
"1188.667 784.5 OFFCURVE",
"1118.667 762 OFFCURVE",
"1030 762 CURVE SMOOTH"
);
}
);
userData = {
assembly = "MPPEM[ ]	/* MeasurePixelPerEm */\012PUSHB[ ]	/* 1 value pushed */\01210 \012LT[ ]	/* LessThan */\012IF[ ]	/* If */\012NPUSHB[ ]	/* 33 values pushed */\0127 1 4 3 5 3 4 114 0 5 0 1 2 5 1 103 6 1 3 3 0 95 0 0 0 103 77 0 2 2 104 2 78 \012ELSE[ ]	/* Else */\012NPUSHB[ ]	/* 34 values pushed */\0127 1 4 3 5 3 4 5 128 0 5 0 1 2 5 1 103 6 1 3 3 0 95 0 0 0 103 77 0 2 2 104 2 78 \012EIF[ ]	/* EndIf */\012NPUSHB[ ]	/* 17 values pushed */\0120 0 30 28 24 22 0 21 0 21 33 17 38 51 8 12 26 \012CALL[ ]	/* CallFunction */";
};
width = 1632;
}
);
leftKerningGroup = B;
note = uni01A4;
rightKerningGroup = P;
unicode = 01A4;
},
{
glyphname = Thorn;
lastChange = "2024-07-06 18:59:39 +0000";
layers = (
{
layerId = "9A547413-C347-4957-B455-92488FFEB499";
paths = (
{
closed = 1;
nodes = (
"163 1490 OFFCURVE",
"117 1440 OFFCURVE",
"117 1348 CURVE SMOOTH",
"117 142 LINE SMOOTH",
"117 50 OFFCURVE",
"163 0 OFFCURVE",
"248 0 CURVE SMOOTH",
"333 0 OFFCURVE",
"379 50 OFFCURVE",
"379 142 CURVE SMOOTH",
"379 314 LINE",
"625 314 LINE SMOOTH",
"739 314 OFFCURVE",
"835.333 333.5 OFFCURVE",
"914 372.5 CURVE SMOOTH",
"992.667 411.5 OFFCURVE",
"1052.333 464.5 OFFCURVE",
"1093 531.5 CURVE SMOOTH",
"1133.667 598.5 OFFCURVE",
"1154 674 OFFCURVE",
"1154 758 CURVE SMOOTH",
"1154 842 OFFCURVE",
"1133.667 917.5 OFFCURVE",
"1093 984.5 CURVE SMOOTH",
"1052.333 1051.5 OFFCURVE",
"992.667 1104.5 OFFCURVE",
"914 1143.5 CURVE SMOOTH",
"835.333 1182.5 OFFCURVE",
"739 1202.333 OFFCURVE",
"625 1203 CURVE SMOOTH",
"379 1203 LINE",
"379 1348 LINE SMOOTH",
"379 1440 OFFCURVE",
"333 1490 OFFCURVE",
"248 1490 CURVE SMOOTH"
);
},
{
closed = 1;
nodes = (
"379 523 LINE",
"379 992 LINE",
"625 992 LINE SMOOTH",
"719.667 992 OFFCURVE",
"790.333 969.667 OFFCURVE",
"837 925 CURVE SMOOTH",
"883.667 880.333 OFFCURVE",
"907 823.333 OFFCURVE",
"907 754 CURVE SMOOTH",
"907 686.667 OFFCURVE",
"883.667 631.5 OFFCURVE",
"837 588.5 CURVE SMOOTH",
"790.333 545.5 OFFCURVE",
"719.667 523.667 OFFCURVE",
"625 523 CURVE SMOOTH"
);
}
);
userData = {
assembly = "NPUSHB[ ]	/* 36 values pushed */\0120 1 0 5 4 1 5 103 0 4 0 2 3 4 2 103 0 0 0 103 77 0 3 3 104 3 78 36 33 17 38 33 16 6 12 28 \012CALL[ ]	/* CallFunction */";
};
width = 1288;
}
);
leftKerningGroup = B;
note = Thorn;
unicode = 00DE;
},
{
glyphname = Q;
lastChange = "2024-07-06 18:59:39 +0000";
layers = (
{
layerId = "9A547413-C347-4957-B455-92488FFEB499";
paths = (
{
closed = 1;
nodes = (
"858 -24 OFFCURVE",
"944.333 -8.333 OFFCURVE",
"1025 23 CURVE",
"1084 -53 LINE SMOOTH",
"1125 -107 OFFCURVE",
"1174 -129 OFFCURVE",
"1249 -129 CURVE SMOOTH",
"1269 -129 LINE SMOOTH",
"1338 -129 OFFCURVE",
"1332 -50 OFFCURVE",
"1258 45 CURVE SMOOTH",
"1196 124 LINE",
"1278 190 OFFCURVE",
"1342.5 276 OFFCURVE",
"1389.5 382 CURVE SMOOTH",
"1436.5 488 OFFCURVE",
"1460 608.667 OFFCURVE",
"1460 744 CURVE SMOOTH",
"1460 899.333 OFFCURVE",
"1429.833 1034.667 OFFCURVE",
"1369.5 1150 CURVE SMOOTH",
"1309.167 1265.333 OFFCURVE",
"1226.667 1354.833 OFFCURVE",
"1122 1418.5 CURVE SMOOTH",
"1017.333 1482.167 OFFCURVE",
"898.667 1514 OFFCURVE",
"766 1514 CURVE SMOOTH",
"632.667 1514 OFFCURVE",
"513.833 1482.167 OFFCURVE",
"409.5 1418.5 CURVE SMOOTH",
"305.167 1354.833 OFFCURVE",
"222.833 1265.333 OFFCURVE",
"162.5 1150 CURVE SMOOTH",
"102.167 1034.667 OFFCURVE",
"72 899.333 OFFCURVE",
"72 744 CURVE SMOOTH",
"72 589.333 OFFCURVE",
"102.167 454.5 OFFCURVE",
"162.5 339.5 CURVE SMOOTH",
"222.833 224.5 OFFCURVE",
"305.167 135.167 OFFCURVE",
"409.5 71.5 CURVE SMOOTH",
"513.833 7.833 OFFCURVE",
"632.667 -24 OFFCURVE",
"766 -24 CURVE SMOOTH"
);
},
{
closed = 1;
nodes = (
"720 497 OFFCURVE",
"720 419 OFFCURVE",
"792 324 CURVE SMOOTH",
"867 225 LINE",
"834.333 217 OFFCURVE",
"800.667 213 OFFCURVE",
"766 213 CURVE SMOOTH",
"684.667 213 OFFCURVE",
"611.833 233.667 OFFCURVE",
"547.5 275 CURVE SMOOTH",
"483.167 316.333 OFFCURVE",
"432.167 376.5 OFFCURVE",
"394.5 455.5 CURVE SMOOTH",
"356.833 534.5 OFFCURVE",
"338 630.667 OFFCURVE",
"338 744 CURVE SMOOTH",
"338 858 OFFCURVE",
"356.833 954.667 OFFCURVE",
"394.5 1034 CURVE SMOOTH",
"432.167 1113.333 OFFCURVE",
"483.167 1173.667 OFFCURVE",
"547.5 1215 CURVE SMOOTH",
"611.833 1256.333 OFFCURVE",
"684.667 1277 OFFCURVE",
"766 1277 CURVE SMOOTH",
"847.333 1277 OFFCURVE",
"920.167 1256.333 OFFCURVE",
"984.5 1215 CURVE SMOOTH",
"1048.833 1173.667 OFFCURVE",
"1099.667 1113.333 OFFCURVE",
"1137 1034 CURVE SMOOTH",
"1174.333 954.667 OFFCURVE",
"1193 858 OFFCURVE",
"1193 744 CURVE SMOOTH",
"1193 648 OFFCURVE",
"1179.167 564.167 OFFCURVE",
"1151.5 492.5 CURVE SMOOTH",
"1123.833 420.833 OFFCURVE",
"1086.333 362.333 OFFCURVE",
"1039 317 CURVE",
"966 412 LINE SMOOTH",
"920 471 OFFCURVE",
"868 497 OFFCURVE",
"793 497 CURVE SMOOTH"
);
}
);
userData = {
assembly = "NPUSHB[ ]	/* 12 values pushed */\01239 22 2 5 3 18 15 2 0 5 2 76 \012MPPEM[ ]	/* MeasurePixelPerEm */\012PUSHB[ ]	/* 1 value pushed */\01250 \012LT[ ]	/* LessThan */\012IF[ ]	/* If */\012NPUSHB[ ]	/* 35 values pushed */\0120 3 4 5 4 3 5 128 0 2 0 2 134 0 4 4 1 97 0 1 1 109 77 0 5 5 0 98 6 1 0 0 110 0 78 \012ELSE[ ]	/* Else */\012NPUSHB[ ]	/* 33 values pushed */\0120 3 4 5 4 3 5 128 0 2 0 2 134 0 1 0 4 3 1 4 105 0 5 5 0 98 6 1 0 0 110 0 78 \012EIF[ ]	/* EndIf */\012NPUSHB[ ]	/* 19 values pushed */\0121 0 38 36 30 28 21 20 17 16 9 7 0 19 1 19 7 12 22 \012CALL[ ]	/* CallFunction */";
};
width = 1532;
}
);
leftKerningGroup = C;
note = Q;
rightKerningGroup = Oopen;
unicode = 0051;
},
{
glyphname = Q_rthook;
lastChange = "2024-07-06 18:59:39 +0000";
layers = (
{
layerId = "9A547413-C347-4957-B455-92488FFEB499";
paths = (
{
closed = 1;
nodes = (
"1415 1348 LINE SMOOTH",
"1415 1440 OFFCURVE",
"1371 1490 OFFCURVE",
"1289 1490 CURVE SMOOTH",
"1207 1490 OFFCURVE",
"1162 1440 OFFCURVE",
"1162 1348 CURVE SMOOTH",
"1162 1270 LINE",
"1160 1270 LINE",
"1121.333 1345.333 OFFCURVE",
"1062.333 1404.667 OFFCURVE",
"983 1448 CURVE SMOOTH",
"903.667 1491.333 OFFCURVE",
"814.667 1513 OFFCURVE",
"716 1513 CURVE SMOOTH",
"622.667 1513 OFFCURVE",
"536.833 1494 OFFCURVE",
"458.5 1456 CURVE SMOOTH",
"380.167 1418 OFFCURVE",
"312.167 1364.5 OFFCURVE",
"254.5 1295.5 CURVE SMOOTH",
"196.833 1226.5 OFFCURVE",
"152 1145.167 OFFCURVE",
"120 1051.5 CURVE SMOOTH",
"88 957.833 OFFCURVE",
"72 855.667 OFFCURVE",
"72 745 CURVE SMOOTH",
"72 596.333 OFFCURVE",
"99.667 464.333 OFFCURVE",
"155 349 CURVE SMOOTH",
"210.333 233.667 OFFCURVE",
"286.5 142.833 OFFCURVE",
"383.5 76.5 CURVE SMOOTH",
"480.5 10.167 OFFCURVE",
"591.333 -23 OFFCURVE",
"716 -23 CURVE SMOOTH",
"816.667 -23 OFFCURVE",
"906.167 -1.167 OFFCURVE",
"984.5 42.5 CURVE SMOOTH",
"1062.833 86.167 OFFCURVE",
"1121.333 146.667 OFFCURVE",
"1160 224 CURVE",
"1162 224 LINE",
"1162 -122 LINE SMOOTH",
"1162 -319.333 OFFCURVE",
"1271 -418 OFFCURVE",
"1489 -418 CURVE SMOOTH",
"1489 -418 LINE SMOOTH",
"1581 -418 OFFCURVE",
"1631 -381 OFFCURVE",
"1631 -314 CURVE SMOOTH",
"1631 -247 OFFCURVE",
"1591 -210 OFFCURVE",
"1518 -210 CURVE SMOOTH",
"1480.667 -210 OFFCURVE",
"1454.167 -202.5 OFFCURVE",
"1438.5 -187.5 CURVE SMOOTH",
"1422.833 -172.5 OFFCURVE",
"1415 -148.333 OFFCURVE",
"1415 -115 CURVE SMOOTH"
);
},
{
closed = 1;
nodes = (
"667 212 OFFCURVE",
"593.833 233.833 OFFCURVE",
"531.5 277.5 CURVE SMOOTH",
"469.167 321.167 OFFCURVE",
"421 383 OFFCURVE",
"387 463 CURVE SMOOTH",
"353 543 OFFCURVE",
"336 637 OFFCURVE",
"336 745 CURVE SMOOTH",
"336 851.667 OFFCURVE",
"353.333 945 OFFCURVE",
"388 1025 CURVE SMOOTH",
"422.667 1105 OFFCURVE",
"471.167 1167.167 OFFCURVE",
"533.5 1211.5 CURVE SMOOTH",
"595.833 1255.833 OFFCURVE",
"668.667 1278 OFFCURVE",
"752 1278 CURVE SMOOTH",
"879.333 1278 OFFCURVE",
"979.667 1230.333 OFFCURVE",
"1053 1135 CURVE SMOOTH",
"1126.333 1039.667 OFFCURVE",
"1163 909.667 OFFCURVE",
"1163 745 CURVE SMOOTH",
"1163 636.333 OFFCURVE",
"1146.167 542.167 OFFCURVE",
"1112.5 462.5 CURVE SMOOTH",
"1078.833 382.833 OFFCURVE",
"1031.167 321.167 OFFCURVE",
"969.5 277.5 CURVE SMOOTH",
"907.833 233.833 OFFCURVE",
"835 212 OFFCURVE",
"751 212 CURVE SMOOTH"
);
}
);
userData = {
assembly = "PUSHB[ ]	/* 7 values pushed */\01226 10 2 5 6 1 76 \012MPPEM[ ]	/* MeasurePixelPerEm */\012PUSHB[ ]	/* 1 value pushed */\01222 \012LT[ ]	/* LessThan */\012IF[ ]	/* If */\012NPUSHB[ ]	/* 34 values pushed */\0120 6 6 3 97 7 4 2 3 3 109 77 8 1 5 5 2 97 0 2 2 110 77 0 0 0 1 98 0 1 1 108 1 78 \012ELSE[ ]	/* Else */\012NPUSHB[ ]	/* 38 values pushed */\0127 1 4 4 103 77 0 6 6 3 97 0 3 3 109 77 8 1 5 5 2 97 0 2 2 110 77 0 0 0 1 98 0 1 1 108 1 78 \012EIF[ ]	/* EndIf */\012NPUSHB[ ]	/* 21 values pushed */\01230 29 0 0 37 35 29 43 30 43 0 28 0 28 39 37 33 35 9 12 26 \012CALL[ ]	/* CallFunction */";
};
width = 1538;
}
);
leftKerningGroup = C;
note = Q_rthook;
rightKerningGroup = Q_rthook;
},
{
glyphname = R;
lastChange = "2024-07-06 18:59:39 +0000";
layers = (
{
layerId = "9A547413-C347-4957-B455-92488FFEB499";
paths = (
{
closed = 1;
nodes = (
"124 142 LINE SMOOTH",
"124 50 OFFCURVE",
"171 0 OFFCURVE",
"256 0 CURVE SMOOTH",
"341 0 OFFCURVE",
"388 50 OFFCURVE",
"388 142 CURVE SMOOTH",
"388 542 LINE",
"688 542 LINE",
"695 542 LINE",
"922 102 LINE SMOOTH",
"958 31 OFFCURVE",
"1011 0 OFFCURVE",
"1090 0 CURVE SMOOTH",
"1121 0 LINE SMOOTH",
"1206 0 OFFCURVE",
"1229 71 OFFCURVE",
"1177 169 CURVE SMOOTH",
"955 590 LINE",
"1043.667 626 OFFCURVE",
"1113 680.333 OFFCURVE",
"1163 753 CURVE SMOOTH",
"1213 825.667 OFFCURVE",
"1238 912.667 OFFCURVE",
"1238 1014 CURVE SMOOTH",
"1238 1111.333 OFFCURVE",
"1216.333 1195.667 OFFCURVE",
"1173 1267 CURVE SMOOTH",
"1129.667 1338.333 OFFCURVE",
"1068.167 1393.333 OFFCURVE",
"988.5 1432 CURVE SMOOTH",
"908.833 1470.667 OFFCURVE",
"814.333 1490 OFFCURVE",
"705 1490 CURVE SMOOTH",
"266 1490 LINE SMOOTH",
"174 1490 OFFCURVE",
"124 1440 OFFCURVE",
"124 1348 CURVE SMOOTH"
);
},
{
closed = 1;
nodes = (
"388 760 LINE",
"388 1266 LINE",
"690 1266 LINE SMOOTH",
"778.667 1266 OFFCURVE",
"848.833 1243.333 OFFCURVE",
"900.5 1198 CURVE SMOOTH",
"952.167 1152.667 OFFCURVE",
"978 1091.333 OFFCURVE",
"978 1014 CURVE SMOOTH",
"978 936 OFFCURVE",
"952.333 874.167 OFFCURVE",
"901 828.5 CURVE SMOOTH",
"849.667 782.833 OFFCURVE",
"780 760 OFFCURVE",
"692 760 CURVE SMOOTH"
);
}
);
userData = {
assembly = "NPUSHB[ ]	/* 48 values pushed */\0129 1 2 4 1 76 0 4 0 2 1 4 2 103 0 5 5 0 95 0 0 0 103 77 6 3 2 1 1 104 1 78 0 0 25 23 19 17 0 16 0 16 49 23 33 7 12 25 \012CALL[ ]	/* CallFunction */";
};
width = 1319;
}
);
leftKerningGroup = B;
note = R;
rightKerningGroup = G.1;
unicode = 0052;
},
{
glyphname = Rstroke;
lastChange = "2024-07-06 18:59:39 +0000";
layers = (
{
layerId = "9A547413-C347-4957-B455-92488FFEB499";
paths = (
{
closed = 1;
nodes = (
"151 142 LINE SMOOTH",
"151 50 OFFCURVE",
"198 0 OFFCURVE",
"284 0 CURVE SMOOTH",
"370 0 OFFCURVE",
"416 50 OFFCURVE",
"416 142 CURVE SMOOTH",
"416 542 LINE",
"716 542 LINE",
"723 542 LINE",
"950 102 LINE SMOOTH",
"986 31 OFFCURVE",
"1039 0 OFFCURVE",
"1118 0 CURVE SMOOTH",
"1148 0 LINE SMOOTH",
"1232 0 OFFCURVE",
"1256 71 OFFCURVE",
"1204 169 CURVE SMOOTH",
"983 590 LINE",
"1071 626 OFFCURVE",
"1140 680.333 OFFCURVE",
"1190 753 CURVE SMOOTH",
"1240 825.667 OFFCURVE",
"1265 912.667 OFFCURVE",
"1265 1014 CURVE SMOOTH",
"1265 1111.333 OFFCURVE",
"1243.333 1195.667 OFFCURVE",
"1200 1267 CURVE SMOOTH",
"1156.667 1338.333 OFFCURVE",
"1095.167 1393.333 OFFCURVE",
"1015.5 1432 CURVE SMOOTH",
"935.833 1470.667 OFFCURVE",
"841.667 1490 OFFCURVE",
"733 1490 CURVE SMOOTH",
"293 1490 LINE SMOOTH",
"201 1490 OFFCURVE",
"151 1440 OFFCURVE",
"151 1348 CURVE SMOOTH",
"151 768 LINE",
"72 768 LINE SMOOTH",
"21 768 OFFCURVE",
"-7 732 OFFCURVE",
"-7 665 CURVE SMOOTH",
"-7 598 OFFCURVE",
"43 562 OFFCURVE",
"135 562 CURVE SMOOTH",
"151 562 LINE"
);
},
{
closed = 1;
nodes = (
"416 760 LINE",
"416 1266 LINE",
"718 1266 LINE SMOOTH",
"806.667 1266 OFFCURVE",
"876.667 1243.333 OFFCURVE",
"928 1198 CURVE SMOOTH",
"979.333 1152.667 OFFCURVE",
"1005 1091.333 OFFCURVE",
"1005 1014 CURVE SMOOTH",
"1005 936 OFFCURVE",
"979.5 874.167 OFFCURVE",
"928.5 828.5 CURVE SMOOTH",
"877.5 782.833 OFFCURVE",
"807.667 760 OFFCURVE",
"719 760 CURVE SMOOTH"
);
}
);
userData = {
assembly = "PUSHB[ ]	/* 6 values pushed */\01213 1 0 1 1 76 \012MPPEM[ ]	/* MeasurePixelPerEm */\012PUSHB[ ]	/* 1 value pushed */\01226 \012LT[ ]	/* LessThan */\012IF[ ]	/* If */\012NPUSHB[ ]	/* 28 values pushed */\0126 1 1 4 1 0 3 1 0 103 0 7 7 2 95 0 2 2 103 77 8 5 2 3 3 104 3 78 \012ELSE[ ]	/* Else */\012NPUSHB[ ]	/* 33 values pushed */\0120 0 4 1 0 87 6 1 1 0 4 3 1 4 103 0 7 7 2 95 0 2 2 103 77 8 5 2 3 3 104 3 78 \012EIF[ ]	/* EndIf */\012NPUSHB[ ]	/* 18 values pushed */\0120 0 29 27 23 21 0 20 0 20 49 23 33 17 17 9 12 27 \012CALL[ ]	/* CallFunction */";
};
width = 1308;
}
);
leftKerningGroup = B;
note = uni024C;
rightKerningGroup = G.1;
unicode = 024C;
},
{
glyphname = S;
lastChange = "2024-07-06 18:59:39 +0000";
layers = (
{
layerId = "9A547413-C347-4957-B455-92488FFEB499";
paths = (
{
closed = 1;
nodes = (
"780.333 -24 OFFCURVE",
"882 -5.5 OFFCURVE",
"968 31.5 CURVE SMOOTH",
"1054 68.5 OFFCURVE",
"1120.333 121 OFFCURVE",
"1167 189 CURVE SMOOTH",
"1213.667 257 OFFCURVE",
"1237 337.333 OFFCURVE",
"1237 430 CURVE SMOOTH",
"1237 539.333 OFFCURVE",
"1201 627.667 OFFCURVE",
"1129 695 CURVE SMOOTH",
"1057 762.333 OFFCURVE",
"943.667 813 OFFCURVE",
"789 847 CURVE SMOOTH",
"638 882 LINE SMOOTH",
"540.667 904 OFFCURVE",
"471.167 930.5 OFFCURVE",
"429.5 961.5 CURVE SMOOTH",
"387.833 992.5 OFFCURVE",
"367 1033 OFFCURVE",
"367 1083 CURVE SMOOTH",
"367 1143.667 OFFCURVE",
"393.333 1193.333 OFFCURVE",
"446 1232 CURVE SMOOTH",
"498.667 1270.667 OFFCURVE",
"566.333 1290 OFFCURVE",
"649 1290 CURVE SMOOTH",
"736.333 1290 OFFCURVE",
"806.667 1267.667 OFFCURVE",
"860 1223 CURVE SMOOTH",
"888 1200 OFFCURVE",
"909 1172 OFFCURVE",
"923 1140 CURVE SMOOTH",
"953 1074 OFFCURVE",
"988 1038 OFFCURVE",
"1072 1038 CURVE SMOOTH",
"1074 1038 LINE SMOOTH",
"1153 1038 OFFCURVE",
"1204 1096 OFFCURVE",
"1175 1190 CURVE SMOOTH",
"1151 1268 OFFCURVE",
"1108 1334 OFFCURVE",
"1046.5 1387 CURVE SMOOTH",
"948.833 1471.667 OFFCURVE",
"816.667 1514 OFFCURVE",
"650 1514 CURVE SMOOTH",
"540.667 1514 OFFCURVE",
"444.833 1495.5 OFFCURVE",
"362.5 1458.5 CURVE SMOOTH",
"280.167 1421.5 OFFCURVE",
"216.167 1369.667 OFFCURVE",
"170.5 1303 CURVE SMOOTH",
"124.833 1236.333 OFFCURVE",
"102 1158.667 OFFCURVE",
"102 1070 CURVE SMOOTH",
"102 965.333 OFFCURVE",
"137.333 879.667 OFFCURVE",
"208 813 CURVE SMOOTH",
"278.667 746.333 OFFCURVE",
"388.333 696 OFFCURVE",
"537 662 CURVE SMOOTH",
"697 626 LINE SMOOTH",
"796.333 603.333 OFFCURVE",
"867.333 575.5 OFFCURVE",
"910 542.5 CURVE SMOOTH",
"952.667 509.5 OFFCURVE",
"974 466.667 OFFCURVE",
"974 414 CURVE SMOOTH",
"974 348.667 OFFCURVE",
"945.667 296.5 OFFCURVE",
"889 257.5 CURVE SMOOTH",
"832.333 218.5 OFFCURVE",
"757.667 199 OFFCURVE",
"665 199 CURVE SMOOTH",
"561 199 OFFCURVE",
"479.833 224.333 OFFCURVE",
"421.5 275 CURVE SMOOTH",
"391 301 OFFCURVE",
"369 333 OFFCURVE",
"354 370 CURVE SMOOTH",
"324 445 OFFCURVE",
"289 486 OFFCURVE",
"204 486 CURVE SMOOTH",
"203 486 LINE SMOOTH",
"121 486 OFFCURVE",
"67 430 OFFCURVE",
"91 336 CURVE SMOOTH",
"114 246 OFFCURVE",
"160 171 OFFCURVE",
"229.5 111.5 CURVE SMOOTH",
"333.833 21.167 OFFCURVE",
"478.333 -24 OFFCURVE",
"663 -24 CURVE SMOOTH"
);
}
);
userData = {
assembly = "MPPEM[ ]	/* MeasurePixelPerEm */\012PUSHB[ ]	/* 1 value pushed */\01250 \012LT[ ]	/* LessThan */\012IF[ ]	/* If */\012NPUSHB[ ]	/* 37 values pushed */\0120 4 5 1 5 4 1 128 0 1 2 5 1 2 126 0 5 5 3 97 0 3 3 109 77 0 2 2 0 97 6 1 0 0 110 0 78 \012ELSE[ ]	/* Else */\012NPUSHB[ ]	/* 35 values pushed */\0120 4 5 1 5 4 1 128 0 1 2 5 1 2 126 0 3 0 5 4 3 5 105 0 2 2 0 97 6 1 0 0 110 0 78 \012EIF[ ]	/* EndIf */\012NPUSHB[ ]	/* 19 values pushed */\0121 0 29 27 25 24 22 20 8 6 4 3 0 41 1 41 7 12 22 \012CALL[ ]	/* CallFunction */";
};
width = 1310;
}
);
leftKerningGroup = S;
note = S;
rightKerningGroup = S;
unicode = 0053;
},
{
glyphname = Germandbls;
lastChange = "2024-07-06 18:59:39 +0000";
layers = (
{
layerId = "9A547413-C347-4957-B455-92488FFEB499";
paths = (
{
closed = 1;
nodes = (
"124 142 LINE SMOOTH",
"124 50 OFFCURVE",
"170 0 OFFCURVE",
"254 0 CURVE SMOOTH",
"338 0 OFFCURVE",
"384 50 OFFCURVE",
"384 142 CURVE SMOOTH",
"384 978 LINE SMOOTH",
"384 1038.667 OFFCURVE",
"391.667 1092.833 OFFCURVE",
"407 1140.5 CURVE SMOOTH",
"422.333 1188.167 OFFCURVE",
"448.667 1225.833 OFFCURVE",
"486 1253.5 CURVE SMOOTH",
"523.333 1281.167 OFFCURVE",
"575.667 1295 OFFCURVE",
"643 1295 CURVE SMOOTH",
"699.667 1295 OFFCURVE",
"748.667 1286.5 OFFCURVE",
"790 1269.5 CURVE SMOOTH",
"831.333 1252.5 OFFCURVE",
"865.667 1233.667 OFFCURVE",
"893 1213 CURVE",
"675 934 LINE SMOOTH",
"632 879 OFFCURVE",
"614 831 OFFCURVE",
"614 769 CURVE SMOOTH",
"614 713 OFFCURVE",
"664 681 OFFCURVE",
"755 681 CURVE SMOOTH",
"779 681 OFFCURVE",
"807.833 678.167 OFFCURVE",
"841.5 672.5 CURVE SMOOTH",
"875.167 666.833 OFFCURVE",
"908.167 655.5 OFFCURVE",
"940.5 638.5 CURVE SMOOTH",
"972.833 621.5 OFFCURVE",
"999.833 596.167 OFFCURVE",
"1021.5 562.5 CURVE SMOOTH",
"1043.167 528.833 OFFCURVE",
"1054 484 OFFCURVE",
"1054 428 CURVE SMOOTH",
"1054 354.667 OFFCURVE",
"1030.667 297.167 OFFCURVE",
"984 255.5 CURVE SMOOTH",
"937.333 213.833 OFFCURVE",
"871.667 193 OFFCURVE",
"787 193 CURVE SMOOTH",
"745.667 193 OFFCURVE",
"706.167 197.833 OFFCURVE",
"668.5 207.5 CURVE SMOOTH",
"650 212 OFFCURVE",
"633 217 OFFCURVE",
"617 222 CURVE SMOOTH",
"583 233 OFFCURVE",
"553 205 OFFCURVE",
"528 139 CURVE SMOOTH",
"504 73 OFFCURVE",
"539 13 OFFCURVE",
"632 -4 CURVE SMOOTH",
"635 -5 OFFCURVE",
"639 -5 OFFCURVE",
"642 -6 CURVE SMOOTH",
"696 -15.333 OFFCURVE",
"748.667 -20 OFFCURVE",
"800 -20 CURVE SMOOTH",
"900.667 -20 OFFCURVE",
"990 -2.167 OFFCURVE",
"1068 33.5 CURVE SMOOTH",
"1146 69.167 OFFCURVE",
"1207.167 120.167 OFFCURVE",
"1251.5 186.5 CURVE SMOOTH",
"1295.833 252.833 OFFCURVE",
"1318 332.667 OFFCURVE",
"1318 426 CURVE SMOOTH",
"1318 546 OFFCURVE",
"1279.333 644.667 OFFCURVE",
"1202 722 CURVE SMOOTH",
"1124.667 799.333 OFFCURVE",
"1018.667 844.667 OFFCURVE",
"884 858 CURVE",
"1126 1155 LINE SMOOTH",
"1184 1227 OFFCURVE",
"1181 1301 OFFCURVE",
"1105 1355 CURVE SMOOTH",
"1057 1388 OFFCURVE",
"1007 1417 OFFCURVE",
"954.5 1442 CURVE SMOOTH",
"858.833 1488 OFFCURVE",
"753.333 1511 OFFCURVE",
"638 1511 CURVE SMOOTH",
"470 1511 OFFCURVE",
"342.333 1466.333 OFFCURVE",
"255 1377 CURVE SMOOTH",
"167.667 1287.667 OFFCURVE",
"124 1156.667 OFFCURVE",
"124 984 CURVE SMOOTH"
);
}
);
userData = {
assembly = "MPPEM[ ]	/* MeasurePixelPerEm */\012PUSHB[ ]	/* 1 value pushed */\01226 \012LT[ ]	/* LessThan */\012IF[ ]	/* If */\012NPUSHB[ ]	/* 17 values pushed */\01233 32 8 7 4 3 4 19 1 2 3 18 1 1 2 3 76 \012ELSE[ ]	/* Else */\012NPUSHB[ ]	/* 17 values pushed */\01233 32 8 7 4 3 4 19 1 2 3 18 1 5 2 3 76 \012EIF[ ]	/* EndIf */\012MPPEM[ ]	/* MeasurePixelPerEm */\012PUSHB[ ]	/* 1 value pushed */\01226 \012LT[ ]	/* LessThan */\012IF[ ]	/* If */\012NPUSHB[ ]	/* 31 values pushed */\0120 3 4 2 4 3 2 128 0 4 4 0 97 0 0 0 109 77 0 2 2 1 97 6 5 2 1 1 110 1 78 \012ELSE[ ]	/* Else */\012NPUSHB[ ]	/* 35 values pushed */\0120 3 4 2 4 3 2 128 0 4 4 0 97 0 0 0 109 77 6 1 5 5 104 77 0 2 2 1 97 0 1 1 110 1 78 \012EIF[ ]	/* EndIf */\012NPUSHB[ ]	/* 14 values pushed */\0120 0 0 41 0 41 36 38 37 41 35 7 12 27 \012CALL[ ]	/* CallFunction */";
};
width = 1391;
}
);
leftKerningGroup = B;
note = uni1E9E;
rightKerningGroup = S;
unicode = 1E9E;
},
{
glyphname = Schwa;
lastChange = "2024-07-06 18:59:39 +0000";
layers = (
{
layerId = "9A547413-C347-4957-B455-92488FFEB499";
paths = (
{
closed = 1;
nodes = (
"877.333 -24 OFFCURVE",
"997.667 8.333 OFFCURVE",
"1101 73 CURVE SMOOTH",
"1204.333 137.667 OFFCURVE",
"1284.667 227.667 OFFCURVE",
"1342 343 CURVE SMOOTH",
"1399.333 458.333 OFFCURVE",
"1428 592 OFFCURVE",
"1428 744 CURVE SMOOTH",
"1428 900 OFFCURVE",
"1398 1035.667 OFFCURVE",
"1338 1151 CURVE SMOOTH",
"1278 1266.333 OFFCURVE",
"1195.833 1355.667 OFFCURVE",
"1091.5 1419 CURVE SMOOTH",
"987.167 1482.333 OFFCURVE",
"868.333 1514 OFFCURVE",
"735 1514 CURVE SMOOTH",
"623.667 1514 OFFCURVE",
"522 1492.167 OFFCURVE",
"430 1448.5 CURVE SMOOTH",
"338 1404.833 OFFCURVE",
"262.167 1344.167 OFFCURVE",
"202.5 1266.5 CURVE SMOOTH",
"172 1227 OFFCURVE",
"148 1185 OFFCURVE",
"129 1139 CURVE SMOOTH",
"95 1053 OFFCURVE",
"148 996 OFFCURVE",
"240 996 CURVE SMOOTH",
"322 996 OFFCURVE",
"361 1035 OFFCURVE",
"404 1107 CURVE SMOOTH",
"425 1142 OFFCURVE",
"453 1173 OFFCURVE",
"487 1199.5 CURVE SMOOTH",
"553 1251.167 OFFCURVE",
"634.667 1277 OFFCURVE",
"732 1277 CURVE SMOOTH",
"862.667 1277 OFFCURVE",
"965.667 1231.667 OFFCURVE",
"1041 1141 CURVE SMOOTH",
"1116.333 1050.333 OFFCURVE",
"1156.333 928.667 OFFCURVE",
"1161 776 CURVE",
"224 776 LINE SMOOTH",
"132 776 OFFCURVE",
"82 726 OFFCURVE",
"82 634 CURVE SMOOTH",
"82 596 LINE SMOOTH",
"82 475.333 OFFCURVE",
"110.667 368.333 OFFCURVE",
"168 275 CURVE SMOOTH",
"225.333 181.667 OFFCURVE",
"303.667 108.5 OFFCURVE",
"403 55.5 CURVE SMOOTH",
"502.333 2.5 OFFCURVE",
"614.667 -24 OFFCURVE",
"740 -24 CURVE SMOOTH"
);
},
{
closed = 1;
nodes = (
"1120 456.333 OFFCURVE",
"1073.167 369.667 OFFCURVE",
"1003.5 307 CURVE SMOOTH",
"933.833 244.333 OFFCURVE",
"845 213 OFFCURVE",
"737 213 CURVE SMOOTH",
"663.667 213 OFFCURVE",
"597.333 227.833 OFFCURVE",
"538 257.5 CURVE SMOOTH",
"478.667 287.167 OFFCURVE",
"431.333 328.667 OFFCURVE",
"396 382 CURVE SMOOTH",
"360.667 435.333 OFFCURVE",
"342.667 497 OFFCURVE",
"342 567 CURVE",
"1144 567 LINE"
);
}
);
userData = {
assembly = "MPPEM[ ]	/* MeasurePixelPerEm */\012PUSHB[ ]	/* 1 value pushed */\01250 \012LT[ ]	/* LessThan */\012IF[ ]	/* If */\012NPUSHB[ ]	/* 38 values pushed */\0120 3 2 1 2 3 1 128 0 1 0 5 6 1 5 103 0 2 2 4 97 0 4 4 109 77 0 6 6 0 97 7 1 0 0 110 0 78 \012ELSE[ ]	/* Else */\012NPUSHB[ ]	/* 36 values pushed */\0120 3 2 1 2 3 1 128 0 4 0 2 3 4 2 105 0 1 0 5 6 1 5 103 0 6 6 0 97 7 1 0 0 110 0 78 \012EIF[ ]	/* EndIf */\012NPUSHB[ ]	/* 21 values pushed */\0121 0 31 29 26 25 18 16 13 12 10 8 6 5 0 24 1 24 8 12 22 \012CALL[ ]	/* CallFunction */";
};
width = 1500;
}
);
note = uni018F;
unicode = 018F;
},
{
glyphname = T;
lastChange = "2024-07-06 18:59:39 +0000";
layers = (
{
layerId = "9A547413-C347-4957-B455-92488FFEB499";
paths = (
{
closed = 1;
nodes = (
"46 1301 OFFCURVE",
"96 1261 OFFCURVE",
"188 1261 CURVE SMOOTH",
"510 1261 LINE",
"510 142 LINE SMOOTH",
"510 50 OFFCURVE",
"557 0 OFFCURVE",
"643 0 CURVE SMOOTH",
"729 0 OFFCURVE",
"775 50 OFFCURVE",
"775 142 CURVE SMOOTH",
"775 1261 LINE",
"1095 1261 LINE SMOOTH",
"1187 1261 OFFCURVE",
"1237 1302 OFFCURVE",
"1237 1376 CURVE SMOOTH",
"1237 1450 OFFCURVE",
"1187 1490 OFFCURVE",
"1095 1490 CURVE SMOOTH",
"188 1490 LINE SMOOTH",
"96 1490 OFFCURVE",
"46 1450 OFFCURVE",
"46 1376 CURVE SMOOTH"
);
}
);
userData = {
assembly = "NPUSHB[ ]	/* 30 values pushed */\0124 3 2 1 1 0 95 0 0 0 103 77 0 2 2 104 2 78 0 0 0 7 0 7 17 17 17 5 12 25 \012CALL[ ]	/* CallFunction */";
};
width = 1284;
}
);
leftKerningGroup = "Kabashkir-cy";
note = T;
rightKerningGroup = "Enghe-cy";
unicode = 0054;
},
{
glyphname = Tdiagonalstroke;
lastChange = "2024-07-06 18:59:39 +0000";
layers = (
{
layerId = "9A547413-C347-4957-B455-92488FFEB499";
paths = (
{
closed = 1;
nodes = (
"325 -209 OFFCURVE",
"365 -175 OFFCURVE",
"395 -98 CURVE SMOOTH",
"510 197 LINE",
"510 99 LINE SMOOTH",
"510 35 OFFCURVE",
"557 0 OFFCURVE",
"643 0 CURVE SMOOTH",
"729 0 OFFCURVE",
"775 50 OFFCURVE",
"775 142 CURVE SMOOTH",
"775 872 LINE",
"928 1261 LINE",
"1095 1261 LINE SMOOTH",
"1187 1261 OFFCURVE",
"1237 1302 OFFCURVE",
"1237 1376 CURVE SMOOTH",
"1237 1450 OFFCURVE",
"1187 1490 OFFCURVE",
"1095 1490 CURVE SMOOTH",
"1018 1490 LINE",
"1059 1595 LINE SMOOTH",
"1084 1658 OFFCURVE",
"1067 1699 OFFCURVE",
"1018 1699 CURVE SMOOTH",
"962 1699 OFFCURVE",
"922 1665 OFFCURVE",
"892 1588 CURVE SMOOTH",
"854 1490 LINE",
"188 1490 LINE SMOOTH",
"96 1490 OFFCURVE",
"46 1450 OFFCURVE",
"46 1376 CURVE SMOOTH",
"46 1302 OFFCURVE",
"96 1261 OFFCURVE",
"188 1261 CURVE SMOOTH",
"510 1261 LINE",
"510 614 LINE",
"251 -45 LINE SMOOTH",
"212 -144 OFFCURVE",
"220 -209 OFFCURVE",
"269 -209 CURVE SMOOTH"
);
}
);
userData = {
assembly = "PUSHB[ ]	/* 8 values pushed */\01215 12 1 3 5 0 1 76 \012MPPEM[ ]	/* MeasurePixelPerEm */\012PUSHB[ ]	/* 1 value pushed */\01212 \012LT[ ]	/* LessThan */\012IF[ ]	/* If */\012NPUSHB[ ]	/* 30 values pushed */\0120 2 1 1 2 112 7 1 6 5 6 134 4 1 0 0 1 95 3 1 1 1 103 77 0 5 5 104 5 78 \012ELSE[ ]	/* Else */\012NPUSHB[ ]	/* 29 values pushed */\0120 2 1 2 133 7 1 6 5 6 134 4 1 0 0 1 95 3 1 1 1 103 77 0 5 5 104 5 78 \012EIF[ ]	/* EndIf */\012NPUSHB[ ]	/* 15 values pushed */\0120 0 0 16 0 16 18 17 17 17 17 18 8 12 28 \012CALL[ ]	/* CallFunction */";
};
width = 1284;
}
);
leftKerningGroup = "Kabashkir-cy";
note = uni023E;
rightKerningGroup = "Enghe-cy";
unicode = 023E;
},
{
glyphname = Thook;
lastChange = "2024-07-06 18:59:39 +0000";
layers = (
{
layerId = "9A547413-C347-4957-B455-92488FFEB499";
paths = (
{
closed = 1;
nodes = (
"69 1180 LINE SMOOTH",
"69 1088 OFFCURVE",
"113 1038 OFFCURVE",
"194 1038 CURVE SMOOTH",
"275 1038 OFFCURVE",
"318 1087 OFFCURVE",
"318 1177 CURVE SMOOTH",
"318 1235.667 OFFCURVE",
"351.333 1265 OFFCURVE",
"418 1265 CURVE SMOOTH",
"509 1265 LINE",
"509 1262 OFFCURVE",
"533 1261 OFFCURVE",
"576 1261 CURVE",
"576 142 LINE SMOOTH",
"576 50 OFFCURVE",
"623 0 OFFCURVE",
"708 0 CURVE SMOOTH",
"793 0 OFFCURVE",
"840 50 OFFCURVE",
"840 142 CURVE SMOOTH",
"840 1261 LINE",
"1159 1261 LINE SMOOTH",
"1251 1261 OFFCURVE",
"1301 1302 OFFCURVE",
"1301 1376 CURVE SMOOTH",
"1301 1450 OFFCURVE",
"1251 1490 OFFCURVE",
"1159 1490 CURVE SMOOTH",
"364 1490 LINE SMOOTH",
"266.667 1490 OFFCURVE",
"193.167 1464.5 OFFCURVE",
"143.5 1413.5 CURVE SMOOTH",
"93.833 1362.5 OFFCURVE",
"69 1291 OFFCURVE",
"69 1199 CURVE SMOOTH"
);
}
);
userData = {
assembly = "MPPEM[ ]	/* MeasurePixelPerEm */\012PUSHB[ ]	/* 1 value pushed */\01211 \012LT[ ]	/* LessThan */\012IF[ ]	/* If */\012NPUSHB[ ]	/* 25 values pushed */\0125 1 4 1 2 1 4 114 3 1 1 1 0 95 0 0 0 103 77 0 2 2 104 2 78 \012ELSE[ ]	/* Else */\012NPUSHB[ ]	/* 26 values pushed */\0125 1 4 1 2 1 4 2 128 3 1 1 1 0 95 0 0 0 103 77 0 2 2 104 2 78 \012EIF[ ]	/* EndIf */\012NPUSHB[ ]	/* 13 values pushed */\0120 0 0 16 0 16 65 17 17 35 6 12 26 \012CALL[ ]	/* CallFunction */";
};
width = 1348;
}
);
leftKerningGroup = "Kabashkir-cy";
note = uni01AC;
rightKerningGroup = "Enghe-cy";
unicode = 01AC;
},
{
glyphname = Tonefive;
lastChange = "2024-07-06 18:59:39 +0000";
layers = (
{
layerId = "9A547413-C347-4957-B455-92488FFEB499";
paths = (
{
closed = 1;
nodes = (
"791.667 -21 OFFCURVE",
"885 1 OFFCURVE",
"965 45 CURVE SMOOTH",
"1045 89 OFFCURVE",
"1107.333 150.167 OFFCURVE",
"1152 228.5 CURVE SMOOTH",
"1196.667 306.833 OFFCURVE",
"1219 396.667 OFFCURVE",
"1219 498 CURVE SMOOTH",
"1219 594.667 OFFCURVE",
"1197.5 681.167 OFFCURVE",
"1154.5 757.5 CURVE SMOOTH",
"1111.5 833.833 OFFCURVE",
"1053.667 894 OFFCURVE",
"981 938 CURVE SMOOTH",
"908.333 982 OFFCURVE",
"827 1004 OFFCURVE",
"737 1004 CURVE SMOOTH",
"605.667 1004 OFFCURVE",
"499.333 961 OFFCURVE",
"418 875 CURVE",
"416 875 LINE",
"446 1271 LINE",
"991 1271 LINE SMOOTH",
"1083 1271 OFFCURVE",
"1133 1310 OFFCURVE",
"1133 1381 CURVE SMOOTH",
"1133 1452 OFFCURVE",
"1083 1490 OFFCURVE",
"991 1490 CURVE SMOOTH",
"188 1490 LINE SMOOTH",
"96 1490 OFFCURVE",
"46 1451 OFFCURVE",
"46 1381 CURVE SMOOTH",
"46 1310 OFFCURVE",
"96 1271 OFFCURVE",
"188 1271 CURVE SMOOTH",
"198 1271 LINE",
"171 772 LINE SMOOTH",
"166 678 OFFCURVE",
"211 626 OFFCURVE",
"296 626 CURVE SMOOTH",
"373 626 OFFCURVE",
"411 664 OFFCURVE",
"468 719 CURVE SMOOTH",
"481 731 OFFCURVE",
"495 741 OFFCURVE",
"511.5 750.5 CURVE SMOOTH",
"561.833 779.5 OFFCURVE",
"622.667 794 OFFCURVE",
"694 794 CURVE SMOOTH",
"774.667 794 OFFCURVE",
"840.333 765.667 OFFCURVE",
"891 709 CURVE SMOOTH",
"941.667 652.333 OFFCURVE",
"967 580 OFFCURVE",
"967 492 CURVE SMOOTH",
"967 404 OFFCURVE",
"941 331.833 OFFCURVE",
"889 275.5 CURVE SMOOTH",
"837 219.167 OFFCURVE",
"769.333 191 OFFCURVE",
"686 191 CURVE SMOOTH",
"606 191 OFFCURVE",
"539.167 215.333 OFFCURVE",
"485.5 264 CURVE SMOOTH",
"458 289 OFFCURVE",
"438 316 OFFCURVE",
"423 348 CURVE SMOOTH",
"392 414 OFFCURVE",
"356 449 OFFCURVE",
"273 449 CURVE SMOOTH",
"270 449 LINE SMOOTH",
"191 449 OFFCURVE",
"139 389 OFFCURVE",
"174 295 CURVE SMOOTH",
"186 263 OFFCURVE",
"202 233 OFFCURVE",
"221 204 CURVE SMOOTH",
"268.333 133.333 OFFCURVE",
"331.833 78.167 OFFCURVE",
"411.5 38.5 CURVE SMOOTH",
"491.167 -1.167 OFFCURVE",
"582.333 -21 OFFCURVE",
"685 -21 CURVE SMOOTH"
);
}
);
userData = {
assembly = "NPUSHB[ ]	/* 77 values pushed */\01225 1 3 8 1 76 0 4 3 1 3 4 1 128 0 1 2 3 1 2 126 0 8 0 3 4 8 3 105 7 1 5 5 6 95 0 6 6 103 77 0 2 2 0 97 9 1 0 0 110 0 78 1 0 29 27 24 23 22 21 20 19 18 17 15 13 9 7 5 4 0 35 1 35 10 12 22 \012CALL[ ]	/* CallFunction */";
};
width = 1291;
}
);
note = uni01BC;
unicode = 01BC;
},
{
glyphname = Tonesix;
lastChange = "2024-07-06 18:59:39 +0000";
layers = (
{
layerId = "9A547413-C347-4957-B455-92488FFEB499";
paths = (
{
closed = 1;
nodes = (
"614 909 LINE",
"614 1348 LINE SMOOTH",
"614 1440 OFFCURVE",
"564 1490 OFFCURVE",
"472 1490 CURVE SMOOTH",
"139 1490 LINE SMOOTH",
"47 1490 OFFCURVE",
"-3 1451 OFFCURVE",
"-3 1380 CURVE SMOOTH",
"-3 1309 OFFCURVE",
"47 1270 OFFCURVE",
"139 1270 CURVE SMOOTH",
"353 1270 LINE",
"353 142 LINE SMOOTH",
"353 50 OFFCURVE",
"403 0 OFFCURVE",
"495 0 CURVE SMOOTH",
"910 0 LINE SMOOTH",
"1023.333 0 OFFCURVE",
"1120.333 19.5 OFFCURVE",
"1201 58.5 CURVE SMOOTH",
"1281.667 97.5 OFFCURVE",
"1343.5 151.667 OFFCURVE",
"1386.5 221 CURVE SMOOTH",
"1429.5 290.333 OFFCURVE",
"1451 370.667 OFFCURVE",
"1451 462 CURVE SMOOTH",
"1451 598 OFFCURVE",
"1403.333 706.5 OFFCURVE",
"1308 787.5 CURVE SMOOTH",
"1212.667 868.5 OFFCURVE",
"1080 909 OFFCURVE",
"910 909 CURVE SMOOTH"
);
},
{
closed = 1;
nodes = (
"614 695 LINE",
"910 695 LINE SMOOTH",
"1001.333 695 OFFCURVE",
"1071.667 672.5 OFFCURVE",
"1121 627.5 CURVE SMOOTH",
"1170.333 582.5 OFFCURVE",
"1195 528 OFFCURVE",
"1195 464 CURVE SMOOTH",
"1195 398.667 OFFCURVE",
"1170.333 340.833 OFFCURVE",
"1121 290.5 CURVE SMOOTH",
"1071.667 240.167 OFFCURVE",
"1001.333 215.333 OFFCURVE",
"910 216 CURVE SMOOTH",
"614 216 LINE"
);
}
);
userData = {
assembly = "NPUSHB[ ]	/* 44 values pushed */\0120 0 6 1 5 4 0 5 103 0 2 2 3 95 0 3 3 103 77 0 4 4 1 95 0 1 1 104 1 78 14 14 14 22 14 21 34 17 17 37 32 7 12 27 \012CALL[ ]	/* CallFunction */";
};
width = 1497;
}
);
note = uni0184;
unicode = 0184;
},
{
glyphname = Tonetwo;
lastChange = "2024-07-06 18:59:39 +0000";
layers = (
{
layerId = "9A547413-C347-4957-B455-92488FFEB499";
paths = (
{
closed = 1;
nodes = (
"831.667 -24 OFFCURVE",
"976.167 21.167 OFFCURVE",
"1080.5 111.5 CURVE SMOOTH",
"1150 171 OFFCURVE",
"1196 246 OFFCURVE",
"1219 336 CURVE SMOOTH",
"1243 430 OFFCURVE",
"1189 486 OFFCURVE",
"1106 486 CURVE SMOOTH",
"1021 486 OFFCURVE",
"988 442 OFFCURVE",
"953 361 CURVE SMOOTH",
"938 328 OFFCURVE",
"916 299 OFFCURVE",
"888.5 275 CURVE SMOOTH",
"830.167 224.333 OFFCURVE",
"749 199 OFFCURVE",
"645 199 CURVE SMOOTH",
"552.333 199 OFFCURVE",
"477.667 218.5 OFFCURVE",
"421 257.5 CURVE SMOOTH",
"364.333 296.5 OFFCURVE",
"336 348.667 OFFCURVE",
"336 414 CURVE SMOOTH",
"336 466.667 OFFCURVE",
"357.333 509.5 OFFCURVE",
"400 542.5 CURVE SMOOTH",
"442.667 575.5 OFFCURVE",
"513.667 603.333 OFFCURVE",
"613 626 CURVE SMOOTH",
"773 662 LINE SMOOTH",
"922.333 696 OFFCURVE",
"1032.167 746.333 OFFCURVE",
"1102.5 813 CURVE SMOOTH",
"1172.833 879.667 OFFCURVE",
"1208 965.333 OFFCURVE",
"1208 1070 CURVE SMOOTH",
"1208 1158.667 OFFCURVE",
"1185.167 1236.333 OFFCURVE",
"1139.5 1303 CURVE SMOOTH",
"1093.833 1369.667 OFFCURVE",
"1029.833 1421.5 OFFCURVE",
"947.5 1458.5 CURVE SMOOTH",
"865.167 1495.5 OFFCURVE",
"769.333 1514 OFFCURVE",
"660 1514 CURVE SMOOTH",
"494 1514 OFFCURVE",
"362.167 1471.667 OFFCURVE",
"264.5 1387 CURVE SMOOTH",
"203 1334 OFFCURVE",
"160 1268 OFFCURVE",
"136 1190 CURVE SMOOTH",
"106 1096 OFFCURVE",
"158 1038 OFFCURVE",
"238 1038 CURVE SMOOTH",
"322 1038 OFFCURVE",
"354 1081 OFFCURVE",
"395 1157 CURVE SMOOTH",
"409 1182 OFFCURVE",
"427 1204 OFFCURVE",
"450 1223 CURVE SMOOTH",
"503.333 1267.667 OFFCURVE",
"573.667 1290 OFFCURVE",
"661 1290 CURVE SMOOTH",
"743.667 1290 OFFCURVE",
"811.5 1270.667 OFFCURVE",
"864.5 1232 CURVE SMOOTH",
"917.5 1193.333 OFFCURVE",
"944 1143.667 OFFCURVE",
"944 1083 CURVE SMOOTH",
"944 1033 OFFCURVE",
"923 992.5 OFFCURVE",
"881 961.5 CURVE SMOOTH",
"839 930.5 OFFCURVE",
"769.333 904 OFFCURVE",
"672 882 CURVE SMOOTH",
"521 847 LINE SMOOTH",
"366.333 813 OFFCURVE",
"253 762.333 OFFCURVE",
"181 695 CURVE SMOOTH",
"109 627.667 OFFCURVE",
"73 539.333 OFFCURVE",
"73 430 CURVE SMOOTH",
"73 337.333 OFFCURVE",
"96.333 257 OFFCURVE",
"143 189 CURVE SMOOTH",
"189.667 121 OFFCURVE",
"256 68.5 OFFCURVE",
"342 31.5 CURVE SMOOTH",
"428 -5.5 OFFCURVE",
"529.667 -24 OFFCURVE",
"647 -24 CURVE SMOOTH"
);
}
);
userData = {
assembly = "MPPEM[ ]	/* MeasurePixelPerEm */\012PUSHB[ ]	/* 1 value pushed */\01250 \012LT[ ]	/* LessThan */\012IF[ ]	/* If */\012NPUSHB[ ]	/* 37 values pushed */\0120 2 1 5 1 2 5 128 0 5 4 1 5 4 126 0 1 1 3 97 0 3 3 109 77 0 4 4 0 97 6 1 0 0 110 0 78 \012ELSE[ ]	/* Else */\012NPUSHB[ ]	/* 35 values pushed */\0120 2 1 5 1 2 5 128 0 5 4 1 5 4 126 0 3 0 1 2 3 1 105 0 4 4 0 97 6 1 0 0 110 0 78 \012EIF[ ]	/* EndIf */\012NPUSHB[ ]	/* 19 values pushed */\0121 0 39 38 36 34 22 20 18 17 15 13 0 41 1 41 7 12 22 \012CALL[ ]	/* CallFunction */";
};
width = 1310;
}
);
leftKerningGroup = S;
note = uni01A7;
rightKerningGroup = B;
unicode = 01A7;
},
{
glyphname = Tretroflexhook;
lastChange = "2024-07-06 18:59:39 +0000";
layers = (
{
layerId = "9A547413-C347-4957-B455-92488FFEB499";
paths = (
{
closed = 1;
nodes = (
"849 -418 LINE SMOOTH",
"941 -418 OFFCURVE",
"991 -381 OFFCURVE",
"991 -313 CURVE SMOOTH",
"991 -245 OFFCURVE",
"951 -207 OFFCURVE",
"878 -207 CURVE SMOOTH",
"840.667 -207 OFFCURVE",
"814.167 -199.5 OFFCURVE",
"798.5 -184.5 CURVE SMOOTH",
"782.833 -169.5 OFFCURVE",
"775 -145.333 OFFCURVE",
"775 -112 CURVE SMOOTH",
"775 1261 LINE",
"1095 1261 LINE SMOOTH",
"1187 1261 OFFCURVE",
"1237 1302 OFFCURVE",
"1237 1376 CURVE SMOOTH",
"1237 1450 OFFCURVE",
"1187 1490 OFFCURVE",
"1095 1490 CURVE SMOOTH",
"188 1490 LINE SMOOTH",
"96 1490 OFFCURVE",
"46 1450 OFFCURVE",
"46 1376 CURVE SMOOTH",
"46 1302 OFFCURVE",
"96 1261 OFFCURVE",
"188 1261 CURVE SMOOTH",
"510 1261 LINE",
"510 -122 LINE SMOOTH",
"510 -319.333 OFFCURVE",
"619 -418 OFFCURVE",
"837 -418 CURVE SMOOTH"
);
}
);
userData = {
assembly = "NPUSHB[ ]	/* 40 values pushed */\0123 1 1 1 2 95 0 2 2 103 77 0 4 4 0 95 5 1 0 0 108 0 78 1 0 13 11 8 7 6 5 4 3 0 14 1 14 6 12 22 \012CALL[ ]	/* CallFunction */";
};
width = 1284;
}
);
leftKerningGroup = "Kabashkir-cy";
note = Trthook;
rightKerningGroup = "Enghe-cy";
unicode = 01AE;
},
{
glyphname = U;
lastChange = "2024-07-06 18:59:39 +0000";
layers = (
{
layerId = "9A547413-C347-4957-B455-92488FFEB499";
paths = (
{
closed = 1;
nodes = (
"842.333 -24 OFFCURVE",
"948.167 -1.167 OFFCURVE",
"1038.5 44.5 CURVE SMOOTH",
"1128.833 90.167 OFFCURVE",
"1198.833 153.5 OFFCURVE",
"1248.5 234.5 CURVE SMOOTH",
"1298.167 315.5 OFFCURVE",
"1323 409 OFFCURVE",
"1323 515 CURVE SMOOTH",
"1323 1348 LINE SMOOTH",
"1323 1440 OFFCURVE",
"1277 1490 OFFCURVE",
"1193 1490 CURVE SMOOTH",
"1109 1490 OFFCURVE",
"1062 1440 OFFCURVE",
"1062 1348 CURVE SMOOTH",
"1062 536 LINE SMOOTH",
"1062 441.333 OFFCURVE",
"1031.333 363.333 OFFCURVE",
"970 302 CURVE SMOOTH",
"908.667 240.667 OFFCURVE",
"825.667 210 OFFCURVE",
"721 210 CURVE SMOOTH",
"616.333 210 OFFCURVE",
"533.167 240.667 OFFCURVE",
"471.5 302 CURVE SMOOTH",
"409.833 363.333 OFFCURVE",
"379 441.333 OFFCURVE",
"379 536 CURVE SMOOTH",
"379 1348 LINE SMOOTH",
"379 1440 OFFCURVE",
"333 1490 OFFCURVE",
"249 1490 CURVE SMOOTH",
"165 1490 OFFCURVE",
"118 1440 OFFCURVE",
"118 1348 CURVE SMOOTH",
"118 515 LINE SMOOTH",
"118 409 OFFCURVE",
"142.833 315.5 OFFCURVE",
"192.5 234.5 CURVE SMOOTH",
"242.167 153.5 OFFCURVE",
"312.167 90.167 OFFCURVE",
"402.5 44.5 CURVE SMOOTH",
"492.833 -1.167 OFFCURVE",
"599 -24 OFFCURVE",
"721 -24 CURVE SMOOTH"
);
}
);
userData = {
assembly = "NPUSHB[ ]	/* 33 values pushed */\0123 1 1 1 103 77 0 2 2 0 97 4 1 0 0 110 0 78 1 0 15 14 11 9 6 5 0 19 1 19 5 12 22 \012CALL[ ]	/* CallFunction */";
};
width = 1441;
}
);
leftKerningGroup = U;
note = U;
rightKerningGroup = J;
unicode = 0055;
},
{
glyphname = Ubar;
lastChange = "2024-07-06 18:59:39 +0000";
layers = (
{
layerId = "9A547413-C347-4957-B455-92488FFEB499";
paths = (
{
closed = 1;
nodes = (
"1523 826 OFFCURVE",
"1473 853 OFFCURVE",
"1381 853 CURVE SMOOTH",
"1345 853 LINE",
"1345 1348 LINE SMOOTH",
"1345 1440 OFFCURVE",
"1299 1490 OFFCURVE",
"1215 1490 CURVE SMOOTH",
"1131 1490 OFFCURVE",
"1085 1440 OFFCURVE",
"1085 1348 CURVE SMOOTH",
"1085 853 LINE",
"401 853 LINE",
"401 1348 LINE SMOOTH",
"401 1440 OFFCURVE",
"355 1490 OFFCURVE",
"271 1490 CURVE SMOOTH",
"187 1490 OFFCURVE",
"141 1440 OFFCURVE",
"141 1348 CURVE SMOOTH",
"141 853 LINE",
"54 853 LINE SMOOTH",
"-2 853 OFFCURVE",
"-34 825 OFFCURVE",
"-34 775 CURVE SMOOTH",
"-34 725 OFFCURVE",
"16 697 OFFCURVE",
"108 697 CURVE SMOOTH",
"141 697 LINE",
"141 515 LINE SMOOTH",
"141 409 OFFCURVE",
"165.833 315.5 OFFCURVE",
"215.5 234.5 CURVE SMOOTH",
"265.167 153.5 OFFCURVE",
"335.167 90.167 OFFCURVE",
"425.5 44.5 CURVE SMOOTH",
"515.833 -1.167 OFFCURVE",
"621.667 -24 OFFCURVE",
"743 -24 CURVE SMOOTH",
"864.333 -24 OFFCURVE",
"970.167 -1.167 OFFCURVE",
"1060.5 44.5 CURVE SMOOTH",
"1150.833 90.167 OFFCURVE",
"1220.833 153.5 OFFCURVE",
"1270.5 234.5 CURVE SMOOTH",
"1320.167 315.5 OFFCURVE",
"1345 409 OFFCURVE",
"1345 515 CURVE SMOOTH",
"1345 697 LINE",
"1434 697 LINE SMOOTH",
"1491 697 OFFCURVE",
"1523 725 OFFCURVE",
"1523 775 CURVE SMOOTH"
);
},
{
closed = 1;
nodes = (
"1085 697 LINE",
"1085 536 LINE SMOOTH",
"1085 441.333 OFFCURVE",
"1054.167 363.333 OFFCURVE",
"992.5 302 CURVE SMOOTH",
"930.833 240.667 OFFCURVE",
"847.667 210 OFFCURVE",
"743 210 CURVE SMOOTH",
"638.333 210 OFFCURVE",
"555.167 240.667 OFFCURVE",
"493.5 302 CURVE SMOOTH",
"431.833 363.333 OFFCURVE",
"401 441.333 OFFCURVE",
"401 536 CURVE SMOOTH",
"401 697 LINE"
);
}
);
userData = {
assembly = "NPUSHB[ ]	/* 50 values pushed */\01210 7 5 3 3 8 2 2 0 9 3 0 103 6 1 4 4 103 77 0 9 9 1 97 0 1 1 110 1 78 0 0 29 27 24 23 0 22 0 22 17 17 17 17 20 36 17 11 12 29 \012CALL[ ]	/* CallFunction */";
};
width = 1489;
}
);
leftKerningGroup = U;
note = uni0244;
rightKerningGroup = J;
unicode = 0244;
},
{
glyphname = Uhorn;
lastChange = "2024-07-06 18:59:39 +0000";
layers = (
{
layerId = "9A547413-C347-4957-B455-92488FFEB499";
paths = (
{
closed = 1;
nodes = (
"842.333 -24 OFFCURVE",
"948.167 -1.167 OFFCURVE",
"1038.5 44.5 CURVE SMOOTH",
"1128.833 90.167 OFFCURVE",
"1198.833 153.5 OFFCURVE",
"1248.5 234.5 CURVE SMOOTH",
"1298.167 315.5 OFFCURVE",
"1323 409 OFFCURVE",
"1323 515 CURVE SMOOTH",
"1323 1318 LINE",
"1377 1322.667 OFFCURVE",
"1419.167 1340 OFFCURVE",
"1449.5 1370 CURVE SMOOTH",
"1479.833 1400 OFFCURVE",
"1495 1444 OFFCURVE",
"1495 1502 CURVE SMOOTH",
"1495 1588 LINE SMOOTH",
"1495 1680 OFFCURVE",
"1454 1730 OFFCURVE",
"1378 1730 CURVE SMOOTH",
"1302 1730 OFFCURVE",
"1261 1680 OFFCURVE",
"1261 1588 CURVE SMOOTH",
"1261 1513 LINE SMOOTH",
"1261 1497.667 OFFCURVE",
"1253.333 1490 OFFCURVE",
"1238 1490 CURVE SMOOTH",
"1204 1490 LINE SMOOTH",
"1112 1490 OFFCURVE",
"1062 1440 OFFCURVE",
"1062 1348 CURVE SMOOTH",
"1062 536 LINE SMOOTH",
"1062 441.333 OFFCURVE",
"1031.333 363.333 OFFCURVE",
"970 302 CURVE SMOOTH",
"908.667 240.667 OFFCURVE",
"825.667 210 OFFCURVE",
"721 210 CURVE SMOOTH",
"616.333 210 OFFCURVE",
"533.167 240.667 OFFCURVE",
"471.5 302 CURVE SMOOTH",
"409.833 363.333 OFFCURVE",
"379 441.333 OFFCURVE",
"379 536 CURVE SMOOTH",
"379 1348 LINE SMOOTH",
"379 1440 OFFCURVE",
"333 1490 OFFCURVE",
"249 1490 CURVE SMOOTH",
"165 1490 OFFCURVE",
"118 1440 OFFCURVE",
"118 1348 CURVE SMOOTH",
"118 515 LINE SMOOTH",
"118 409 OFFCURVE",
"142.833 315.5 OFFCURVE",
"192.5 234.5 CURVE SMOOTH",
"242.167 153.5 OFFCURVE",
"312.167 90.167 OFFCURVE",
"402.5 44.5 CURVE SMOOTH",
"492.833 -1.167 OFFCURVE",
"599 -24 OFFCURVE",
"721 -24 CURVE SMOOTH"
);
}
);
userData = {
assembly = "NPUSHB[ ]	/* 46 values pushed */\01223 1 2 1 1 76 0 4 1 4 133 3 1 1 1 103 77 0 2 2 0 97 5 1 0 0 110 0 78 1 0 19 18 16 14 11 9 6 5 0 27 1 27 6 12 22 \012CALL[ ]	/* CallFunction */";
};
width = 1441;
}
);
leftKerningGroup = U;
note = Uhorn;
rightKerningGroup = Uhorn;
unicode = 01AF;
},
{
glyphname = "Upsilon-latin";
lastChange = "2024-07-06 18:59:39 +0000";
layers = (
{
layerId = "9A547413-C347-4957-B455-92488FFEB499";
paths = (
{
closed = 1;
nodes = (
"78 551.333 OFFCURVE",
"107.333 428.667 OFFCURVE",
"166 322 CURVE SMOOTH",
"224.667 215.333 OFFCURVE",
"305.667 131.667 OFFCURVE",
"409 71 CURVE SMOOTH",
"512.333 10.333 OFFCURVE",
"630.667 -20 OFFCURVE",
"764 -20 CURVE SMOOTH",
"897.333 -20 OFFCURVE",
"1015.667 10.333 OFFCURVE",
"1119 71 CURVE SMOOTH",
"1222.333 131.667 OFFCURVE",
"1303.333 215.333 OFFCURVE",
"1362 322 CURVE SMOOTH",
"1420.667 428.667 OFFCURVE",
"1450 551.333 OFFCURVE",
"1450 690 CURVE SMOOTH",
"1450 821.333 OFFCURVE",
"1423.833 934.667 OFFCURVE",
"1371.5 1030 CURVE SMOOTH",
"1319.167 1125.333 OFFCURVE",
"1248 1201.333 OFFCURVE",
"1158 1258 CURVE",
"1158 1270 LINE",
"1308 1270 LINE SMOOTH",
"1400 1270 OFFCURVE",
"1450 1309 OFFCURVE",
"1450 1380 CURVE SMOOTH",
"1450 1451 OFFCURVE",
"1400 1490 OFFCURVE",
"1308 1490 CURVE SMOOTH",
"1026 1490 LINE SMOOTH",
"934 1490 OFFCURVE",
"884 1440 OFFCURVE",
"884 1348 CURVE SMOOTH",
"884 1326 LINE SMOOTH",
"884 1248 OFFCURVE",
"919 1204 OFFCURVE",
"981 1156 CURVE SMOOTH",
"1001 1140 OFFCURVE",
"1020 1123 OFFCURVE",
"1038.5 1103.5 CURVE SMOOTH",
"1084.833 1054.5 OFFCURVE",
"1121.5 996 OFFCURVE",
"1148.5 928 CURVE SMOOTH",
"1175.5 860 OFFCURVE",
"1189 785.667 OFFCURVE",
"1189 705 CURVE SMOOTH",
"1189 612.333 OFFCURVE",
"1170.833 529 OFFCURVE",
"1134.5 455 CURVE SMOOTH",
"1098.167 381 OFFCURVE",
"1048 322.5 OFFCURVE",
"984 279.5 CURVE SMOOTH",
"920 236.5 OFFCURVE",
"846.667 215 OFFCURVE",
"764 215 CURVE SMOOTH",
"680.667 215 OFFCURVE",
"607 236.5 OFFCURVE",
"543 279.5 CURVE SMOOTH",
"479 322.5 OFFCURVE",
"428.833 381 OFFCURVE",
"392.5 455 CURVE SMOOTH",
"356.167 529 OFFCURVE",
"338 612.333 OFFCURVE",
"338 705 CURVE SMOOTH",
"338 785.667 OFFCURVE",
"351.667 860 OFFCURVE",
"379 928 CURVE SMOOTH",
"406.333 996 OFFCURVE",
"443.167 1054.5 OFFCURVE",
"489.5 1103.5 CURVE SMOOTH",
"512 1127 OFFCURVE",
"536 1148 OFFCURVE",
"561 1166 CURVE SMOOTH",
"615 1205 OFFCURVE",
"644 1248 OFFCURVE",
"644 1326 CURVE SMOOTH",
"644 1352 LINE SMOOTH",
"644 1442 OFFCURVE",
"594 1490 OFFCURVE",
"502 1490 CURVE SMOOTH",
"220 1490 LINE SMOOTH",
"128 1490 OFFCURVE",
"78 1451 OFFCURVE",
"78 1380 CURVE SMOOTH",
"78 1309 OFFCURVE",
"128 1270 OFFCURVE",
"220 1270 CURVE SMOOTH",
"370 1270 LINE",
"370 1258 LINE",
"280 1200.667 OFFCURVE",
"208.833 1124.5 OFFCURVE",
"156.5 1029.5 CURVE SMOOTH",
"104.167 934.5 OFFCURVE",
"78 821.333 OFFCURVE",
"78 690 CURVE SMOOTH"
);
}
);
userData = {
assembly = "NPUSHB[ ]	/* 39 values pushed */\01224 8 2 2 0 1 76 4 1 0 0 1 95 3 1 1 1 103 77 0 2 2 5 97 0 5 5 110 5 78 39 17 24 40 17 35 6 12 28 \012CALL[ ]	/* CallFunction */";
};
width = 1528;
}
);
note = Upsilon2;
unicode = 01B1;
},
{
glyphname = V;
lastChange = "2024-07-06 18:59:39 +0000";
layers = (
{
layerId = "9A547413-C347-4957-B455-92488FFEB499";
paths = (
{
closed = 1;
nodes = (
"752 0 LINE SMOOTH",
"834 0 OFFCURVE",
"887 37 OFFCURVE",
"914 115 CURVE SMOOTH",
"1339 1327 LINE SMOOTH",
"1373 1425 OFFCURVE",
"1332 1490 OFFCURVE",
"1235 1490 CURVE SMOOTH",
"1152 1490 OFFCURVE",
"1100 1453 OFFCURVE",
"1074 1374 CURVE SMOOTH",
"853 707 LINE",
"789 497.5 LINE SMOOTH",
"765.667 420.5 OFFCURVE",
"740 334.667 OFFCURVE",
"712 240 CURVE",
"633.5 497.5 LINE SMOOTH",
"609.833 574.5 OFFCURVE",
"588 644.333 OFFCURVE",
"568 707 CURVE SMOOTH",
"339 1375 LINE SMOOTH",
"312 1454 OFFCURVE",
"259 1490 OFFCURVE",
"177 1490 CURVE SMOOTH",
"156 1490 LINE SMOOTH",
"70 1490 OFFCURVE",
"36 1425 OFFCURVE",
"71 1327 CURVE SMOOTH",
"504 114 LINE SMOOTH",
"532 37 OFFCURVE",
"584 0 OFFCURVE",
"666 0 CURVE SMOOTH"
);
}
);
userData = {
assembly = "NPUSHB[ ]	/* 30 values pushed */\0126 1 2 0 1 76 1 1 0 0 103 77 3 1 2 2 104 2 78 0 0 0 12 0 12 24 17 4 12 24 \012CALL[ ]	/* CallFunction */";
};
width = 1409;
}
);
leftKerningGroup = V;
note = V;
rightKerningGroup = V;
unicode = 0056;
},
{
glyphname = "V-middleWelsh";
lastChange = "2024-07-06 18:59:39 +0000";
layers = (
{
layerId = "9A547413-C347-4957-B455-92488FFEB499";
paths = (
{
closed = 1;
nodes = (
"723 707 OFFCURVE",
"747 684 OFFCURVE",
"769 657 CURVE SMOOTH",
"812.333 603 OFFCURVE",
"834 531.333 OFFCURVE",
"834 442 CURVE SMOOTH",
"834 364 OFFCURVE",
"813.5 303.667 OFFCURVE",
"772.5 261 CURVE SMOOTH",
"731.5 218.333 OFFCURVE",
"675 197 OFFCURVE",
"603 197 CURVE SMOOTH",
"534.333 197 OFFCURVE",
"477.5 225.667 OFFCURVE",
"432.5 283 CURVE SMOOTH",
"387.5 340.333 OFFCURVE",
"365 422 OFFCURVE",
"365 528 CURVE SMOOTH",
"365 643 LINE SMOOTH",
"365 827.667 OFFCURVE",
"406 968.5 OFFCURVE",
"488 1065.5 CURVE SMOOTH",
"544 1132 OFFCURVE",
"616 1182 OFFCURVE",
"704 1216 CURVE SMOOTH",
"787 1248 OFFCURVE",
"828 1289 OFFCURVE",
"817 1360 CURVE SMOOTH",
"807 1429 OFFCURVE",
"748 1464 OFFCURVE",
"657 1438 CURVE SMOOTH",
"560 1410 OFFCURVE",
"476 1370 OFFCURVE",
"405 1317.5 CURVE SMOOTH",
"300.333 1240.5 OFFCURVE",
"222 1142.167 OFFCURVE",
"170 1022.5 CURVE SMOOTH",
"118 902.833 OFFCURVE",
"92 767 OFFCURVE",
"92 615 CURVE SMOOTH",
"92 556 LINE SMOOTH",
"92 449.333 OFFCURVE",
"112.333 352.5 OFFCURVE",
"153 265.5 CURVE SMOOTH",
"193.667 178.5 OFFCURVE",
"252.5 109.167 OFFCURVE",
"329.5 57.5 CURVE SMOOTH",
"406.5 5.833 OFFCURVE",
"499 -20 OFFCURVE",
"607 -20 CURVE SMOOTH",
"761.667 -20 OFFCURVE",
"882.667 22.667 OFFCURVE",
"970 108 CURVE SMOOTH",
"1057.333 193.333 OFFCURVE",
"1101 310.667 OFFCURVE",
"1101 460 CURVE SMOOTH",
"1101 541.333 OFFCURVE",
"1084 616.333 OFFCURVE",
"1050 685 CURVE SMOOTH",
"1016 753.667 OFFCURVE",
"969.667 812.667 OFFCURVE",
"911 862 CURVE SMOOTH",
"882 887 OFFCURVE",
"850 909 OFFCURVE",
"817 927 CURVE SMOOTH",
"751 964 OFFCURVE",
"694 941 OFFCURVE",
"660 876 CURVE SMOOTH",
"626 811 OFFCURVE",
"643 768 OFFCURVE",
"696 727 CURVE SMOOTH"
);
}
);
userData = {
assembly = "NPUSHB[ ]	/* 22 values pushed */\01218 17 1 3 1 74 0 1 1 0 97 0 0 0 110 0 78 47 39 2 12 24 \012CALL[ ]	/* CallFunction */";
};
width = 1192;
}
);
note = uni1EFC;
unicode = 1EFC;
},
{
glyphname = "Gamma-latin";
lastChange = "2024-07-06 18:59:39 +0000";
layers = (
{
layerId = "9A547413-C347-4957-B455-92488FFEB499";
paths = (
{
closed = 1;
nodes = (
"93 1490 OFFCURVE",
"54 1422 OFFCURVE",
"100 1323 CURVE SMOOTH",
"560 341 LINE",
"441 77.5 LINE SMOOTH",
"411.667 12.5 OFFCURVE",
"390.667 -39 OFFCURVE",
"378 -77 CURVE SMOOTH",
"365.333 -115 OFFCURVE",
"359 -148.333 OFFCURVE",
"359 -177 CURVE SMOOTH",
"359 -261 OFFCURVE",
"389 -326.167 OFFCURVE",
"449 -372.5 CURVE SMOOTH",
"509 -418.833 OFFCURVE",
"589.333 -442 OFFCURVE",
"690 -442 CURVE SMOOTH",
"790 -442 OFFCURVE",
"869.333 -418.5 OFFCURVE",
"928 -371.5 CURVE SMOOTH",
"986.667 -324.5 OFFCURVE",
"1016 -261 OFFCURVE",
"1016 -181 CURVE SMOOTH",
"1016 -134.333 OFFCURVE",
"998.833 -70.333 OFFCURVE",
"964.5 11 CURVE SMOOTH",
"930.167 92.333 OFFCURVE",
"882 200.667 OFFCURVE",
"820 336 CURVE",
"1279 1323 LINE SMOOTH",
"1325 1422 OFFCURVE",
"1285 1490 OFFCURVE",
"1181 1490 CURVE SMOOTH",
"1101 1490 OFFCURVE",
"1048 1456 OFFCURVE",
"1016 1382 CURVE SMOOTH",
"689 633 LINE",
"362 1382 LINE SMOOTH",
"330 1456 OFFCURVE",
"277 1490 OFFCURVE",
"197 1490 CURVE SMOOTH"
);
},
{
closed = 1;
nodes = (
"713 6.667 OFFCURVE",
"730.167 -37.167 OFFCURVE",
"742.5 -73.5 CURVE SMOOTH",
"754.833 -109.833 OFFCURVE",
"761 -141.333 OFFCURVE",
"761 -168 CURVE SMOOTH",
"761 -190.667 OFFCURVE",
"754.5 -209.333 OFFCURVE",
"741.5 -224 CURVE SMOOTH",
"728.5 -238.667 OFFCURVE",
"711.333 -246 OFFCURVE",
"690 -246 CURVE SMOOTH",
"668 -246 OFFCURVE",
"650.667 -239 OFFCURVE",
"638 -225 CURVE SMOOTH",
"625.333 -211 OFFCURVE",
"619 -192.333 OFFCURVE",
"619 -169 CURVE SMOOTH",
"619 -142.333 OFFCURVE",
"625.333 -110.5 OFFCURVE",
"638 -73.5 CURVE SMOOTH",
"650.667 -36.5 OFFCURVE",
"668.333 7.333 OFFCURVE",
"691 58 CURVE"
);
}
);
userData = {
assembly = "PUSHB[ ]	/* 8 values pushed */\01218 5 2 3 3 0 1 76 \012MPPEM[ ]	/* MeasurePixelPerEm */\012PUSHB[ ]	/* 1 value pushed */\01243 \012LT[ ]	/* LessThan */\012IF[ ]	/* If */\012NPUSHB[ ]	/* 17 values pushed */\0121 1 0 0 103 77 0 3 3 2 97 0 2 2 108 2 78 \012ELSE[ ]	/* Else */\012NPUSHB[ ]	/* 14 values pushed */\0120 3 0 2 3 2 101 1 1 0 0 103 0 78 \012EIF[ ]	/* EndIf */\012PUSHB[ ]	/* 7 values pushed */\01244 38 18 16 4 12 26 \012CALL[ ]	/* CallFunction */";
};
width = 1380;
}
);
leftKerningGroup = V;
note = Gamma1;
rightKerningGroup = V;
unicode = 0194;
},
{
glyphname = Vhook;
lastChange = "2024-07-06 18:59:39 +0000";
layers = (
{
layerId = "9A547413-C347-4957-B455-92488FFEB499";
paths = (
{
closed = 1;
nodes = (
"748.667 -20 OFFCURVE",
"843.333 -0.833 OFFCURVE",
"928 37.5 CURVE SMOOTH",
"1012.667 75.833 OFFCURVE",
"1079.667 132.833 OFFCURVE",
"1129 208.5 CURVE SMOOTH",
"1178.333 284.167 OFFCURVE",
"1203 377.667 OFFCURVE",
"1203 489 CURVE SMOOTH",
"1203 1123 LINE SMOOTH",
"1203 1247.667 OFFCURVE",
"1169.5 1343.333 OFFCURVE",
"1102.5 1410 CURVE SMOOTH",
"1035.5 1476.667 OFFCURVE",
"947 1510 OFFCURVE",
"837 1510 CURVE SMOOTH",
"811.667 1510 OFFCURVE",
"787.5 1508.333 OFFCURVE",
"764.5 1505 CURVE SMOOTH",
"753 1503 OFFCURVE",
"742 1501 OFFCURVE",
"732 1499 CURVE SMOOTH",
"710 1495 OFFCURVE",
"699 1449 OFFCURVE",
"699 1363 CURVE SMOOTH",
"699 1278 LINE",
"712.333 1280.667 OFFCURVE",
"726.333 1282.5 OFFCURVE",
"741 1283.5 CURVE SMOOTH",
"755.667 1284.5 OFFCURVE",
"768.667 1285 OFFCURVE",
"780 1285 CURVE SMOOTH",
"830.667 1285 OFFCURVE",
"867.833 1273.167 OFFCURVE",
"891.5 1249.5 CURVE SMOOTH",
"915.167 1225.833 OFFCURVE",
"927 1183.667 OFFCURVE",
"927 1123 CURVE SMOOTH",
"927 489 LINE SMOOTH",
"927 391.667 OFFCURVE",
"902.667 318.833 OFFCURVE",
"854 270.5 CURVE SMOOTH",
"805.333 222.167 OFFCURVE",
"735.333 198 OFFCURVE",
"644 198 CURVE SMOOTH",
"552 198 OFFCURVE",
"481.167 222.167 OFFCURVE",
"431.5 270.5 CURVE SMOOTH",
"381.833 318.833 OFFCURVE",
"357 391.667 OFFCURVE",
"357 489 CURVE SMOOTH",
"357 1348 LINE SMOOTH",
"357 1440 OFFCURVE",
"309 1490 OFFCURVE",
"221 1490 CURVE SMOOTH",
"133 1490 OFFCURVE",
"85 1440 OFFCURVE",
"85 1348 CURVE SMOOTH",
"85 489 LINE SMOOTH",
"85 377.667 OFFCURVE",
"109.167 284.167 OFFCURVE",
"157.5 208.5 CURVE SMOOTH",
"205.833 132.833 OFFCURVE",
"272 75.833 OFFCURVE",
"356 37.5 CURVE SMOOTH",
"440 -0.833 OFFCURVE",
"536 -20 OFFCURVE",
"644 -20 CURVE SMOOTH"
);
}
);
userData = {
assembly = "MPPEM[ ]	/* MeasurePixelPerEm */\012PUSHB[ ]	/* 1 value pushed */\01226 \012LT[ ]	/* LessThan */\012IF[ ]	/* If */\012NPUSHB[ ]	/* 10 values pushed */\01220 1 2 3 1 76 21 1 1 74 \012ELSE[ ]	/* Else */\012NPUSHB[ ]	/* 10 values pushed */\01221 1 1 4 20 1 2 3 2 76 \012EIF[ ]	/* EndIf */\012MPPEM[ ]	/* MeasurePixelPerEm */\012PUSHB[ ]	/* 1 value pushed */\01226 \012LT[ ]	/* LessThan */\012IF[ ]	/* If */\012NPUSHB[ ]	/* 23 values pushed */\0120 3 3 1 97 4 1 1 1 103 77 0 2 2 0 97 5 1 0 0 110 0 78 \012ELSE[ ]	/* Else */\012NPUSHB[ ]	/* 27 values pushed */\0120 1 1 103 77 0 3 3 4 97 0 4 4 109 77 0 2 2 0 97 5 1 0 0 110 0 78 \012EIF[ ]	/* EndIf */\012NPUSHB[ ]	/* 17 values pushed */\0121 0 25 23 19 16 11 9 6 5 0 31 1 31 6 12 22 \012CALL[ ]	/* CallFunction */";
};
width = 1286;
}
);
note = Vcursive;
unicode = 01B2;
},
{
glyphname = Vturned;
lastChange = "2024-07-06 18:59:39 +0000";
layers = (
{
layerId = "9A547413-C347-4957-B455-92488FFEB499";
paths = (
{
closed = 1;
nodes = (
"1228 0 LINE SMOOTH",
"1332 0 OFFCURVE",
"1378 65 OFFCURVE",
"1343 163 CURVE SMOOTH",
"914 1376 LINE SMOOTH",
"887 1454 OFFCURVE",
"835 1490 OFFCURVE",
"753 1490 CURVE SMOOTH",
"722 1490 LINE SMOOTH",
"640 1490 OFFCURVE",
"588 1454 OFFCURVE",
"561 1376 CURVE SMOOTH",
"132 163 LINE SMOOTH",
"97 65 OFFCURVE",
"143 0 OFFCURVE",
"247 0 CURVE SMOOTH",
"254 0 LINE SMOOTH",
"337 0 OFFCURVE",
"389 39 OFFCURVE",
"414 118 CURVE SMOOTH",
"737 1153 LINE",
"1063 118 LINE SMOOTH",
"1088 39 OFFCURVE",
"1140 0 OFFCURVE",
"1223 0 CURVE SMOOTH"
);
}
);
userData = {
assembly = "NPUSHB[ ]	/* 30 values pushed */\0121 1 0 1 1 76 0 1 1 103 77 3 2 2 0 0 104 0 78 0 0 0 6 0 6 17 18 4 12 24 \012CALL[ ]	/* CallFunction */";
};
width = 1476;
}
);
note = uni0245;
unicode = 0245;
},
{
glyphname = W;
lastChange = "2024-07-06 18:59:39 +0000";
layers = (
{
layerId = "9A547413-C347-4957-B455-92488FFEB499";
paths = (
{
closed = 1;
nodes = (
"589 0 LINE SMOOTH",
"673 0 OFFCURVE",
"726 40 OFFCURVE",
"747 122 CURVE SMOOTH",
"942 862 LINE SMOOTH",
"952.667 902.667 OFFCURVE",
"963 945.5 OFFCURVE",
"973 990.5 CURVE SMOOTH",
"983 1035.5 OFFCURVE",
"993.333 1082.667 OFFCURVE",
"1004 1132 CURVE",
"1035 990.5 LINE SMOOTH",
"1045 945.5 OFFCURVE",
"1055.333 902.667 OFFCURVE",
"1066 862 CURVE SMOOTH",
"1262 122 LINE SMOOTH",
"1284 40 OFFCURVE",
"1336 0 OFFCURVE",
"1420 0 CURVE SMOOTH",
"1468 0 LINE SMOOTH",
"1552 0 OFFCURVE",
"1604 40 OFFCURVE",
"1626 121 CURVE SMOOTH",
"1953 1331 LINE SMOOTH",
"1979 1429 OFFCURVE",
"1937 1490 OFFCURVE",
"1843 1490 CURVE SMOOTH",
"1758 1490 OFFCURVE",
"1706 1449 OFFCURVE",
"1686 1367 CURVE SMOOTH",
"1519 687 LINE SMOOTH",
"1488.333 555.667 OFFCURVE",
"1460.333 427 OFFCURVE",
"1435 301 CURVE",
"1421.667 365 OFFCURVE",
"1407.667 429.167 OFFCURVE",
"1393 493.5 CURVE SMOOTH",
"1378.333 557.833 OFFCURVE",
"1363 622.333 OFFCURVE",
"1347 687 CURVE SMOOTH",
"1175 1368 LINE SMOOTH",
"1154 1451 OFFCURVE",
"1103 1490 OFFCURVE",
"1018 1490 CURVE SMOOTH",
"991 1490 LINE SMOOTH",
"906 1490 OFFCURVE",
"855 1451 OFFCURVE",
"834 1368 CURVE SMOOTH",
"660 687 LINE SMOOTH",
"644 621.667 OFFCURVE",
"628.667 556.5 OFFCURVE",
"614 491.5 CURVE SMOOTH",
"599.333 426.5 OFFCURVE",
"585.333 361.333 OFFCURVE",
"572 296 CURVE",
"559.333 361.333 OFFCURVE",
"546.167 426.5 OFFCURVE",
"532.5 491.5 CURVE SMOOTH",
"518.833 556.5 OFFCURVE",
"504.333 621.667 OFFCURVE",
"489 687 CURVE SMOOTH",
"322 1367 LINE SMOOTH",
"302 1449 OFFCURVE",
"250 1490 OFFCURVE",
"165 1490 CURVE SMOOTH",
"153 1490 LINE SMOOTH",
"67 1490 OFFCURVE",
"30 1429 OFFCURVE",
"56 1331 CURVE SMOOTH",
"382 121 LINE SMOOTH",
"404 40 OFFCURVE",
"456 0 OFFCURVE",
"540 0 CURVE SMOOTH"
);
}
);
userData = {
assembly = "NPUSHB[ ]	/* 36 values pushed */\01225 15 6 3 3 0 1 76 2 1 2 0 0 103 77 5 4 2 3 3 104 3 78 0 0 0 29 0 29 17 23 24 17 6 12 26 \012CALL[ ]	/* CallFunction */";
};
width = 2009;
}
);
leftKerningGroup = W;
note = W;
rightKerningGroup = W;
unicode = 0057;
},
{
glyphname = Wynn;
lastChange = "2024-07-06 18:59:39 +0000";
layers = (
{
layerId = "9A547413-C347-4957-B455-92488FFEB499";
paths = (
{
closed = 1;
nodes = (
"394 1477 OFFCURVE",
"346 1490 OFFCURVE",
"258 1490 CURVE SMOOTH",
"170 1490 OFFCURVE",
"122 1440 OFFCURVE",
"122 1348 CURVE SMOOTH",
"122 -276 LINE SMOOTH",
"122 -368 OFFCURVE",
"170 -418 OFFCURVE",
"258 -418 CURVE SMOOTH",
"346 -418 OFFCURVE",
"394 -368 OFFCURVE",
"394 -276 CURVE SMOOTH",
"394 -154 LINE",
"571.333 -104.667 OFFCURVE",
"725 -32.833 OFFCURVE",
"855 61.5 CURVE SMOOTH",
"985 155.833 OFFCURVE",
"1085.667 266.833 OFFCURVE",
"1157 394.5 CURVE SMOOTH",
"1228.333 522.167 OFFCURVE",
"1264 661 OFFCURVE",
"1264 811 CURVE SMOOTH",
"1264 863 LINE SMOOTH",
"1264 1006.333 OFFCURVE",
"1238.5 1125.833 OFFCURVE",
"1187.5 1221.5 CURVE SMOOTH",
"1136.5 1317.167 OFFCURVE",
"1065.5 1389.167 OFFCURVE",
"974.5 1437.5 CURVE SMOOTH",
"883.5 1485.833 OFFCURVE",
"778.333 1510 OFFCURVE",
"659 1510 CURVE SMOOTH",
"604.333 1510 OFFCURVE",
"555 1505 OFFCURVE",
"511 1495 CURVE SMOOTH",
"467 1485 OFFCURVE",
"428 1471.333 OFFCURVE",
"394 1454 CURVE"
);
},
{
closed = 1;
nodes = (
"394 1179 LINE",
"423.333 1213.667 OFFCURVE",
"460 1240.833 OFFCURVE",
"504 1260.5 CURVE SMOOTH",
"548 1280.167 OFFCURVE",
"600.333 1290 OFFCURVE",
"661 1290 CURVE SMOOTH",
"779.667 1290 OFFCURVE",
"863.833 1251.833 OFFCURVE",
"913.5 1175.5 CURVE SMOOTH",
"963.167 1099.167 OFFCURVE",
"988 996.333 OFFCURVE",
"988 867 CURVE SMOOTH",
"988 811 LINE SMOOTH",
"988 709 OFFCURVE",
"966.333 609.833 OFFCURVE",
"923 513.5 CURVE SMOOTH",
"879.667 417.167 OFFCURVE",
"814.167 330.5 OFFCURVE",
"726.5 253.5 CURVE SMOOTH",
"638.833 176.5 OFFCURVE",
"528 116 OFFCURVE",
"394 72 CURVE"
);
}
);
userData = {
assembly = "MPPEM[ ]	/* MeasurePixelPerEm */\012PUSHB[ ]	/* 1 value pushed */\01226 \012LT[ ]	/* LessThan */\012IF[ ]	/* If */\012NPUSHB[ ]	/* 12 values pushed */\0121 1 3 0 28 17 13 3 1 3 2 76 \012ELSE[ ]	/* Else */\012NPUSHB[ ]	/* 12 values pushed */\0121 1 3 2 28 17 13 3 1 3 2 76 \012EIF[ ]	/* EndIf */\012MPPEM[ ]	/* MeasurePixelPerEm */\012PUSHB[ ]	/* 1 value pushed */\01226 \012LT[ ]	/* LessThan */\012IF[ ]	/* If */\012NPUSHB[ ]	/* 18 values pushed */\0120 3 3 0 97 4 2 2 0 0 109 77 0 1 1 108 1 78 \012ELSE[ ]	/* Else */\012NPUSHB[ ]	/* 22 values pushed */\0124 1 2 2 103 77 0 3 3 0 97 0 0 0 109 77 0 1 1 108 1 78 \012EIF[ ]	/* EndIf */\012NPUSHB[ ]	/* 13 values pushed */\0120 0 26 24 0 16 0 16 25 35 5 12 24 \012CALL[ ]	/* CallFunction */";
};
width = 1384;
}
);
note = uni01F7;
unicode = 01F7;
},
{
glyphname = X;
lastChange = "2024-07-06 18:59:39 +0000";
layers = (
{
layerId = "9A547413-C347-4957-B455-92488FFEB499";
paths = (
{
closed = 1;
nodes = (
"206 0 LINE SMOOTH",
"282 0 OFFCURVE",
"335 27 OFFCURVE",
"378 90 CURVE SMOOTH",
"548 338 LINE SMOOTH",
"573.333 374.667 OFFCURVE",
"598.333 411.5 OFFCURVE",
"623 448.5 CURVE SMOOTH",
"696 559 LINE",
"720 522.333 OFFCURVE",
"744.167 485.5 OFFCURVE",
"768.5 448.5 CURVE SMOOTH",
"842 338 LINE",
"1009 91 LINE SMOOTH",
"1052 28 OFFCURVE",
"1104 0 OFFCURVE",
"1180 0 CURVE SMOOTH",
"1224 0 LINE SMOOTH",
"1310 0 OFFCURVE",
"1325 76 OFFCURVE",
"1259 172 CURVE SMOOTH",
"849 770 LINE",
"1221 1318 LINE SMOOTH",
"1286 1414 OFFCURVE",
"1257 1490 OFFCURVE",
"1154 1490 CURVE SMOOTH",
"1078 1490 OFFCURVE",
"1025 1462 OFFCURVE",
"982 1399 CURVE SMOOTH",
"857 1214 LINE SMOOTH",
"829.667 1173.333 OFFCURVE",
"803 1132.833 OFFCURVE",
"777 1092.5 CURVE SMOOTH",
"699 971 LINE",
"673.667 1011.667 OFFCURVE",
"648 1052.167 OFFCURVE",
"622 1092.5 CURVE SMOOTH",
"544 1214 LINE",
"421 1398 LINE SMOOTH",
"379 1462 OFFCURVE",
"327 1490 OFFCURVE",
"250 1490 CURVE SMOOTH",
"209 1490 LINE SMOOTH",
"125 1490 OFFCURVE",
"110 1414 OFFCURVE",
"175 1318 CURVE SMOOTH",
"551 762 LINE",
"137 173 LINE SMOOTH",
"70 77 OFFCURVE",
"83 0 OFFCURVE",
"166 0 CURVE SMOOTH"
);
}
);
userData = {
assembly = "NPUSHB[ ]	/* 35 values pushed */\01219 13 7 1 4 2 0 1 76 1 1 0 0 103 77 4 3 2 2 2 104 2 78 0 0 0 23 0 23 18 24 18 5 12 25 \012CALL[ ]	/* CallFunction */";
};
width = 1393;
}
);
leftKerningGroup = X;
note = X;
rightKerningGroup = X;
unicode = 0058;
},
{
glyphname = Y;
lastChange = "2024-07-06 18:59:39 +0000";
layers = (
{
layerId = "9A547413-C347-4957-B455-92488FFEB499";
paths = (
{
closed = 1;
nodes = (
"563 142 LINE SMOOTH",
"563 50 OFFCURVE",
"609 0 OFFCURVE",
"693 0 CURVE SMOOTH",
"777 0 OFFCURVE",
"823 50 OFFCURVE",
"823 142 CURVE SMOOTH",
"823 576 LINE",
"1266 1319 LINE SMOOTH",
"1324 1417 OFFCURVE",
"1287 1490 OFFCURVE",
"1178 1490 CURVE SMOOTH",
"1100 1490 OFFCURVE",
"1048 1460 OFFCURVE",
"1009 1392 CURVE SMOOTH",
"802 1031 LINE SMOOTH",
"783.333 999 OFFCURVE",
"765.167 966.833 OFFCURVE",
"747.5 934.5 CURVE SMOOTH",
"729.833 902.167 OFFCURVE",
"712.333 869.667 OFFCURVE",
"695 837 CURVE",
"641 934.5 LINE SMOOTH",
"623 966.833 OFFCURVE",
"604.667 999 OFFCURVE",
"586 1031 CURVE SMOOTH",
"374 1393 LINE SMOOTH",
"335 1460 OFFCURVE",
"282 1490 OFFCURVE",
"204 1490 CURVE SMOOTH",
"165 1490 LINE SMOOTH",
"78 1490 OFFCURVE",
"57 1416 OFFCURVE",
"116 1319 CURVE SMOOTH",
"563 576 LINE"
);
}
);
userData = {
assembly = "NPUSHB[ ]	/* 32 values pushed */\01213 7 1 3 2 0 1 76 1 1 0 0 103 77 3 1 2 2 104 2 78 0 0 0 14 0 14 24 18 4 12 24 \012CALL[ ]	/* CallFunction */";
};
width = 1381;
}
);
leftKerningGroup = Y;
note = Y;
rightKerningGroup = Y;
unicode = 0059;
},
{
glyphname = Yhook;
lastChange = "2024-07-06 18:59:39 +0000";
layers = (
{
layerId = "9A547413-C347-4957-B455-92488FFEB499";
paths = (
{
closed = 1;
nodes = (
"104 1490 OFFCURVE",
"74 1417 OFFCURVE",
"135 1319 CURVE SMOOTH",
"591 591 LINE",
"591 142 LINE SMOOTH",
"591 50 OFFCURVE",
"637 0 OFFCURVE",
"721 0 CURVE SMOOTH",
"805 0 OFFCURVE",
"850 50 OFFCURVE",
"850 142 CURVE SMOOTH",
"850 591 LINE",
"1230 1199 LINE SMOOTH",
"1258 1243 OFFCURVE",
"1287.167 1270.333 OFFCURVE",
"1317.5 1281 CURVE SMOOTH",
"1334 1287 OFFCURVE",
"1352 1289 OFFCURVE",
"1373 1287 CURVE SMOOTH",
"1411 1283 OFFCURVE",
"1438 1308 OFFCURVE",
"1458 1375 CURVE SMOOTH",
"1477 1439 OFFCURVE",
"1441 1503 OFFCURVE",
"1347 1507 CURVE SMOOTH",
"1310 1508 OFFCURVE",
"1273 1504 OFFCURVE",
"1236 1494.5 CURVE SMOOTH",
"1151.333 1472.833 OFFCURVE",
"1080.333 1414.667 OFFCURVE",
"1023 1320 CURVE SMOOTH",
"729 826 LINE",
"712 826 LINE",
"373 1394 LINE SMOOTH",
"333 1461 OFFCURVE",
"282 1490 OFFCURVE",
"204 1490 CURVE SMOOTH"
);
}
);
userData = {
assembly = "NPUSHB[ ]	/* 26 values pushed */\01215 12 8 7 2 5 1 0 1 76 0 0 0 103 77 0 1 1 104 1 78 28 16 2 12 24 \012CALL[ ]	/* CallFunction */";
};
width = 1496;
}
);
leftKerningGroup = Y;
note = uni01B3;
rightKerningGroup = Y;
unicode = 01B3;
},
{
glyphname = Yloop;
lastChange = "2024-07-06 18:59:39 +0000";
layers = (
{
layerId = "9A547413-C347-4957-B455-92488FFEB499";
paths = (
{
closed = 1;
nodes = (
"223 1490 OFFCURVE",
"186 1420 OFFCURVE",
"238 1321 CURVE SMOOTH",
"552 728 LINE",
"516 738.667 OFFCURVE",
"478.667 744 OFFCURVE",
"440 744 CURVE SMOOTH",
"368.667 744 OFFCURVE",
"303.667 726.667 OFFCURVE",
"245 692 CURVE SMOOTH",
"186.333 657.333 OFFCURVE",
"139.833 611 OFFCURVE",
"105.5 553 CURVE SMOOTH",
"71.167 495 OFFCURVE",
"54 431 OFFCURVE",
"54 361 CURVE SMOOTH",
"54 290.333 OFFCURVE",
"71.333 226.167 OFFCURVE",
"106 168.5 CURVE SMOOTH",
"140.667 110.833 OFFCURVE",
"187.167 65 OFFCURVE",
"245.5 31 CURVE SMOOTH",
"303.833 -3 OFFCURVE",
"368.667 -20 OFFCURVE",
"440 -20 CURVE SMOOTH",
"521.333 -20 OFFCURVE",
"594.667 2.833 OFFCURVE",
"660 48.5 CURVE SMOOTH",
"725.333 94.167 OFFCURVE",
"772 153 OFFCURVE",
"800 225 CURVE",
"1352 1322 LINE SMOOTH",
"1402 1420 OFFCURVE",
"1362 1490 OFFCURVE",
"1257 1490 CURVE SMOOTH",
"1177 1490 OFFCURVE",
"1125 1456 OFFCURVE",
"1091 1384 CURVE SMOOTH",
"801 763 LINE",
"496 1386 LINE SMOOTH",
"461 1457 OFFCURVE",
"408 1490 OFFCURVE",
"329 1490 CURVE SMOOTH"
);
},
{
closed = 1;
nodes = (
"396.667 207 OFFCURVE",
"360.667 220.333 OFFCURVE",
"332 247 CURVE SMOOTH",
"303.333 273.667 OFFCURVE",
"289 312.333 OFFCURVE",
"289 363 CURVE SMOOTH",
"289 414.333 OFFCURVE",
"303.333 453.167 OFFCURVE",
"332 479.5 CURVE SMOOTH",
"360.667 505.833 OFFCURVE",
"396.667 519 OFFCURVE",
"440 519 CURVE SMOOTH",
"481.333 519 OFFCURVE",
"516.5 505.833 OFFCURVE",
"545.5 479.5 CURVE SMOOTH",
"574.5 453.167 OFFCURVE",
"589 414.333 OFFCURVE",
"589 363 CURVE SMOOTH",
"589 312.333 OFFCURVE",
"574.5 273.667 OFFCURVE",
"545.5 247 CURVE SMOOTH",
"516.5 220.333 OFFCURVE",
"481.333 207 OFFCURVE",
"440 207 CURVE SMOOTH"
);
}
);
userData = {
assembly = "NPUSHB[ ]	/* 57 values pushed */\0121 1 2 0 17 1 5 2 2 76 0 2 0 5 4 2 5 106 6 3 2 0 0 103 77 7 1 4 4 1 97 0 1 1 110 1 78 20 19 0 0 26 24 19 30 20 30 0 18 0 18 38 35 18 8 12 25 \012CALL[ ]	/* CallFunction */";
};
width = 1472;
}
);
note = uni1EFE;
unicode = 1EFE;
},
{
glyphname = Yr;
lastChange = "2024-07-06 18:59:39 +0000";
layers = (
{
layerId = "9A547413-C347-4957-B455-92488FFEB499";
paths = (
{
closed = 1;
nodes = (
"1398 -354 LINE",
"1398 -348 LINE SMOOTH",
"1398 -344 OFFCURVE",
"1386 -319 OFFCURVE",
"1354 -260 CURVE SMOOTH",
"866 644 LINE",
"954 678.667 OFFCURVE",
"1023.167 729.167 OFFCURVE",
"1073.5 795.5 CURVE SMOOTH",
"1123.833 861.833 OFFCURVE",
"1149 947 OFFCURVE",
"1149 1051 CURVE SMOOTH",
"1149 1193.667 OFFCURVE",
"1101.667 1302.5 OFFCURVE",
"1007 1377.5 CURVE SMOOTH",
"912.333 1452.5 OFFCURVE",
"780.333 1490 OFFCURVE",
"611 1490 CURVE SMOOTH",
"352 1490 LINE",
"352 1541 LINE SMOOTH",
"352 1574 OFFCURVE",
"304 1592 OFFCURVE",
"215 1592 CURVE SMOOTH",
"126 1592 OFFCURVE",
"78 1542 OFFCURVE",
"78 1450 CURVE SMOOTH",
"78 142 LINE SMOOTH",
"78 50 OFFCURVE",
"127 0 OFFCURVE",
"216 0 CURVE SMOOTH",
"305 0 OFFCURVE",
"354 50 OFFCURVE",
"354 142 CURVE SMOOTH",
"354 585 LINE",
"609 585 LINE",
"1052 -253 LINE SMOOTH",
"1089 -323 OFFCURVE",
"1140 -354 OFFCURVE",
"1219 -354 CURVE SMOOTH"
);
},
{
closed = 1;
nodes = (
"354 802 LINE",
"354 1269 LINE",
"611 1269 LINE SMOOTH",
"703 1269 OFFCURVE",
"770.167 1247.667 OFFCURVE",
"812.5 1205 CURVE SMOOTH",
"854.833 1162.333 OFFCURVE",
"876 1105 OFFCURVE",
"876 1033 CURVE SMOOTH",
"876 965.667 OFFCURVE",
"853.667 910.333 OFFCURVE",
"809 867 CURVE SMOOTH",
"764.333 823.667 OFFCURVE",
"698.333 802 OFFCURVE",
"611 802 CURVE SMOOTH"
);
}
);
userData = {
assembly = "NPUSHB[ ]	/* 58 values pushed */\01214 1 0 5 1 76 7 1 4 1 4 134 0 5 0 0 1 5 0 103 0 6 6 3 95 0 3 3 103 77 0 2 2 1 95 0 1 1 104 1 78 0 0 25 23 19 17 0 16 0 15 33 17 17 17 8 12 26 \012CALL[ ]	/* CallFunction */";
};
width = 1476;
}
);
note = YR;
unicode = 01A6;
},
{
glyphname = Ystroke;
lastChange = "2024-07-06 18:59:39 +0000";
layers = (
{
layerId = "9A547413-C347-4957-B455-92488FFEB499";
paths = (
{
closed = 1;
nodes = (
"1399 1156 OFFCURVE",
"1349 1181 OFFCURVE",
"1257 1181 CURVE SMOOTH",
"1184 1181 LINE",
"1276 1336 LINE SMOOTH",
"1329 1424 OFFCURVE",
"1287 1490 OFFCURVE",
"1178 1490 CURVE SMOOTH",
"1100 1490 OFFCURVE",
"1048 1460 OFFCURVE",
"1009 1392 CURVE SMOOTH",
"888 1181 LINE",
"498 1181 LINE",
"374 1393 LINE SMOOTH",
"335 1460 OFFCURVE",
"282 1490 OFFCURVE",
"204 1490 CURVE SMOOTH",
"165 1490 LINE SMOOTH",
"78 1490 OFFCURVE",
"57 1416 OFFCURVE",
"116 1319 CURVE SMOOTH",
"199 1181 LINE",
"93 1181 LINE SMOOTH",
"24 1181 OFFCURVE",
"-13 1155 OFFCURVE",
"-13 1109 CURVE SMOOTH",
"-13 1062 OFFCURVE",
"37 1036 OFFCURVE",
"129 1036 CURVE SMOOTH",
"286 1036 LINE",
"563 576 LINE",
"563 142 LINE SMOOTH",
"563 50 OFFCURVE",
"609 0 OFFCURVE",
"693 0 CURVE SMOOTH",
"777 0 OFFCURVE",
"823 50 OFFCURVE",
"823 142 CURVE SMOOTH",
"823 576 LINE",
"1097 1036 LINE",
"1257 1036 LINE SMOOTH",
"1349 1036 OFFCURVE",
"1399 1062 OFFCURVE",
"1399 1109 CURVE SMOOTH"
);
},
{
closed = 1;
nodes = (
"805 1036 LINE",
"802 1031 LINE SMOOTH",
"783.333 999 OFFCURVE",
"765.167 966.833 OFFCURVE",
"747.5 934.5 CURVE SMOOTH",
"729.833 902.167 OFFCURVE",
"712.333 869.667 OFFCURVE",
"695 837 CURVE",
"641 934.5 LINE SMOOTH",
"623 966.833 OFFCURVE",
"604.667 999 OFFCURVE",
"586 1031 CURVE SMOOTH",
"583 1036 LINE"
);
}
);
userData = {
assembly = "NPUSHB[ ]	/* 56 values pushed */\01223 6 3 3 1 0 1 76 9 7 5 3 3 10 8 2 3 0 1 3 0 104 6 1 4 4 103 77 0 1 1 104 1 78 19 18 0 0 18 26 19 26 0 17 0 17 17 17 17 17 18 18 17 11 12 29 \012CALL[ ]	/* CallFunction */";
};
width = 1387;
}
);
leftKerningGroup = Y;
note = uni024E;
rightKerningGroup = Y;
unicode = 024E;
},
{
glyphname = Z;
lastChange = "2024-07-06 18:59:39 +0000";
layers = (
{
layerId = "9A547413-C347-4957-B455-92488FFEB499";
paths = (
{
closed = 1;
nodes = (
"55 39 OFFCURVE",
"105 0 OFFCURVE",
"197 0 CURVE SMOOTH",
"1088 0 LINE SMOOTH",
"1180 0 OFFCURVE",
"1230 41 OFFCURVE",
"1230 115 CURVE SMOOTH",
"1230 189 OFFCURVE",
"1180 229 OFFCURVE",
"1088 229 CURVE SMOOTH",
"378 229 LINE",
"405.333 261 OFFCURVE",
"432.167 292.833 OFFCURVE",
"458.5 324.5 CURVE SMOOTH",
"537 420 LINE",
"1160 1203 LINE SMOOTH",
"1204 1259 OFFCURVE",
"1222 1308 OFFCURVE",
"1222 1379 CURVE SMOOTH",
"1222 1385 LINE SMOOTH",
"1222 1453 OFFCURVE",
"1172 1490 OFFCURVE",
"1080 1490 CURVE SMOOTH",
"223 1490 LINE SMOOTH",
"131 1490 OFFCURVE",
"81 1450 OFFCURVE",
"81 1376 CURVE SMOOTH",
"81 1302 OFFCURVE",
"131 1261 OFFCURVE",
"223 1261 CURVE SMOOTH",
"904 1261 LINE",
"827.5 1172 LINE SMOOTH",
"802.5 1142.667 OFFCURVE",
"778 1113 OFFCURVE",
"754 1083 CURVE SMOOTH",
"117 287 LINE SMOOTH",
"73 232 OFFCURVE",
"55 182 OFFCURVE",
"55 111 CURVE SMOOTH"
);
}
);
userData = {
assembly = "NPUSHB[ ]	/* 44 values pushed */\0129 1 0 1 1 1 3 2 2 76 0 0 0 1 95 0 1 1 103 77 0 2 2 3 95 4 1 3 3 104 3 78 0 0 0 15 0 15 21 17 21 5 12 25 \012CALL[ ]	/* CallFunction */";
};
width = 1285;
}
);
leftKerningGroup = Z;
note = Z;
rightKerningGroup = Z;
unicode = 005A;
},
{
glyphname = Zhook;
lastChange = "2024-07-06 18:59:39 +0000";
layers = (
{
layerId = "9A547413-C347-4957-B455-92488FFEB499";
paths = (
{
closed = 1;
nodes = (
"749 -381 OFFCURVE",
"799 -418 OFFCURVE",
"891 -418 CURVE SMOOTH",
"897 -418 LINE SMOOTH",
"1119 -418 OFFCURVE",
"1230 -319.333 OFFCURVE",
"1230 -122 CURVE SMOOTH",
"1230 87 LINE SMOOTH",
"1230 179 OFFCURVE",
"1180 229 OFFCURVE",
"1088 229 CURVE SMOOTH",
"378 229 LINE",
"405.333 261 OFFCURVE",
"432.167 292.833 OFFCURVE",
"458.5 324.5 CURVE SMOOTH",
"537 420 LINE",
"1160 1203 LINE SMOOTH",
"1204 1259 OFFCURVE",
"1222 1308 OFFCURVE",
"1222 1379 CURVE SMOOTH",
"1222 1385 LINE SMOOTH",
"1222 1453 OFFCURVE",
"1172 1490 OFFCURVE",
"1080 1490 CURVE SMOOTH",
"223 1490 LINE SMOOTH",
"131 1490 OFFCURVE",
"81 1450 OFFCURVE",
"81 1376 CURVE SMOOTH",
"81 1302 OFFCURVE",
"131 1261 OFFCURVE",
"223 1261 CURVE SMOOTH",
"904 1261 LINE",
"827.5 1172 LINE SMOOTH",
"802.5 1142.667 OFFCURVE",
"778 1113 OFFCURVE",
"754 1083 CURVE SMOOTH",
"117 287 LINE SMOOTH",
"73 232 OFFCURVE",
"55 182 OFFCURVE",
"55 111 CURVE SMOOTH",
"55 105 LINE SMOOTH",
"55 37 OFFCURVE",
"105 0 OFFCURVE",
"197 0 CURVE SMOOTH",
"965 0 LINE",
"965 -109 LINE SMOOTH",
"965 -141.667 OFFCURVE",
"957 -165.5 OFFCURVE",
"941 -180.5 CURVE SMOOTH",
"925 -195.5 OFFCURVE",
"898.667 -203 OFFCURVE",
"862 -203 CURVE SMOOTH",
"789 -203 OFFCURVE",
"749 -242 OFFCURVE",
"749 -311 CURVE SMOOTH"
);
}
);
userData = {
assembly = "NPUSHB[ ]	/* 56 values pushed */\01216 1 2 3 8 1 1 4 2 76 0 2 2 3 95 0 3 3 103 77 0 4 4 1 95 0 1 1 104 77 0 0 0 5 95 6 1 5 5 108 5 78 0 0 0 24 0 23 21 17 21 19 33 7 12 27 \012CALL[ ]	/* CallFunction */";
};
width = 1285;
}
);
leftKerningGroup = Z;
note = uni0224;
rightKerningGroup = Z;
unicode = 0224;
},
{
glyphname = Zswashtail;
lastChange = "2024-07-06 18:59:39 +0000";
layers = (
{
layerId = "9A547413-C347-4957-B455-92488FFEB499";
paths = (
{
closed = 1;
nodes = (
"1139 -418 OFFCURVE",
"1184 -380 OFFCURVE",
"1184 -310 CURVE SMOOTH",
"1184 -240 OFFCURVE",
"1146 -201 OFFCURVE",
"1076 -201 CURVE SMOOTH",
"1027.333 -201 OFFCURVE",
"984.333 -187.333 OFFCURVE",
"947 -160 CURVE SMOOTH",
"909.667 -132.667 OFFCURVE",
"873.5 -98.833 OFFCURVE",
"838.5 -58.5 CURVE SMOOTH",
"803.5 -18.167 OFFCURVE",
"765.333 22.5 OFFCURVE",
"724 63.5 CURVE SMOOTH",
"682.667 104.5 OFFCURVE",
"634.333 139.5 OFFCURVE",
"579 168.5 CURVE SMOOTH",
"523.667 197.5 OFFCURVE",
"456.333 213.667 OFFCURVE",
"377 217 CURVE",
"1099 1214 LINE SMOOTH",
"1140 1270 OFFCURVE",
"1156 1320 OFFCURVE",
"1156 1390 CURVE SMOOTH",
"1156 1392 LINE SMOOTH",
"1156 1456 OFFCURVE",
"1106 1490 OFFCURVE",
"1014 1490 CURVE SMOOTH",
"199 1490 LINE SMOOTH",
"107 1490 OFFCURVE",
"57 1450 OFFCURVE",
"57 1376 CURVE SMOOTH",
"57 1302 OFFCURVE",
"107 1261 OFFCURVE",
"199 1261 CURVE SMOOTH",
"833 1261 LINE",
"117 275 LINE SMOOTH",
"76 219 OFFCURVE",
"60 169 OFFCURVE",
"60 99 CURVE SMOOTH",
"60 98 LINE SMOOTH",
"60 35 OFFCURVE",
"110 0 OFFCURVE",
"202 0 CURVE SMOOTH",
"288 0 LINE SMOOTH",
"348.667 0 OFFCURVE",
"401.833 -10 OFFCURVE",
"447.5 -30 CURVE SMOOTH",
"493.167 -50 OFFCURVE",
"534.333 -76 OFFCURVE",
"571 -108 CURVE SMOOTH",
"607.667 -140 OFFCURVE",
"642.667 -173.667 OFFCURVE",
"676 -209 CURVE SMOOTH",
"709.333 -244.333 OFFCURVE",
"744 -278 OFFCURVE",
"780 -310 CURVE SMOOTH",
"816 -342 OFFCURVE",
"856 -368 OFFCURVE",
"900 -388 CURVE SMOOTH",
"944 -408 OFFCURVE",
"995.333 -418 OFFCURVE",
"1054 -418 CURVE SMOOTH"
);
}
);
userData = {
assembly = "NPUSHB[ ]	/* 64 values pushed */\01214 1 2 3 9 1 1 4 2 76 0 4 2 1 2 4 1 128 0 2 2 3 95 0 3 3 103 77 0 1 1 104 77 0 5 5 0 97 6 1 0 0 108 0 78 1 0 22 20 16 15 13 12 11 10 8 6 0 23 1 23 7 12 22 \012CALL[ ]	/* CallFunction */";
};
width = 1239;
}
);
leftKerningGroup = Z;
note = uni2C7F;
rightKerningGroup = Z;
unicode = 2C7F;
},
{
glyphname = G.1;
lastChange = "2024-07-06 18:59:39 +0000";
layers = (
{
layerId = "9A547413-C347-4957-B455-92488FFEB499";
paths = (
{
closed = 1;
nodes = (
"856.667 -24 OFFCURVE",
"948.5 -3.5 OFFCURVE",
"1027.5 37.5 CURVE SMOOTH",
"1106.5 78.5 OFFCURVE",
"1168.667 133.333 OFFCURVE",
"1214 202 CURVE",
"1227 101 LINE SMOOTH",
"1236 34 OFFCURVE",
"1271 0 OFFCURVE",
"1331 0 CURVE SMOOTH",
"1390 0 OFFCURVE",
"1422 50 OFFCURVE",
"1422 142 CURVE SMOOTH",
"1422 634 LINE SMOOTH",
"1422 726 OFFCURVE",
"1372 776 OFFCURVE",
"1280 776 CURVE SMOOTH",
"957 776 LINE SMOOTH",
"865 776 OFFCURVE",
"815 739 OFFCURVE",
"815 672 CURVE SMOOTH",
"815 604 OFFCURVE",
"865 567 OFFCURVE",
"957 567 CURVE SMOOTH",
"1164 567 LINE",
"1161.333 494.333 OFFCURVE",
"1142.833 431.5 OFFCURVE",
"1108.5 378.5 CURVE SMOOTH",
"1074.167 325.5 OFFCURVE",
"1028.333 284.667 OFFCURVE",
"971 256 CURVE SMOOTH",
"913.667 227.333 OFFCURVE",
"849 213 OFFCURVE",
"777 213 CURVE SMOOTH",
"687.667 213 OFFCURVE",
"610.167 234.833 OFFCURVE",
"544.5 278.5 CURVE SMOOTH",
"478.833 322.167 OFFCURVE",
"428 383.833 OFFCURVE",
"392 463.5 CURVE SMOOTH",
"356 543.167 OFFCURVE",
"338 636.667 OFFCURVE",
"338 744 CURVE SMOOTH",
"338 852 OFFCURVE",
"355.833 945.833 OFFCURVE",
"391.5 1025.5 CURVE SMOOTH",
"427.167 1105.167 OFFCURVE",
"477.667 1167 OFFCURVE",
"543 1211 CURVE SMOOTH",
"608.333 1255 OFFCURVE",
"685.667 1277 OFFCURVE",
"775 1277 CURVE SMOOTH",
"870.333 1277 OFFCURVE",
"950.833 1251.167 OFFCURVE",
"1016.5 1199.5 CURVE SMOOTH",
"1050 1173 OFFCURVE",
"1078 1142 OFFCURVE",
"1099 1107 CURVE SMOOTH",
"1142 1035 OFFCURVE",
"1181 996 OFFCURVE",
"1263 996 CURVE SMOOTH",
"1278 996 LINE SMOOTH",
"1361 996 OFFCURVE",
"1409 1060 OFFCURVE",
"1367 1155 CURVE SMOOTH",
"1349 1195 OFFCURVE",
"1327 1232 OFFCURVE",
"1300.5 1266.5 CURVE SMOOTH",
"1240.833 1344.167 OFFCURVE",
"1165 1404.833 OFFCURVE",
"1073 1448.5 CURVE SMOOTH",
"981 1492.167 OFFCURVE",
"879.333 1514 OFFCURVE",
"768 1514 CURVE SMOOTH",
"634.667 1514 OFFCURVE",
"515.5 1482.333 OFFCURVE",
"410.5 1419 CURVE SMOOTH",
"305.5 1355.667 OFFCURVE",
"222.833 1266.333 OFFCURVE",
"162.5 1151 CURVE SMOOTH",
"102.167 1035.667 OFFCURVE",
"72 900 OFFCURVE",
"72 744 CURVE SMOOTH",
"72 592 OFFCURVE",
"101.667 458.333 OFFCURVE",
"161 343 CURVE SMOOTH",
"220.333 227.667 OFFCURVE",
"301.167 137.667 OFFCURVE",
"403.5 73 CURVE SMOOTH",
"505.833 8.333 OFFCURVE",
"622 -24 OFFCURVE",
"752 -24 CURVE SMOOTH"
);
}
);
userData = {
assembly = "MPPEM[ ]	/* MeasurePixelPerEm */\012PUSHB[ ]	/* 1 value pushed */\01222 \012LT[ ]	/* LessThan */\012IF[ ]	/* If */\012PUSHB[ ]	/* 6 values pushed */\01234 1 0 4 1 76 \012ELSE[ ]	/* Else */\012PUSHB[ ]	/* 6 values pushed */\01234 1 7 4 1 76 \012EIF[ ]	/* EndIf */\012MPPEM[ ]	/* MeasurePixelPerEm */\012PUSHB[ ]	/* 1 value pushed */\01222 \012LT[ ]	/* LessThan */\012IF[ ]	/* If */\012NPUSHB[ ]	/* 39 values pushed */\0120 2 3 6 3 2 6 128 0 6 0 5 4 6 5 103 0 3 3 1 97 0 1 1 109 77 0 4 4 0 97 7 8 2 0 0 110 0 78 \012ELSE[ ]	/* Else */\012MPPEM[ ]	/* MeasurePixelPerEm */\012PUSHB[ ]	/* 1 value pushed */\01250 \012LT[ ]	/* LessThan */\012IF[ ]	/* If */\012NPUSHB[ ]	/* 43 values pushed */\0120 2 3 6 3 2 6 128 0 6 0 5 4 6 5 103 0 3 3 1 97 0 1 1 109 77 0 7 7 104 77 0 4 4 0 97 8 1 0 0 110 0 78 \012ELSE[ ]	/* Else */\012NPUSHB[ ]	/* 41 values pushed */\0120 2 3 6 3 2 6 128 0 1 0 3 2 1 3 105 0 6 0 5 4 6 5 103 0 7 7 104 77 0 4 4 0 97 8 1 0 0 110 0 78 \012EIF[ ]	/* EndIf */\012EIF[ ]	/* EndIf */\012NPUSHB[ ]	/* 23 values pushed */\0121 0 33 32 31 30 29 28 25 23 17 15 13 12 9 7 0 36 1 36 9 12 22 \012CALL[ ]	/* CallFunction */";
};
width = 1524;
}
);
leftKerningGroup = C;
note = G.1;
rightKerningGroup = G.1;
},
{
glyphname = Ghook.1;
lastChange = "2024-07-06 18:59:39 +0000";
layers = (
{
layerId = "9A547413-C347-4957-B455-92488FFEB499";
paths = (
{
closed = 1;
nodes = (
"856.667 -24 OFFCURVE",
"948.5 -3.5 OFFCURVE",
"1027.5 37.5 CURVE SMOOTH",
"1106.5 78.5 OFFCURVE",
"1168.667 133.333 OFFCURVE",
"1214 202 CURVE",
"1227 101 LINE SMOOTH",
"1236 34 OFFCURVE",
"1271 0 OFFCURVE",
"1331 0 CURVE SMOOTH",
"1390 0 OFFCURVE",
"1422 50 OFFCURVE",
"1422 142 CURVE SMOOTH",
"1422 634 LINE SMOOTH",
"1422 726 OFFCURVE",
"1372 776 OFFCURVE",
"1280 776 CURVE SMOOTH",
"957 776 LINE SMOOTH",
"865 776 OFFCURVE",
"815 739 OFFCURVE",
"815 672 CURVE SMOOTH",
"815 604 OFFCURVE",
"865 567 OFFCURVE",
"957 567 CURVE SMOOTH",
"1164 567 LINE",
"1161.333 494.333 OFFCURVE",
"1142.833 431.5 OFFCURVE",
"1108.5 378.5 CURVE SMOOTH",
"1074.167 325.5 OFFCURVE",
"1028.333 284.667 OFFCURVE",
"971 256 CURVE SMOOTH",
"913.667 227.333 OFFCURVE",
"849 213 OFFCURVE",
"777 213 CURVE SMOOTH",
"687.667 213 OFFCURVE",
"610.167 234.833 OFFCURVE",
"544.5 278.5 CURVE SMOOTH",
"478.833 322.167 OFFCURVE",
"428 383.833 OFFCURVE",
"392 463.5 CURVE SMOOTH",
"356 543.167 OFFCURVE",
"338 636.667 OFFCURVE",
"338 744 CURVE SMOOTH",
"338 852 OFFCURVE",
"355.833 945.833 OFFCURVE",
"391.5 1025.5 CURVE SMOOTH",
"427.167 1105.167 OFFCURVE",
"477.667 1167 OFFCURVE",
"543 1211 CURVE SMOOTH",
"608.333 1255 OFFCURVE",
"685.667 1277 OFFCURVE",
"775 1277 CURVE SMOOTH",
"870.333 1277 OFFCURVE",
"950.833 1251.167 OFFCURVE",
"1016.5 1199.5 CURVE SMOOTH",
"1050 1173 OFFCURVE",
"1078 1142 OFFCURVE",
"1099 1107 CURVE SMOOTH",
"1142 1035 OFFCURVE",
"1181 996 OFFCURVE",
"1263 996 CURVE SMOOTH",
"1278 996 LINE SMOOTH",
"1365 996 OFFCURVE",
"1412 1046 OFFCURVE",
"1412 1138 CURVE SMOOTH",
"1412 1373 LINE SMOOTH",
"1412 1436.333 OFFCURVE",
"1447.333 1468 OFFCURVE",
"1518 1468 CURVE SMOOTH",
"1591 1468 OFFCURVE",
"1631 1505 OFFCURVE",
"1631 1572 CURVE SMOOTH",
"1631 1639 OFFCURVE",
"1581 1676 OFFCURVE",
"1490 1676 CURVE SMOOTH",
"1278 1676 OFFCURVE",
"1169 1583 OFFCURVE",
"1163 1397 CURVE",
"1108.333 1434.333 OFFCURVE",
"1047.5 1463.167 OFFCURVE",
"980.5 1483.5 CURVE SMOOTH",
"913.5 1503.833 OFFCURVE",
"842.667 1514 OFFCURVE",
"768 1514 CURVE SMOOTH",
"634.667 1514 OFFCURVE",
"515.5 1482.333 OFFCURVE",
"410.5 1419 CURVE SMOOTH",
"305.5 1355.667 OFFCURVE",
"222.833 1266.333 OFFCURVE",
"162.5 1151 CURVE SMOOTH",
"102.167 1035.667 OFFCURVE",
"72 900 OFFCURVE",
"72 744 CURVE SMOOTH",
"72 592 OFFCURVE",
"101.667 458.333 OFFCURVE",
"161 343 CURVE SMOOTH",
"220.333 227.667 OFFCURVE",
"301.167 137.667 OFFCURVE",
"403.5 73 CURVE SMOOTH",
"505.833 8.333 OFFCURVE",
"622 -24 OFFCURVE",
"752 -24 CURVE SMOOTH"
);
}
);
userData = {
assembly = "MPPEM[ ]	/* MeasurePixelPerEm */\012PUSHB[ ]	/* 1 value pushed */\01222 \012LT[ ]	/* LessThan */\012IF[ ]	/* If */\012NPUSHB[ ]	/* 10 values pushed */\01211 1 5 3 41 1 0 6 2 76 \012ELSE[ ]	/* Else */\012NPUSHB[ ]	/* 10 values pushed */\01211 1 5 3 41 1 9 6 2 76 \012EIF[ ]	/* EndIf */\012MPPEM[ ]	/* MeasurePixelPerEm */\012PUSHB[ ]	/* 1 value pushed */\01222 \012LT[ ]	/* LessThan */\012IF[ ]	/* If */\012NPUSHB[ ]	/* 47 values pushed */\0120 4 5 8 5 4 8 128 0 2 0 3 5 2 3 105 0 8 0 7 6 8 7 103 0 5 5 1 97 0 1 1 109 77 0 6 6 0 97 9 10 2 0 0 110 0 78 \012ELSE[ ]	/* Else */\012MPPEM[ ]	/* MeasurePixelPerEm */\012PUSHB[ ]	/* 1 value pushed */\01250 \012LT[ ]	/* LessThan */\012IF[ ]	/* If */\012NPUSHB[ ]	/* 51 values pushed */\0120 4 5 8 5 4 8 128 0 2 0 3 5 2 3 105 0 8 0 7 6 8 7 103 0 5 5 1 97 0 1 1 109 77 0 9 9 104 77 0 6 6 0 97 10 1 0 0 110 0 78 \012ELSE[ ]	/* Else */\012NPUSHB[ ]	/* 49 values pushed */\0120 4 5 8 5 4 8 128 0 2 0 3 5 2 3 105 0 1 0 5 4 1 5 105 0 8 0 7 6 8 7 103 0 9 9 104 77 0 6 6 0 97 10 1 0 0 110 0 78 \012EIF[ ]	/* EndIf */\012EIF[ ]	/* EndIf */\012NPUSHB[ ]	/* 27 values pushed */\0121 0 40 39 38 37 36 35 32 30 24 22 20 19 17 15 14 12 9 7 0 43 1 43 11 12 22 \012CALL[ ]	/* CallFunction */";
};
width = 1524;
}
);
note = uni0193.1;
},
{
glyphname = I.1;
lastChange = "2024-07-06 18:59:39 +0000";
layers = (
{
layerId = "9A547413-C347-4957-B455-92488FFEB499";
paths = (
{
closed = 1;
nodes = (
"69 39 OFFCURVE",
"119 0 OFFCURVE",
"211 0 CURVE SMOOTH",
"555 0 LINE SMOOTH",
"647 0 OFFCURVE",
"697 39 OFFCURVE",
"697 110 CURVE SMOOTH",
"697 181 OFFCURVE",
"647 220 OFFCURVE",
"555 220 CURVE SMOOTH",
"515 220 LINE",
"515 1270 LINE",
"606 1270 LINE SMOOTH",
"665 1270 OFFCURVE",
"697 1309 OFFCURVE",
"697 1380 CURVE SMOOTH",
"697 1451 OFFCURVE",
"647 1490 OFFCURVE",
"555 1490 CURVE SMOOTH",
"211 1490 LINE SMOOTH",
"119 1490 OFFCURVE",
"69 1451 OFFCURVE",
"69 1380 CURVE SMOOTH",
"69 1309 OFFCURVE",
"119 1270 OFFCURVE",
"211 1270 CURVE SMOOTH",
"251 1270 LINE",
"251 220 LINE",
"160 220 LINE SMOOTH",
"101 220 OFFCURVE",
"69 181 OFFCURVE",
"69 110 CURVE SMOOTH"
);
}
);
userData = {
assembly = "NPUSHB[ ]	/* 38 values pushed */\0123 1 1 1 2 95 0 2 2 103 77 4 1 0 0 5 95 6 1 5 5 104 5 78 0 0 0 11 0 11 17 17 17 17 17 7 12 27 \012CALL[ ]	/* CallFunction */";
};
width = 766;
}
);
leftKerningGroup = B;
note = I.1;
rightKerningGroup = Ereversed;
},
{
glyphname = Thook.base;
lastChange = "2024-07-06 18:59:39 +0000";
layers = (
{
layerId = "9A547413-C347-4957-B455-92488FFEB499";
paths = (
{
closed = 1;
nodes = (
"452 1301 OFFCURVE",
"476 1261 OFFCURVE",
"519 1261 CURVE",
"519 142 LINE SMOOTH",
"519 50 OFFCURVE",
"566 0 OFFCURVE",
"652 0 CURVE SMOOTH",
"738 0 OFFCURVE",
"784 50 OFFCURVE",
"784 142 CURVE SMOOTH",
"784 1261 LINE",
"1102 1261 LINE SMOOTH",
"1194 1261 OFFCURVE",
"1244 1302 OFFCURVE",
"1244 1376 CURVE SMOOTH",
"1244 1450 OFFCURVE",
"1194 1490 OFFCURVE",
"1102 1490 CURVE SMOOTH",
"594 1490 LINE SMOOTH",
"502 1490 OFFCURVE",
"452 1450 OFFCURVE",
"452 1376 CURVE SMOOTH"
);
}
);
userData = {
assembly = "NPUSHB[ ]	/* 35 values pushed */\0120 2 1 2 134 0 0 1 1 0 87 0 0 0 1 95 4 3 2 1 0 1 79 0 0 0 7 0 7 17 17 17 5 6 25 \012CALL[ ]	/* CallFunction */";
};
width = 1291;
}
);
note = uni01AC.base;
rightKerningGroup = "Enghe-cy";
},
{
glyphname = a;
lastChange = "2024-07-06 18:59:39 +0000";
layers = (
{
layerId = "9A547413-C347-4957-B455-92488FFEB499";
paths = (
{
closed = 1;
nodes = (
"520 -17 OFFCURVE",
"587 -1 OFFCURVE",
"635 31 CURVE SMOOTH",
"683 63 OFFCURVE",
"719.667 102.333 OFFCURVE",
"745 149 CURVE",
"749 149 LINE",
"749 75 LINE SMOOTH",
"749 27 OFFCURVE",
"793 0 OFFCURVE",
"873 0 CURVE SMOOTH",
"953 0 OFFCURVE",
"997 50 OFFCURVE",
"997 142 CURVE SMOOTH",
"997 720 LINE SMOOTH",
"997 830 OFFCURVE",
"958.333 917 OFFCURVE",
"881 981 CURVE SMOOTH",
"803.667 1045 OFFCURVE",
"696.333 1077 OFFCURVE",
"559 1077 CURVE SMOOTH",
"421 1077 OFFCURVE",
"311.333 1045 OFFCURVE",
"230 981 CURVE SMOOTH",
"189 949 OFFCURVE",
"158 912 OFFCURVE",
"136 869 CURVE SMOOTH",
"94 787 OFFCURVE",
"149 728 OFFCURVE",
"229 728 CURVE SMOOTH",
"307 728 OFFCURVE",
"333 771 OFFCURVE",
"391 827 CURVE SMOOTH",
"395 831 OFFCURVE",
"400 834 OFFCURVE",
"404.5 838 CURVE SMOOTH",
"442.833 866.667 OFFCURVE",
"492.667 881 OFFCURVE",
"554 881 CURVE SMOOTH",
"614 881 OFFCURVE",
"661.167 866.667 OFFCURVE",
"695.5 838 CURVE SMOOTH",
"729.833 809.333 OFFCURVE",
"747 772.333 OFFCURVE",
"747 727 CURVE SMOOTH",
"747 719 LINE SMOOTH",
"747 683 OFFCURVE",
"727.667 660.667 OFFCURVE",
"689 652 CURVE SMOOTH",
"650.333 643.333 OFFCURVE",
"582 633.333 OFFCURVE",
"484 622 CURVE SMOOTH",
"411.333 614.667 OFFCURVE",
"343.5 601 OFFCURVE",
"280.5 581 CURVE SMOOTH",
"217.5 561 OFFCURVE",
"166.5 529.167 OFFCURVE",
"127.5 485.5 CURVE SMOOTH",
"88.5 441.833 OFFCURVE",
"69 380 OFFCURVE",
"69 300 CURVE SMOOTH",
"69 194.667 OFFCURVE",
"103.5 115.5 OFFCURVE",
"172.5 62.5 CURVE SMOOTH",
"241.5 9.5 OFFCURVE",
"328.667 -17 OFFCURVE",
"434 -17 CURVE SMOOTH"
);
},
{
closed = 1;
nodes = (
"440.667 170 OFFCURVE",
"396.667 181.667 OFFCURVE",
"364 205 CURVE SMOOTH",
"331.333 228.333 OFFCURVE",
"315 260.667 OFFCURVE",
"315 302 CURVE SMOOTH",
"315 350 OFFCURVE",
"334.833 385.167 OFFCURVE",
"374.5 407.5 CURVE SMOOTH",
"414.167 429.833 OFFCURVE",
"461 445 OFFCURVE",
"515 453 CURVE SMOOTH",
"567 461 OFFCURVE",
"615 469.167 OFFCURVE",
"659 477.5 CURVE SMOOTH",
"703 485.833 OFFCURVE",
"732.667 495 OFFCURVE",
"748 505 CURVE",
"748 391 LINE SMOOTH",
"748 329.667 OFFCURVE",
"726.667 277.5 OFFCURVE",
"684 234.5 CURVE SMOOTH",
"641.333 191.5 OFFCURVE",
"578.667 170 OFFCURVE",
"496 170 CURVE SMOOTH"
);
}
);
userData = {
assembly = "MPPEM[ ]	/* MeasurePixelPerEm */\012PUSHB[ ]	/* 1 value pushed */\01230 \012LT[ ]	/* LessThan */\012IF[ ]	/* If */\012NPUSHB[ ]	/* 10 values pushed */\01235 1 5 2 27 1 0 5 2 76 \012ELSE[ ]	/* Else */\012NPUSHB[ ]	/* 10 values pushed */\01235 1 5 2 27 1 4 5 2 76 \012EIF[ ]	/* EndIf */\012MPPEM[ ]	/* MeasurePixelPerEm */\012PUSHB[ ]	/* 1 value pushed */\01230 \012LT[ ]	/* LessThan */\012IF[ ]	/* If */\012NPUSHB[ ]	/* 32 values pushed */\0120 2 1 5 1 2 5 128 0 1 1 3 97 0 3 3 112 77 7 1 5 5 0 97 4 6 2 0 0 110 0 78 \012ELSE[ ]	/* Else */\012NPUSHB[ ]	/* 36 values pushed */\0120 2 1 5 1 2 5 128 0 1 1 3 97 0 3 3 112 77 0 4 4 104 77 7 1 5 5 0 97 6 1 0 0 110 0 78 \012EIF[ ]	/* EndIf */\012NPUSHB[ ]	/* 23 values pushed */\01232 31 1 0 31 43 32 43 26 25 22 20 18 17 15 13 0 30 1 30 8 12 22 \012CALL[ ]	/* CallFunction */";
};
width = 1108;
}
);
leftKerningGroup = a;
note = a;
rightKerningGroup = a;
unicode = 0061;
},
{
glyphname = "alphaturned-latin";
lastChange = "2024-07-06 18:59:39 +0000";
layers = (
{
layerId = "9A547413-C347-4957-B455-92488FFEB499";
paths = (
{
closed = 1;
nodes = (
"773 -21 OFFCURVE",
"853.333 2 OFFCURVE",
"922 48 CURVE SMOOTH",
"990.667 94 OFFCURVE",
"1043.833 158.167 OFFCURVE",
"1081.5 240.5 CURVE SMOOTH",
"1119.167 322.833 OFFCURVE",
"1138 419 OFFCURVE",
"1138 529 CURVE SMOOTH",
"1138 637 OFFCURVE",
"1119 732.167 OFFCURVE",
"1081 814.5 CURVE SMOOTH",
"1043 896.833 OFFCURVE",
"989.667 961.167 OFFCURVE",
"921 1007.5 CURVE SMOOTH",
"852.333 1053.833 OFFCURVE",
"773 1077 OFFCURVE",
"683 1077 CURVE SMOOTH",
"614.333 1077 OFFCURVE",
"552 1063 OFFCURVE",
"496 1035 CURVE SMOOTH",
"440 1007 OFFCURVE",
"395.667 965 OFFCURVE",
"363 909 CURVE",
"360 909 LINE",
"360 983 LINE SMOOTH",
"360 1030 OFFCURVE",
"316 1056 OFFCURVE",
"236 1056 CURVE SMOOTH",
"156 1056 OFFCURVE",
"112 1006 OFFCURVE",
"112 914 CURVE SMOOTH",
"112 142 LINE SMOOTH",
"112 50 OFFCURVE",
"156 0 OFFCURVE",
"236 0 CURVE SMOOTH",
"316 0 OFFCURVE",
"360 50 OFFCURVE",
"360 142 CURVE SMOOTH",
"360 159 LINE",
"362 159 LINE",
"395.333 99 OFFCURVE",
"439.667 54 OFFCURVE",
"495 24 CURVE SMOOTH",
"550.333 -6 OFFCURVE",
"612.333 -21 OFFCURVE",
"681 -21 CURVE SMOOTH"
);
},
{
closed = 1;
nodes = (
"539.333 190 OFFCURVE",
"473.333 220.833 OFFCURVE",
"424 282.5 CURVE SMOOTH",
"374.667 344.167 OFFCURVE",
"350 426.333 OFFCURVE",
"350 529 CURVE SMOOTH",
"350 631.667 OFFCURVE",
"374.667 713.833 OFFCURVE",
"424 775.5 CURVE SMOOTH",
"473.333 837.167 OFFCURVE",
"539.333 868 OFFCURVE",
"622 868 CURVE SMOOTH",
"700 868 OFFCURVE",
"763 838.667 OFFCURVE",
"811 780 CURVE SMOOTH",
"859 721.333 OFFCURVE",
"883 637.667 OFFCURVE",
"883 529 CURVE SMOOTH",
"883 419.667 OFFCURVE",
"859 335.833 OFFCURVE",
"811 277.5 CURVE SMOOTH",
"763 219.167 OFFCURVE",
"700 190 OFFCURVE",
"622 190 CURVE SMOOTH"
);
}
);
userData = {
assembly = "MPPEM[ ]	/* MeasurePixelPerEm */\012PUSHB[ ]	/* 1 value pushed */\01224 \012LT[ ]	/* LessThan */\012IF[ ]	/* If */\012NPUSHB[ ]	/* 10 values pushed */\0129 1 5 2 3 1 0 4 2 76 \012ELSE[ ]	/* Else */\012NPUSHB[ ]	/* 10 values pushed */\0129 1 5 2 3 1 1 4 2 76 \012EIF[ ]	/* EndIf */\012MPPEM[ ]	/* MeasurePixelPerEm */\012PUSHB[ ]	/* 1 value pushed */\01224 \012LT[ ]	/* LessThan */\012IF[ ]	/* If */\012NPUSHB[ ]	/* 25 values pushed */\0120 5 5 2 97 3 1 2 2 106 77 7 1 4 4 0 97 1 6 2 0 0 110 0 78 \012ELSE[ ]	/* Else */\012NPUSHB[ ]	/* 33 values pushed */\0120 2 2 106 77 0 5 5 3 97 0 3 3 112 77 0 1 1 104 77 7 1 4 4 0 97 6 1 0 0 110 0 78 \012EIF[ ]	/* EndIf */\012NPUSHB[ ]	/* 23 values pushed */\01222 21 1 0 28 26 21 32 22 32 14 12 8 7 6 5 0 20 1 20 8 12 22 \012CALL[ ]	/* CallFunction */";
};
width = 1201;
}
);
note = ascriptturn;
unicode = 0252;
},
{
glyphname = aturned;
lastChange = "2024-07-06 18:59:39 +0000";
layers = (
{
layerId = "9A547413-C347-4957-B455-92488FFEB499";
paths = (
{
closed = 1;
nodes = (
"588 1073 OFFCURVE",
"521 1057 OFFCURVE",
"473 1025 CURVE SMOOTH",
"425 993 OFFCURVE",
"388.667 953.667 OFFCURVE",
"364 907 CURVE",
"360 907 LINE",
"360 982 LINE SMOOTH",
"360 1030 OFFCURVE",
"316 1056 OFFCURVE",
"236 1056 CURVE SMOOTH",
"156 1056 OFFCURVE",
"112 1006 OFFCURVE",
"112 914 CURVE SMOOTH",
"112 336 LINE SMOOTH",
"112 226 OFFCURVE",
"150.5 139 OFFCURVE",
"227.5 75 CURVE SMOOTH",
"304.5 11 OFFCURVE",
"411.667 -21 OFFCURVE",
"549 -21 CURVE SMOOTH",
"687 -21 OFFCURVE",
"796.667 11 OFFCURVE",
"878 75 CURVE SMOOTH",
"919 107 OFFCURVE",
"950 144 OFFCURVE",
"972 187 CURVE SMOOTH",
"1014 269 OFFCURVE",
"959 328 OFFCURVE",
"880 328 CURVE SMOOTH",
"802 328 OFFCURVE",
"776 285 OFFCURVE",
"718 229 CURVE SMOOTH",
"713 225 OFFCURVE",
"709 222 OFFCURVE",
"704 218 CURVE SMOOTH",
"666 189.333 OFFCURVE",
"616.333 175 OFFCURVE",
"555 175 CURVE SMOOTH",
"494.333 175 OFFCURVE",
"447 189.333 OFFCURVE",
"413 218 CURVE SMOOTH",
"379 246.667 OFFCURVE",
"362 283.667 OFFCURVE",
"362 329 CURVE SMOOTH",
"362 337 LINE SMOOTH",
"362 373 OFFCURVE",
"381.167 395.333 OFFCURVE",
"419.5 404 CURVE SMOOTH",
"457.833 412.667 OFFCURVE",
"526 422.667 OFFCURVE",
"624 434 CURVE SMOOTH",
"696.667 441.333 OFFCURVE",
"764.5 455 OFFCURVE",
"827.5 475 CURVE SMOOTH",
"890.5 495 OFFCURVE",
"941.5 526.833 OFFCURVE",
"980.5 570.5 CURVE SMOOTH",
"1019.5 614.167 OFFCURVE",
"1039 676 OFFCURVE",
"1039 756 CURVE SMOOTH",
"1039 861.333 OFFCURVE",
"1004.5 940.5 OFFCURVE",
"935.5 993.5 CURVE SMOOTH",
"866.5 1046.5 OFFCURVE",
"779.333 1073 OFFCURVE",
"674 1073 CURVE SMOOTH"
);
},
{
closed = 1;
nodes = (
"667.333 886 OFFCURVE",
"711.333 874.333 OFFCURVE",
"744 851 CURVE SMOOTH",
"776.667 827.667 OFFCURVE",
"793 795.333 OFFCURVE",
"793 754 CURVE SMOOTH",
"793 706 OFFCURVE",
"773.167 670.833 OFFCURVE",
"733.5 648.5 CURVE SMOOTH",
"693.833 626.167 OFFCURVE",
"647 611 OFFCURVE",
"593 603 CURVE SMOOTH",
"541 595 OFFCURVE",
"493.167 586.833 OFFCURVE",
"449.5 578.5 CURVE SMOOTH",
"405.833 570.167 OFFCURVE",
"376 561 OFFCURVE",
"360 551 CURVE",
"360 665 LINE SMOOTH",
"360 726.333 OFFCURVE",
"381.5 778.5 OFFCURVE",
"424.5 821.5 CURVE SMOOTH",
"467.5 864.5 OFFCURVE",
"530 886 OFFCURVE",
"612 886 CURVE SMOOTH"
);
}
);
userData = {
assembly = "MPPEM[ ]	/* MeasurePixelPerEm */\012PUSHB[ ]	/* 1 value pushed */\01230 \012LT[ ]	/* LessThan */\012IF[ ]	/* If */\012NPUSHB[ ]	/* 10 values pushed */\01227 1 5 0 35 1 2 5 2 76 \012ELSE[ ]	/* Else */\012NPUSHB[ ]	/* 10 values pushed */\01227 1 5 4 35 1 2 5 2 76 \012EIF[ ]	/* EndIf */\012MPPEM[ ]	/* MeasurePixelPerEm */\012PUSHB[ ]	/* 1 value pushed */\01230 \012LT[ ]	/* LessThan */\012IF[ ]	/* If */\012NPUSHB[ ]	/* 32 values pushed */\0120 2 5 1 5 2 1 128 7 1 5 5 0 97 4 6 2 0 0 112 77 0 1 1 3 98 0 3 3 110 3 78 \012ELSE[ ]	/* Else */\012NPUSHB[ ]	/* 36 values pushed */\0120 2 5 1 5 2 1 128 0 4 4 106 77 7 1 5 5 0 97 6 1 0 0 112 77 0 1 1 3 98 0 3 3 110 3 78 \012EIF[ ]	/* EndIf */\012NPUSHB[ ]	/* 23 values pushed */\01232 31 1 0 31 43 32 43 26 25 22 20 18 17 15 13 0 30 1 30 8 12 22 \012CALL[ ]	/* CallFunction */";
};
width = 1108;
}
);
leftKerningGroup = aturned;
note = aturn;
rightKerningGroup = aturned;
unicode = 0250;
},
{
glyphname = ae;
lastChange = "2024-07-06 18:59:39 +0000";
layers = (
{
layerId = "9A547413-C347-4957-B455-92488FFEB499";
paths = (
{
closed = 1;
nodes = (
"547.333 -16 OFFCURVE",
"623.667 -1.833 OFFCURVE",
"693 26.5 CURVE SMOOTH",
"762.333 54.833 OFFCURVE",
"817.333 103.333 OFFCURVE",
"858 172 CURVE",
"898 112 OFFCURVE",
"951.5 64.333 OFFCURVE",
"1018.5 29 CURVE SMOOTH",
"1085.5 -6.333 OFFCURVE",
"1162 -24 OFFCURVE",
"1248 -24 CURVE SMOOTH",
"1330.667 -24 OFFCURVE",
"1406 -9.167 OFFCURVE",
"1474 20.5 CURVE SMOOTH",
"1542 50.167 OFFCURVE",
"1598.5 91.333 OFFCURVE",
"1643.5 144 CURVE SMOOTH",
"1666 170 OFFCURVE",
"1685 199 OFFCURVE",
"1699 229 CURVE SMOOTH",
"1726 285 OFFCURVE",
"1680 326 OFFCURVE",
"1606 326 CURVE SMOOTH",
"1529 326 OFFCURVE",
"1494 287 OFFCURVE",
"1435 234 CURVE SMOOTH",
"1428 228 OFFCURVE",
"1420 222 OFFCURVE",
"1411.5 216.5 CURVE SMOOTH",
"1369.833 188.833 OFFCURVE",
"1317.333 175 OFFCURVE",
"1254 175 CURVE SMOOTH",
"1169.333 175 OFFCURVE",
"1103.333 201.333 OFFCURVE",
"1056 254 CURVE SMOOTH",
"1008.667 306.667 OFFCURVE",
"983.333 376 OFFCURVE",
"980 462 CURVE",
"1602 462 LINE SMOOTH",
"1694 462 OFFCURVE",
"1744 487 OFFCURVE",
"1744 531 CURVE SMOOTH",
"1744 639 OFFCURVE",
"1723 734.167 OFFCURVE",
"1681 816.5 CURVE SMOOTH",
"1639 898.833 OFFCURVE",
"1580 963.333 OFFCURVE",
"1504 1010 CURVE SMOOTH",
"1428 1056.667 OFFCURVE",
"1339.333 1080 OFFCURVE",
"1238 1080 CURVE SMOOTH",
"1164 1080 OFFCURVE",
"1097.833 1065.833 OFFCURVE",
"1039.5 1037.5 CURVE SMOOTH",
"981.167 1009.167 OFFCURVE",
"931 969.667 OFFCURVE",
"889 919 CURVE",
"858.333 969 OFFCURVE",
"814.5 1007.833 OFFCURVE",
"757.5 1035.5 CURVE SMOOTH",
"700.5 1063.167 OFFCURVE",
"631.667 1077 OFFCURVE",
"551 1077 CURVE SMOOTH",
"460.333 1077 OFFCURVE",
"381.833 1061.5 OFFCURVE",
"315.5 1030.5 CURVE SMOOTH",
"249.167 999.5 OFFCURVE",
"197.5 957.5 OFFCURVE",
"160.5 904.5 CURVE SMOOTH",
"142 878 OFFCURVE",
"128 850 OFFCURVE",
"117 821 CURVE SMOOTH",
"98 765 OFFCURVE",
"149 728 OFFCURVE",
"229 728 CURVE SMOOTH",
"307 728 OFFCURVE",
"333 771 OFFCURVE",
"391 827 CURVE SMOOTH",
"395 831 OFFCURVE",
"400 834 OFFCURVE",
"404.5 838 CURVE SMOOTH",
"442.833 866.667 OFFCURVE",
"492.667 881 OFFCURVE",
"554 881 CURVE SMOOTH",
"614 881 OFFCURVE",
"661.167 866.667 OFFCURVE",
"695.5 838 CURVE SMOOTH",
"729.833 809.333 OFFCURVE",
"747 772.333 OFFCURVE",
"747 727 CURVE SMOOTH",
"747 636 LINE",
"604 636 LINE SMOOTH",
"440.667 636 OFFCURVE",
"310.667 608.333 OFFCURVE",
"214 553 CURVE SMOOTH",
"117.333 497.667 OFFCURVE",
"69 413.333 OFFCURVE",
"69 300 CURVE SMOOTH",
"69 202.667 OFFCURVE",
"103.667 125.667 OFFCURVE",
"173 69 CURVE SMOOTH",
"242.333 12.333 OFFCURVE",
"339.333 -16 OFFCURVE",
"464 -16 CURVE SMOOTH"
);
},
{
closed = 1;
nodes = (
"747 462 LINE",
"747 391 LINE SMOOTH",
"747 329.667 OFFCURVE",
"725.833 277.667 OFFCURVE",
"683.5 235 CURVE SMOOTH",
"641.167 192.333 OFFCURVE",
"578.667 171 OFFCURVE",
"496 171 CURVE SMOOTH",
"440.667 171 OFFCURVE",
"396.667 182.333 OFFCURVE",
"364 205 CURVE SMOOTH",
"331.333 227.667 OFFCURVE",
"315 261.667 OFFCURVE",
"315 307 CURVE SMOOTH",
"315 356.333 OFFCURVE",
"337.333 394.5 OFFCURVE",
"382 421.5 CURVE SMOOTH",
"426.667 448.5 OFFCURVE",
"490 462 OFFCURVE",
"572 462 CURVE SMOOTH"
);
},
{
closed = 1;
nodes = (
"990.667 711.333 OFFCURVE",
"1017.833 770.833 OFFCURVE",
"1063.5 814.5 CURVE SMOOTH",
"1109.167 858.167 OFFCURVE",
"1168.667 880 OFFCURVE",
"1242 880 CURVE SMOOTH",
"1314.667 880 OFFCURVE",
"1374.167 858.167 OFFCURVE",
"1420.5 814.5 CURVE SMOOTH",
"1466.833 770.833 OFFCURVE",
"1494 711.333 OFFCURVE",
"1502 636 CURVE",
"982 636 LINE"
);
}
);
userData = {
assembly = "NPUSHB[ ]	/* 97 values pushed */\01222 1 2 4 45 1 0 7 2 76 0 3 2 1 2 3 1 128 0 8 6 7 6 8 7 128 12 1 1 10 1 6 8 1 6 103 13 1 2 2 4 97 5 1 4 4 112 77 11 1 7 7 0 97 9 14 2 0 0 110 0 78 1 0 64 62 60 59 56 54 50 48 43 41 38 37 35 33 31 30 26 24 20 18 15 14 12 10 7 5 0 47 1 47 15 12 22 \012CALL[ ]	/* CallFunction */";
};
width = 1803;
}
);
leftKerningGroup = a;
note = ae;
rightKerningGroup = aturned;
unicode = 00E6;
},
{
glyphname = b;
lastChange = "2024-07-06 18:59:39 +0000";
layers = (
{
layerId = "9A547413-C347-4957-B455-92488FFEB499";
paths = (
{
closed = 1;
nodes = (
"774 -21 OFFCURVE",
"854.333 2 OFFCURVE",
"923 48 CURVE SMOOTH",
"991.667 94 OFFCURVE",
"1044.833 158.167 OFFCURVE",
"1082.5 240.5 CURVE SMOOTH",
"1120.167 322.833 OFFCURVE",
"1139 419 OFFCURVE",
"1139 529 CURVE SMOOTH",
"1139 637 OFFCURVE",
"1119.833 732.167 OFFCURVE",
"1081.5 814.5 CURVE SMOOTH",
"1043.167 896.833 OFFCURVE",
"989.833 961.167 OFFCURVE",
"921.5 1007.5 CURVE SMOOTH",
"853.167 1053.833 OFFCURVE",
"773.667 1077 OFFCURVE",
"683 1077 CURVE SMOOTH",
"615 1077 OFFCURVE",
"553.667 1063 OFFCURVE",
"499 1035 CURVE SMOOTH",
"444.333 1007 OFFCURVE",
"400 964 OFFCURVE",
"366 906 CURVE",
"364 906 LINE",
"364 1348 LINE SMOOTH",
"364 1440 OFFCURVE",
"320 1490 OFFCURVE",
"238 1490 CURVE SMOOTH",
"156 1490 OFFCURVE",
"112 1440 OFFCURVE",
"112 1348 CURVE SMOOTH",
"112 142 LINE SMOOTH",
"112 50 OFFCURVE",
"156 0 OFFCURVE",
"236 0 CURVE SMOOTH",
"316 0 OFFCURVE",
"360 50 OFFCURVE",
"360 142 CURVE SMOOTH",
"360 161 LINE",
"362 161 LINE",
"394.667 99.667 OFFCURVE",
"438.833 54 OFFCURVE",
"494.5 24 CURVE SMOOTH",
"550.167 -6 OFFCURVE",
"612.667 -21 OFFCURVE",
"682 -21 CURVE SMOOTH"
);
},
{
closed = 1;
nodes = (
"540.333 190 OFFCURVE",
"474.167 220.833 OFFCURVE",
"424.5 282.5 CURVE SMOOTH",
"374.833 344.167 OFFCURVE",
"350 426.333 OFFCURVE",
"350 529 CURVE SMOOTH",
"350 631.667 OFFCURVE",
"374.833 713.833 OFFCURVE",
"424.5 775.5 CURVE SMOOTH",
"474.167 837.167 OFFCURVE",
"540.333 868 OFFCURVE",
"623 868 CURVE SMOOTH",
"701 868 OFFCURVE",
"764 838.667 OFFCURVE",
"812 780 CURVE SMOOTH",
"860 721.333 OFFCURVE",
"884 637.667 OFFCURVE",
"884 529 CURVE SMOOTH",
"884 419.667 OFFCURVE",
"860 335.833 OFFCURVE",
"812 277.5 CURVE SMOOTH",
"764 219.167 OFFCURVE",
"701 190 OFFCURVE",
"623 190 CURVE SMOOTH"
);
}
);
userData = {
assembly = "MPPEM[ ]	/* MeasurePixelPerEm */\012PUSHB[ ]	/* 1 value pushed */\01224 \012LT[ ]	/* LessThan */\012IF[ ]	/* If */\012NPUSHB[ ]	/* 10 values pushed */\0129 1 5 3 3 1 0 4 2 76 \012ELSE[ ]	/* Else */\012NPUSHB[ ]	/* 10 values pushed */\0129 1 5 3 3 1 1 4 2 76 \012EIF[ ]	/* EndIf */\012MPPEM[ ]	/* MeasurePixelPerEm */\012PUSHB[ ]	/* 1 value pushed */\01224 \012LT[ ]	/* LessThan */\012IF[ ]	/* If */\012NPUSHB[ ]	/* 29 values pushed */\0120 2 2 103 77 0 5 5 3 97 0 3 3 112 77 7 1 4 4 0 97 1 6 2 0 0 110 0 78 \012ELSE[ ]	/* Else */\012NPUSHB[ ]	/* 33 values pushed */\0120 2 2 103 77 0 5 5 3 97 0 3 3 112 77 0 1 1 104 77 7 1 4 4 0 97 6 1 0 0 110 0 78 \012EIF[ ]	/* EndIf */\012NPUSHB[ ]	/* 23 values pushed */\01222 21 1 0 28 26 21 32 22 32 14 12 8 7 6 5 0 20 1 20 8 12 22 \012CALL[ ]	/* CallFunction */";
};
width = 1202;
}
);
leftKerningGroup = B;
note = b;
rightKerningGroup = b;
unicode = 0062;
},
